<?xml version="1.0" encoding="UTF-8"?>
<svg width="24px" height="24px" viewBox="0 0 24 24" version="1.1" xmlns="http://www.w3.org/2000/svg" xmlns:xlink="http://www.w3.org/1999/xlink">
    <title>LinkedIn</title>
    <g id="Page-1" stroke="none" stroke-width="1" fill="none" fill-rule="evenodd">
        <g id="Desktop" transform="translate(-456, -693)" fill="#FFFFFF" fill-rule="nonzero">
            <g id="Display" transform="translate(58, 0)">
                <g id="Name" transform="translate(0, 548)">
                    <g id="Contacts" transform="translate(275, 134)">
                        <g id="Group-4" transform="translate(112, 0)">
                            <g id="LinkedIn" transform="translate(13.6664, 13.8083)">
                                <path d="M17.0478519,-1.77635684e-15 L1.36007407,-1.77635684e-15 C0.608740741,-1.77635684e-15 0,0.594222222 0,1.32740741 L0,17.1982222 C0,17.9308889 0.608740741,18.5251111 1.36007407,18.5251111 L17.0478519,18.5251111 C17.7991852,18.5251111 18.408963,17.9308889 18.408963,17.1982222 L18.408963,1.32740741 C18.408963,0.594222222 17.7991852,-1.77635684e-15 17.0478519,-1.77635684e-15 L17.0478519,-1.77635684e-15 Z M15.6058519,15.5073333 L12.8255556,15.5073333 L12.8255556,11.032 C12.8255556,9.90785185 12.4237037,9.14044444 11.4172593,9.14044444 C10.6493333,9.14044444 10.192,9.65792593 9.99133333,10.1577778 C9.91718519,10.3356296 9.89955556,10.5860741 9.89955556,10.836 L9.89955556,15.5073333 L7.11874074,15.5073333 C7.11874074,15.5073333 7.15503704,7.92711111 7.11874074,7.14207407 L9.89955556,7.14207407 L9.89955556,8.32792593 C10.2687407,7.75807407 10.9282963,6.94555556 12.405037,6.94555556 C14.2348889,6.94555556 15.6058519,8.14125926 15.6058519,10.711037 L15.6058519,15.5073333 Z M5.58081481,7.14207407 L5.58081481,15.5073333 L2.80051852,15.5073333 L2.80051852,7.14207407 L5.58081481,7.14207407 Z M4.20881481,3.10955556 C5.15977778,3.10955556 5.74518519,3.73437037 5.76333333,4.55466667 C5.76333333,5.35785185 5.15977778,6.0002963 4.19014815,6.0002963 L4.172,6.0002963 C3.23918519,6.0002963 2.63562963,5.35785185 2.63562963,4.55466667 C2.63562963,3.73437037 3.25733333,3.10955556 4.20881481,3.10955556 Z" id="Color"></path>
                            </g>
                        </g>
                    </g>
                </g>
            </g>
        </g>
    </g>
</svg>