<?xml version="1.0" encoding="UTF-8"?>
<svg width="198px" height="51px" viewBox="0 0 198 51" version="1.1" xmlns="http://www.w3.org/2000/svg" xmlns:xlink="http://www.w3.org/1999/xlink">
    <title>OWLs</title>
    <g id="Site" stroke="none" stroke-width="1" fill="none" fill-rule="evenodd">
        <g id="About" transform="translate(-274, -1163)" fill="#0D0D0D">
            <g id="Project" transform="translate(178, 1086)">
                <path d="M116.855873,86.6494573 C128.355276,86.6494573 137.711745,95.9249047 137.711745,107.324729 C137.711745,118.724553 128.355276,128 116.855873,128 C105.35647,128 96,118.724553 96,107.324729 C96,95.9249047 105.35647,86.6494573 116.855873,86.6494573 Z M116.855873,96.6230566 C110.904957,96.6230566 106.06072,101.425345 106.06072,107.324729 C106.06072,113.224113 110.904957,118.026401 116.855873,118.026401 C122.806788,118.026401 127.651025,113.224113 127.651025,107.324729 C127.651025,101.425345 122.806788,96.6230566 116.855873,96.6230566 Z M119.632631,102.332942 C122.413601,102.332942 124.668022,104.567841 124.668022,107.324729 C124.668022,110.081616 122.413601,112.316515 119.632631,112.316515 C116.851662,112.316515 114.597241,110.081616 114.597241,107.324729 C114.597241,104.567841 116.851662,102.332942 119.632631,102.332942 Z M141.167602,87.2029921 L152.838038,87.2029921 L152.838038,127.202112 L148.637687,127.202112 C144.517822,127.202112 141.167602,123.88589 141.167602,119.796715 L141.167602,87.2029921 L141.167602,87.2029921 L141.167602,87.2029921 Z M157.868398,95.8102083 L169.538833,95.8102083 L169.538833,127.202112 L157.868398,127.202112 Z M174.564162,87.2029921 L186.234598,87.2029921 L186.234598,119.801701 C186.234598,123.88589 182.889408,127.207099 178.764513,127.207099 L174.564162,127.207099 L174.564162,87.2029921 L174.564162,87.2029921 Z M191.264958,77 L202.935393,77 L202.935393,127.202112 L198.735042,127.202112 C194.615177,127.202112 191.264958,123.88589 191.264958,119.796715 L191.264958,77 L191.264958,77 Z M221.089962,103.774127 C220.828383,103.774127 220.546683,103.75418 220.239831,103.714286 C219.932979,103.674391 219.631158,103.584629 219.334367,103.454972 C219.037575,103.320329 218.750845,103.135817 218.474175,102.891464 C218.197505,102.647111 217.951018,102.327955 217.739742,101.933998 C217.528467,101.535054 217.357435,101.046348 217.231676,100.462892 C217.105917,99.8794368 217.040522,99.1862716 217.040522,98.3833969 L217.040522,92.6685245 C217.040522,91.8556762 217.105917,91.162511 217.236706,90.5840422 C217.367496,90.0055735 217.538528,89.5218539 217.754833,89.1278967 C217.971139,88.7339396 218.217627,88.4197712 218.494296,88.1903784 C218.770966,87.9559988 219.057697,87.7814608 219.359518,87.6567908 C219.66134,87.5321209 219.963162,87.4523321 220.259953,87.4174245 C220.556744,87.3775301 220.833414,87.3625697 221.089962,87.3625697 C221.346511,87.3625697 221.598029,87.3825169 221.89482,87.4124377 C222.191611,87.4423585 222.483372,87.5221473 222.780163,87.6368436 C223.076954,87.75154 223.363685,87.926078 223.640355,88.1554708 C223.922055,88.3848636 224.168542,88.699032 224.384848,89.0880023 C224.601153,89.4819595 224.772186,89.9706659 224.902975,90.5541214 C225.033764,91.137577 225.099159,91.8407158 225.099159,92.6635377 L225.099159,98.3784101 C225.099159,99.176298 225.033764,99.8644764 224.897945,100.442945 C224.762125,101.021414 224.591093,101.505133 224.374787,101.909064 C224.158482,102.308008 223.911994,102.63215 223.625264,102.871517 C223.343563,103.11587 223.051803,103.305368 222.760042,103.440012 C222.46325,103.574655 222.17149,103.664418 221.879729,103.709299 C221.587968,103.75418 221.326389,103.774127 221.089962,103.774127 L221.089962,103.774127 Z M221.089962,101.933998 C221.331419,101.933998 221.542695,101.894104 221.723788,101.809328 C221.90488,101.724553 222.055791,101.584922 222.17149,101.38545 C222.287188,101.185978 222.377734,100.916691 222.438099,100.587562 C222.498463,100.258434 222.528645,99.8395424 222.528645,99.3358756 L222.528645,92.0002933 C222.528645,91.4816662 222.498463,91.0528014 222.438099,90.7087122 C222.377734,90.3646231 222.287188,90.0853623 222.17149,89.8709299 C222.055791,89.6614843 221.90488,89.5118803 221.723788,89.4221179 C221.542695,89.3323555 221.331419,89.2924611 221.089962,89.2924611 C220.848505,89.2924611 220.627169,89.3373423 220.441046,89.4221179 C220.254922,89.5118803 220.104012,89.6614843 219.983283,89.8709299 C219.862554,90.0803755 219.772008,90.3596363 219.711644,90.7087122 C219.651279,91.0528014 219.621097,91.486653 219.621097,92.0002933 L219.621097,99.3358756 C219.621097,99.8395424 219.651279,100.258434 219.711644,100.587562 C219.772008,100.916691 219.862554,101.185978 219.983283,101.38545 C220.104012,101.584922 220.254922,101.729539 220.441046,101.809328 C220.627169,101.889117 220.843475,101.933998 221.089962,101.933998 Z M226.200808,87.5022001 L228.565077,87.5022001 L229.661696,97.2464066 L229.787455,99.5203872 L230.023882,99.5203872 L230.250248,96.962159 L232.000813,87.5022001 L233.972714,87.5022001 L235.647824,96.962159 L235.838978,99.5203872 L236.085465,99.5203872 L236.201164,97.2464066 L237.202205,87.5022001 L239.576535,87.5022001 L237.297782,103.62951 L234.792663,103.62951 L233.449557,95.8750367 L233.032037,92.5039601 L232.840883,92.5039601 L232.433424,95.8750367 L231.024923,103.62951 L228.549986,103.62951 L226.205838,87.5022001 L226.200808,87.5022001 Z M241.130916,87.5022001 L243.595793,87.5022001 L243.595793,101.704605 L246.956073,101.704605 L246.956073,103.62951 L241.125886,103.62951 L241.125886,87.5022001 L241.130916,87.5022001 Z M216.859429,123.716339 C216.859429,123.37225 216.879551,123.053095 216.919794,122.758874 C216.960037,122.464652 217.025431,122.150484 217.105917,121.811382 L219.022484,121.811382 L219.022484,122.594309 C219.022484,123.028161 219.047636,123.412144 219.10297,123.74626 C219.158304,124.080375 219.24382,124.359636 219.369579,124.589029 C219.495338,124.818422 219.65631,124.99296 219.862554,125.107656 C220.068799,125.222353 220.320317,125.282194 220.622139,125.282194 C221.089962,125.282194 221.452148,125.152537 221.698636,124.898211 C221.945123,124.643884 222.070882,124.269874 222.070882,123.781167 C222.070882,123.531828 222.055791,123.297448 222.020579,123.088002 C221.985366,122.878557 221.925002,122.669111 221.839486,122.459666 C221.75397,122.25022 221.638271,122.030801 221.492391,121.801408 C221.346511,121.572015 221.160387,121.312702 220.928991,121.033441 L218.358477,118.001467 C217.900714,117.422998 217.548589,116.839542 217.302101,116.2511 C217.055613,115.662658 216.929854,115.034321 216.929854,114.36609 C216.929854,113.832502 217.015371,113.338809 217.181372,112.894984 C217.347374,112.446172 217.593862,112.062188 217.910775,111.738046 C218.227687,111.413904 218.620055,111.159578 219.087879,110.98504 C219.555702,110.805515 220.08389,110.715752 220.672442,110.715752 C221.391784,110.715752 221.990397,110.815488 222.468281,111.019947 C222.946165,111.219419 223.328472,111.48372 223.615203,111.812848 C223.901933,112.141977 224.103148,112.506013 224.218846,112.914931 C224.334544,113.318862 224.394909,113.727779 224.394909,114.136697 C224.394909,114.480786 224.369757,114.799941 224.314423,115.094163 C224.259089,115.388384 224.198725,115.707539 224.1283,116.061602 L222.221793,116.061602 L222.221793,115.298621 C222.221793,114.440892 222.096034,113.787621 221.849547,113.328835 C221.603059,112.87005 221.20063,112.645644 220.64226,112.645644 C220.179467,112.645644 219.832372,112.775301 219.606006,113.029627 C219.37964,113.283954 219.263941,113.628043 219.263941,114.051921 C219.263941,114.281314 219.279033,114.485773 219.314245,114.665298 C219.349458,114.844823 219.399761,115.014374 219.465156,115.168965 C219.530551,115.323555 219.611036,115.473159 219.706613,115.617776 C219.80219,115.762394 219.907828,115.911998 220.028556,116.071575 L222.895861,119.50748 C223.413988,120.180698 223.816417,120.828982 224.098117,121.447345 C224.379818,122.065708 224.515637,122.723966 224.515637,123.417131 C224.515637,123.990613 224.425091,124.504253 224.243998,124.968026 C224.062905,125.426811 223.806357,125.815782 223.469322,126.139924 C223.132288,126.459079 222.724829,126.708419 222.251975,126.882957 C221.779121,127.057495 221.240873,127.14227 220.64226,127.14227 C219.907828,127.14227 219.294124,127.042534 218.806179,126.848049 C218.318234,126.653564 217.930896,126.394251 217.644166,126.075095 C217.357435,125.75594 217.15119,125.386917 217.035492,124.977999 C216.919794,124.569082 216.859429,124.150191 216.859429,123.721326 L216.859429,123.716339 Z M229.99873,127.122323 C229.737151,127.122323 229.455451,127.102376 229.148599,127.062482 C228.841747,127.022587 228.539925,126.932825 228.243134,126.803168 C227.946343,126.668524 227.659612,126.484013 227.382943,126.23966 C227.106273,125.995307 226.859785,125.676151 226.64851,125.282194 C226.437235,124.88325 226.266203,124.394544 226.140444,123.811088 C226.014685,123.227633 225.94929,122.534468 225.94929,121.731593 L225.94929,116.01672 C225.94929,115.203872 226.014685,114.510707 226.145474,113.932238 C226.276263,113.353769 226.447296,112.87005 226.663601,112.476093 C226.879907,112.082136 227.126394,111.767967 227.403064,111.538574 C227.679734,111.304195 227.966464,111.129657 228.268286,111.004987 C228.570107,110.880317 228.871929,110.800528 229.16872,110.76562 C229.465512,110.725726 229.742181,110.710766 229.99873,110.710766 C230.255278,110.710766 230.506796,110.730713 230.803587,110.760634 C231.100379,110.790554 231.392139,110.870343 231.688931,110.98504 C231.985722,111.099736 232.272452,111.274274 232.549122,111.503667 C232.830822,111.73306 233.07731,112.047228 233.293616,112.436198 C233.509921,112.830155 233.680953,113.318862 233.811743,113.902317 C233.942532,114.485773 234.007927,115.188912 234.007927,116.011734 L234.007927,121.726606 C234.007927,122.524494 233.942532,123.212672 233.806712,123.791141 C233.670893,124.36961 233.49986,124.853329 233.283555,125.25726 C233.067249,125.656204 232.820762,125.980346 232.534031,126.219713 C232.252331,126.464066 231.96057,126.653564 231.668809,126.788208 C231.372018,126.922851 231.080257,127.012614 230.788496,127.057495 C230.496735,127.102376 230.235157,127.122323 229.99873,127.122323 L229.99873,127.122323 Z M229.99873,125.282194 C230.240187,125.282194 230.451462,125.2423 230.632555,125.157524 C230.813648,125.072749 230.964559,124.933118 231.080257,124.733646 C231.195955,124.534174 231.286502,124.264887 231.346866,123.935758 C231.407231,123.60663 231.437413,123.187738 231.437413,122.684072 L231.437413,115.348489 C231.437413,114.829862 231.407231,114.400997 231.346866,114.056908 C231.286502,113.712819 231.195955,113.433558 231.080257,113.219126 C230.964559,113.00968 230.813648,112.860076 230.632555,112.770314 C230.451462,112.680551 230.240187,112.640657 229.99873,112.640657 C229.757272,112.640657 229.535937,112.685538 229.349813,112.770314 C229.16369,112.860076 229.012779,113.00968 228.892051,113.219126 C228.771322,113.428571 228.680775,113.707832 228.620411,114.056908 C228.560047,114.400997 228.529865,114.834849 228.529865,115.348489 L228.529865,122.684072 C228.529865,123.187738 228.560047,123.60663 228.620411,123.935758 C228.680775,124.264887 228.771322,124.534174 228.892051,124.733646 C229.012779,124.933118 229.16369,125.077735 229.349813,125.157524 C229.535937,125.237313 229.752242,125.282194 229.99873,125.282194 L229.99873,125.282194 Z M236.15086,110.855383 L238.615736,110.855383 L238.615736,125.057788 L241.976017,125.057788 L241.976017,126.982693 L236.14583,126.982693 L236.14583,110.855383 L236.15086,110.855383 Z M243.288941,110.855383 L245.773939,110.855383 L245.773939,122.679085 C245.773939,123.182752 245.79909,123.601643 245.849394,123.935758 C245.899698,124.269874 245.980183,124.534174 246.090851,124.733646 C246.201519,124.933118 246.342369,125.072749 246.518432,125.157524 C246.694495,125.2423 246.900739,125.287181 247.142197,125.287181 C247.383654,125.287181 247.594929,125.2423 247.776022,125.157524 C247.957115,125.072749 248.108026,124.928131 248.223724,124.733646 C248.339422,124.534174 248.429969,124.269874 248.490333,123.935758 C248.550697,123.601643 248.58088,123.182752 248.58088,122.679085 L248.58088,110.855383 L251.040726,110.855383 L251.040726,122.025814 C251.040726,122.813728 250.975331,123.486946 250.849572,124.045468 C250.723813,124.603989 250.552781,125.072749 250.346536,125.451745 C250.135261,125.830742 249.898834,126.12995 249.627194,126.349369 C249.355555,126.568789 249.078885,126.73834 248.787124,126.853036 C248.500394,126.967732 248.208633,127.042534 247.926933,127.077442 C247.640202,127.107363 247.378624,127.122323 247.147227,127.122323 C246.91583,127.122323 246.654252,127.107363 246.372552,127.077442 C246.090851,127.047521 245.804121,126.972719 245.522421,126.853036 C245.23569,126.73834 244.95902,126.568789 244.692411,126.349369 C244.425802,126.12995 244.189375,125.830742 243.9781,125.451745 C243.766825,125.072749 243.600823,124.603989 243.480095,124.050455 C243.359366,123.49692 243.293971,122.818715 243.293971,122.025814 L243.293971,110.855383 L243.288941,110.855383 Z M255.080105,112.780287 L252.459287,112.780287 L252.459287,110.855383 L260.155738,110.855383 L260.155738,112.780287 L257.544981,112.780287 L257.544981,126.982693 L255.080105,126.982693 L255.080105,112.780287 L255.080105,112.780287 Z M261.624603,110.855383 L264.089479,110.855383 L264.089479,126.982693 L261.624603,126.982693 L261.624603,110.855383 Z M270.281853,127.122323 C270.020274,127.122323 269.738574,127.102376 269.431722,127.062482 C269.12487,127.022587 268.823048,126.932825 268.526257,126.803168 C268.229466,126.668524 267.937705,126.484013 267.666065,126.23966 C267.394426,125.995307 267.142908,125.676151 266.931633,125.282194 C266.720358,124.88325 266.549325,124.394544 266.423566,123.811088 C266.297807,123.227633 266.232413,122.534468 266.232413,121.731593 L266.232413,116.01672 C266.232413,115.203872 266.297807,114.510707 266.428597,113.932238 C266.559386,113.353769 266.730418,112.87005 266.946724,112.476093 C267.163029,112.082136 267.409517,111.767967 267.686187,111.538574 C267.962857,111.304195 268.249587,111.129657 268.551409,111.004987 C268.85323,110.880317 269.155052,110.800528 269.451843,110.76562 C269.748634,110.725726 270.025304,110.710766 270.281853,110.710766 C270.538401,110.710766 270.789919,110.730713 271.08671,110.760634 C271.383501,110.795541 271.675262,110.870343 271.972054,110.98504 C272.268845,111.099736 272.555575,111.274274 272.832245,111.503667 C273.108915,111.73306 273.360433,112.047228 273.576738,112.436198 C273.793044,112.830155 273.964076,113.318862 274.094865,113.902317 C274.225655,114.485773 274.29105,115.188912 274.29105,116.011734 L274.29105,121.726606 C274.29105,122.524494 274.225655,123.212672 274.089835,123.791141 C273.959046,124.36961 273.782983,124.853329 273.566678,125.25726 C273.350372,125.656204 273.103885,125.980346 272.817154,126.219713 C272.535454,126.464066 272.243693,126.653564 271.951932,126.788208 C271.655141,126.922851 271.36338,127.012614 271.071619,127.057495 C270.779858,127.102376 270.51828,127.122323 270.281853,127.122323 L270.281853,127.122323 Z M270.281853,125.282194 C270.52331,125.282194 270.734585,125.2423 270.915678,125.157524 C271.096771,125.077735 271.247682,124.933118 271.36338,124.733646 C271.479078,124.534174 271.569625,124.264887 271.629989,123.935758 C271.690353,123.60663 271.720536,123.187738 271.720536,122.684072 L271.720536,115.348489 C271.720536,114.829862 271.690353,114.400997 271.629989,114.056908 C271.569625,113.712819 271.479078,113.433558 271.36338,113.219126 C271.247682,113.00968 271.096771,112.860076 270.915678,112.770314 C270.734585,112.680551 270.52331,112.640657 270.281853,112.640657 C270.040395,112.640657 269.819059,112.685538 269.632936,112.770314 C269.446813,112.860076 269.295902,113.00968 269.175173,113.219126 C269.054445,113.428571 268.963898,113.707832 268.903534,114.056908 C268.84317,114.405984 268.812987,114.834849 268.812987,115.348489 L268.812987,122.684072 C268.812987,123.187738 268.84317,123.60663 268.903534,123.935758 C268.963898,124.264887 269.054445,124.534174 269.175173,124.733646 C269.295902,124.933118 269.446813,125.077735 269.632936,125.157524 C269.819059,125.237313 270.035365,125.282194 270.281853,125.282194 L270.281853,125.282194 Z M276.428953,110.855383 L278.431036,110.855383 L282.374838,121.646817 L282.430172,121.646817 C282.410051,121.397477 282.384899,121.11323 282.354717,120.804048 C282.324534,120.494867 282.294352,120.145791 282.2692,119.751833 C282.244049,119.357876 282.223927,118.914051 282.203806,118.415371 C282.183684,117.916691 282.173624,117.35817 282.173624,116.73482 L282.173624,110.850396 L284.381952,110.850396 L284.381952,126.977706 L282.364777,126.977706 L278.441097,116.465532 L278.365641,116.465532 C278.385763,116.74978 278.410914,117.053975 278.441097,117.38809 C278.471279,117.717219 278.501461,118.106189 278.526613,118.555001 C278.551764,119.003813 278.571886,119.522441 278.592007,120.11587 C278.612129,120.709299 278.622189,121.417424 278.622189,122.23526 L278.622189,126.977706 L276.428953,126.977706 L276.428953,110.850396 L276.428953,110.855383 Z M286.343792,123.716339 C286.343792,123.37225 286.363914,123.053095 286.404156,122.758874 C286.444399,122.464652 286.509794,122.150484 286.59028,121.811382 L288.506847,121.811382 L288.506847,122.594309 C288.506847,123.028161 288.531999,123.412144 288.587333,123.74626 C288.642667,124.080375 288.728183,124.359636 288.853942,124.589029 C288.979701,124.818422 289.140672,124.99296 289.346917,125.107656 C289.553162,125.222353 289.80468,125.282194 290.106501,125.282194 C290.574325,125.282194 290.936511,125.152537 291.182998,124.898211 C291.429486,124.643884 291.555245,124.269874 291.555245,123.781167 C291.555245,123.531828 291.535124,123.297448 291.504941,123.088002 C291.469729,122.878557 291.409365,122.669111 291.323848,122.459666 C291.238332,122.25022 291.122634,122.030801 290.976754,121.801408 C290.830873,121.572015 290.64475,121.312702 290.413353,121.033441 L287.842839,118.001467 C287.385077,117.422998 287.032951,116.839542 286.786464,116.2511 C286.539976,115.662658 286.414217,115.034321 286.414217,114.36609 C286.414217,113.832502 286.499733,113.338809 286.665735,112.894984 C286.831737,112.446172 287.078225,112.062188 287.395137,111.738046 C287.71205,111.413904 288.104418,111.159578 288.572242,110.98504 C289.040065,110.805515 289.568253,110.715752 290.156805,110.715752 C290.876146,110.715752 291.474759,110.815488 291.952643,111.019947 C292.430528,111.219419 292.812835,111.48372 293.099566,111.812848 C293.386296,112.141977 293.58751,112.506013 293.703209,112.914931 C293.818907,113.318862 293.879271,113.727779 293.879271,114.136697 C293.879271,114.480786 293.85412,114.799941 293.798786,115.094163 C293.743452,115.388384 293.683087,115.707539 293.612662,116.061602 L291.706156,116.061602 L291.706156,115.298621 C291.706156,114.440892 291.580397,113.787621 291.333909,113.328835 C291.087422,112.87005 290.684993,112.645644 290.126623,112.645644 C289.66383,112.645644 289.316735,112.775301 289.090369,113.029627 C288.864002,113.283954 288.748304,113.628043 288.748304,114.051921 C288.748304,114.281314 288.763395,114.485773 288.798608,114.665298 C288.83382,114.849809 288.884124,115.014374 288.949519,115.168965 C289.014913,115.323555 289.095399,115.473159 289.190976,115.617776 C289.286553,115.762394 289.39219,115.911998 289.512919,116.071575 L292.380224,119.50748 C292.903382,120.180698 293.30078,120.828982 293.58248,121.447345 C293.85915,122.065708 294,122.723966 294,123.417131 C294,123.990613 293.909454,124.504253 293.728361,124.968026 C293.547268,125.426811 293.290719,125.815782 292.953685,126.139924 C292.616651,126.459079 292.209192,126.708419 291.736338,126.882957 C291.258454,127.057495 290.725236,127.14227 290.126623,127.14227 C289.39219,127.14227 288.778486,127.042534 288.290541,126.848049 C287.802596,126.653564 287.415259,126.394251 287.128528,126.075095 C286.841798,125.75594 286.635553,125.386917 286.519855,124.977999 C286.404156,124.569082 286.343792,124.150191 286.343792,123.721326 L286.343792,123.716339 Z" id="OWLs" fill-rule="nonzero"></path>
            </g>
        </g>
    </g>
</svg>