<svg width="800" height="500" viewBox="0 0 800 500" fill="none" xmlns="http://www.w3.org/2000/svg">
  <g stroke="#231F20" stroke-width="8" stroke-linecap="round" stroke-linejoin="round" fill="none">
    <circle cx="250" cy="220" r="65"/>

    <path d="M230 195 a 35 35 0 0 1 0 50" />
    <path d="M245 180 a 55 55 0 0 1 0 80" />
    <path d="M260 165 a 75 75 0 0 1 0 110" />

    <line x1="435" y1="200" x2="435" y2="280"/>

    <g>
      <line x1="435" y1="280" x2="520" y2="280" />
      <line x1="435" y1="280" x2="520" y2="280" stroke="#5AC8FA" stroke-dasharray="20, 40">
        <animate attributeName="stroke-dashoffset" from="300" to="0" dur="2s" repeatCount="indefinite" />
      </line>
      <path d="M505 270 l15 10 l-15 12"/>
    </g>

    <path d="M340 170 v100 l75 -50 z"/>

    <g>
      <line x1="435" y1="200" x2="495" y2="200"/>
      <line x1="435" y1="200" x2="495" y2="200" stroke="#5AC8FA" stroke-dasharray="15, 30">
        <animate attributeName="stroke-dashoffset" from="150" to="0" dur="1.5s" repeatCount="indefinite" />
      </line>
      <path d="M483 188 l12 12 l-12 12"/>
    </g>

    <path d="M530 155 h110 a 10 10 0 0 1 10 10 v50 a 10 10 0 0 1 -10 10 h-80 l-15 15 v-15 h-15 a 10 10 0 0 1 -10 -10 v-50 a 10 10 0 0 1 10 -10 z" />

    <path d="M555 270 v25 h15 l20 15 v-55 l-20 15 z"/>
    <path d="M605 270 a 20 20 0 0 1 0 25" />
    <path d="M620 260 a 35 35 0 0 1 0 45" />
  </g>
</svg>