<?xml version="1.0" encoding="UTF-8"?>
<svg width="58px" height="58px" viewBox="0 0 58 58" version="1.1" xmlns="http://www.w3.org/2000/svg" xmlns:xlink="http://www.w3.org/1999/xlink">
    <title>Instagram</title>
    <g id="Site" stroke="none" stroke-width="1" fill="none" fill-rule="evenodd">
        <g id="Welcome" transform="translate(-751, -2400)" fill="#FFFFFF">
            <g id="Group" transform="translate(726, 2375)">
                <g id="Instagram" transform="translate(25, 25)" fill-rule="nonzero">
                    <path d="M30.9246623,3.22251544 C36.1939333,3.22834444 37.1538333,3.26314444 39.6275333,3.37624444 C42.3728667,3.50191111 44.2449778,3.93691111 45.8850889,4.57491111 C47.5799778,5.23546667 49.0170889,6.11513333 50.4509778,7.54902222 C51.8848667,8.98291111 52.7645333,10.4200222 53.4250889,12.1149111 C54.0598667,13.7550222 54.4980889,15.6271333 54.6237556,18.3724667 C54.6488889,18.9221778 54.6701556,19.3971333 54.6880969,19.8612364 L54.708065,20.4170408 C54.754168,21.8139778 54.7722919,23.3432939 54.7770525,26.7303733 L54.7778308,27.4330706 C54.7779322,27.5544855 54.7780199,27.6780925 54.7780944,27.8039554 L54.7780944,30.1952682 C54.7780199,30.3211808 54.7779322,30.4448351 54.7778308,30.5662951 L54.7770525,31.2692361 C54.7722919,34.6574043 54.754168,36.185907 54.708065,37.582216 L54.6880969,38.137784 C54.6701556,38.6017067 54.6488889,39.0765333 54.6237556,39.6262444 C54.4980889,42.3715778 54.0598667,44.2436889 53.4250889,45.8838 C52.7645333,47.5819111 51.8848667,49.0190222 50.4509778,50.4496889 C49.0170889,51.8835778 47.5799778,52.7632444 45.8850889,53.4238 C44.2449778,54.0618 42.3728667,54.4968 39.6275333,54.6224667 C38.96788,54.6526267 38.4158747,54.6772187 37.8610928,54.6971781 L37.5829592,54.7067761 C36.1860222,54.7528791 34.6567061,54.771003 31.2696267,54.7757636 L30.5669294,54.7765419 C30.4455145,54.7766433 30.3219075,54.776731 30.1960446,54.7768055 L27.8047311,54.7768055 C27.6788183,54.776731 27.5551637,54.7766433 27.4337032,54.7765419 L26.7307583,54.7757636 C23.3425622,54.771003 21.8138926,54.7528791 20.4165813,54.7067761 L19.8605662,54.686808 C19.3962311,54.6688667 18.9208889,54.6476 18.3705333,54.6224667 C15.6284222,54.4968 13.7563111,54.0618 12.1129778,53.4238 C10.4180889,52.7632444 8.98097778,51.8835778 7.54708889,50.4496889 C6.11642222,49.0190222 5.23353333,47.5819111 4.5762,45.8838 C3.9382,44.2436889 3.5032,42.3715778 3.37753333,39.6262444 C3.35491333,39.1315044 3.33542533,38.6974208 3.3186747,38.2773519 L3.30790882,37.9988703 C3.24915111,36.4267727 3.22820847,34.9067638 3.22380433,30.9241564 L3.22380433,27.0753377 C3.22820847,23.0941107 3.24915111,21.5729493 3.30790882,20.0002057 L3.3186747,19.721616 C3.33542533,19.3013947 3.35491333,18.8672067 3.37753333,18.3724667 C3.5032,15.6271333 3.9382,13.7550222 4.5762,12.1149111 C5.23353333,10.4200222 6.11642222,8.98291111 7.54708889,7.54902222 C8.98097778,6.11513333 10.4180889,5.23546667 12.1129778,4.57491111 C13.7563111,3.93691111 15.6284222,3.50191111 18.3705333,3.37624444 C18.8658533,3.35362444 19.3004125,3.33413644 19.7208715,3.31738581 L19.9996005,3.30661993 C21.5730313,3.24786222 23.093211,3.22691958 27.0758403,3.22251544 Z M30.5692319,7.86541482 L27.4320552,7.86541482 C21.97219,7.8701574 21.080751,7.90379546 18.5832,8.01624444 C16.0698667,8.13224444 14.7036444,8.55113333 13.7982,8.90557778 C12.5930889,9.3728 11.7359778,9.93024444 10.8337556,10.8324667 C9.93153333,11.7346889 9.37086667,12.5950222 8.90364444,13.7969111 C8.55242222,14.7055778 8.13031111,16.0685778 8.01753333,18.5851333 C7.99188707,19.1394871 7.97040112,19.6146608 7.95244553,20.0783862 L7.94209079,20.3557895 C7.88741429,21.8799121 7.86981153,23.4268814 7.86664455,27.4307681 L7.86664455,30.5679448 C7.86961959,34.3291853 7.88533365,35.9223973 7.93255309,37.3661891 L7.95244553,37.9219495 C7.97040112,38.3860915 7.99188707,38.8617887 8.01753333,39.4168 C8.13031111,41.9301333 8.55242222,43.2963556 8.90364444,44.2018 C9.37086667,45.4069111 9.93153333,46.2640222 10.8337556,47.1662444 C11.7359778,48.0684667 12.5930889,48.6259111 13.7982,49.0963556 C14.7036444,49.4475778 16.0698667,49.8696889 18.5832,49.9824667 C19.1929891,50.0106776 19.7071329,50.0338545 20.2157091,50.0528359 L20.4931035,50.0627783 C21.8827293,50.1104605 23.352762,50.1280701 26.7304761,50.1326155 L27.431996,50.1333555 C27.5533358,50.1334514 27.6769306,50.1335341 27.802848,50.1336042 L30.1984061,50.1336042 C30.324316,50.1335341 30.447902,50.1334514 30.5692319,50.1333555 L31.2706797,50.1326155 C36.1114622,50.1261005 37.0311456,50.0927456 39.4148667,49.9824667 C41.9282,49.8696889 43.2944222,49.4475778 44.2030889,49.0963556 C45.4049778,48.6259111 46.2653111,48.0684667 47.1675333,47.1662444 C48.0697556,46.2640222 48.6272,45.4069111 49.0944222,44.2018 C49.4488667,43.2963556 49.8677556,41.9301333 49.9837556,39.4168 C50.0087442,38.8617887 50.0297068,38.3860915 50.0472458,37.9219495 L50.0621228,37.5055121 C50.110294,36.0692599 50.127302,34.5487037 50.1310972,30.9252355 L50.1318441,29.8123486 C50.1319348,29.5510977 50.1319778,29.2802807 50.1319778,28.9993556 L50.131945,28.5854812 C50.1319229,28.450005 50.1318895,28.3169881 50.1318441,28.1863628 L50.1310972,27.073479 C50.1271796,23.3331466 50.109183,21.8337266 50.0573632,20.3557895 L50.0418808,19.9388574 C50.025474,19.5188343 50.0062454,19.0840517 49.9837556,18.5851333 C49.8677556,16.0685778 49.4488667,14.7055778 49.0944222,13.7969111 C48.6272,12.5950222 48.0697556,11.7346889 47.1675333,10.8324667 C46.2653111,9.93024444 45.4049778,9.3728 44.2030889,8.90557778 C43.2944222,8.55113333 41.9282,8.13224444 39.4148667,8.01624444 C36.9202748,7.90379546 36.0290774,7.8701574 30.5692319,7.86541482 Z M29.0006444,15.7624667 C36.3118667,15.7624667 42.2375333,21.6881333 42.2375333,28.9993556 C42.2375333,36.3105778 36.3118667,42.2362444 29.0006444,42.2362444 C21.6894222,42.2362444 15.7637556,36.3105778 15.7637556,28.9993556 C15.7637556,21.6881333 21.6894222,15.7624667 29.0006444,15.7624667 Z M29.0006444,20.4089111 C24.2543111,20.4089111 20.4069778,24.2530222 20.4069778,28.9993556 C20.4069778,33.7456889 24.2543111,37.5930222 29.0006444,37.5930222 C33.7469778,37.5930222 37.5943111,33.7456889 37.5943111,28.9993556 C37.5943111,24.2530222 33.7469778,20.4089111 29.0006444,20.4089111 Z M42.7595333,12.1455222 C44.4673111,12.1455222 45.8528667,13.5310778 45.8528667,15.2388556 C45.8528667,16.9466333 44.4673111,18.3321889 42.7595333,18.3321889 C41.0517556,18.3321889 39.6662,16.9466333 39.6662,15.2388556 C39.6662,13.5310778 41.0517556,12.1455222 42.7595333,12.1455222 Z" id="Color"></path>
                </g>
            </g>
        </g>
    </g>
</svg>