<?xml version="1.0" encoding="UTF-8"?>
<svg width="58px" height="58px" viewBox="0 0 58 58" version="1.1" xmlns="http://www.w3.org/2000/svg" xmlns:xlink="http://www.w3.org/1999/xlink">
    <title>LinkedIn</title>
    <g id="Site" stroke="none" stroke-width="1" fill="none" fill-rule="evenodd">
        <g id="Welcome" transform="translate(-446, -2400)" fill="#FFFFFF">
            <g id="Group" transform="translate(421, 2375)">
                <g id="LinkedIn" transform="translate(25, 25)" fill-rule="nonzero">
                    <path d="M47.6427932,6.78666235 L9.73066358,6.78666235 C7.91494136,6.78666235 6.4438179,8.22269938 6.4438179,9.99456358 L6.4438179,48.3490327 C6.4438179,50.1196438 7.91494136,51.5556809 9.73066358,51.5556809 L47.6427932,51.5556809 C49.4585154,51.5556809 50.9321451,50.1196438 50.9321451,48.3490327 L50.9321451,9.99456358 C50.9321451,8.22269938 49.4585154,6.78666235 47.6427932,6.78666235 L47.6427932,6.78666235 Z M44.1579599,44.2627179 L37.4389105,44.2627179 L37.4389105,33.447329 C37.4389105,30.7306377 36.4677685,28.8760698 34.0355278,28.8760698 C32.1797068,28.8760698 31.0744846,30.12665 30.5895401,31.3346253 C30.4103488,31.764434 30.3677438,32.3696747 30.3677438,32.9736623 L30.3677438,44.2627179 L23.6474414,44.2627179 C23.6474414,44.2627179 23.7351574,25.9438475 23.6474414,24.0466747 L30.3677438,24.0466747 L30.3677438,26.9124833 C31.2599414,25.5353414 32.8538673,23.5717549 36.4226574,23.5717549 C40.8447994,23.5717549 44.1579599,26.4613722 44.1579599,32.6716685 L44.1579599,44.2627179 Z M19.930787,24.0466747 L19.930787,44.2627179 L13.2117377,44.2627179 L13.2117377,24.0466747 L19.930787,24.0466747 Z M16.6151204,14.3014216 C18.9132809,14.3014216 20.3280154,15.8113907 20.3718735,17.7937735 C20.3718735,19.7348043 18.9132809,21.2873784 16.5700093,21.2873784 L16.5261512,21.2873784 C14.2718488,21.2873784 12.8132562,19.7348043 12.8132562,17.7937735 C12.8132562,15.8113907 14.3157068,14.3014216 16.6151204,14.3014216 Z" id="Color"></path>
                </g>
            </g>
        </g>
    </g>
</svg>