<?xml version="1.0" encoding="UTF-8"?>
<svg width="350px" height="350px" viewBox="0 0 350 350" version="1.1" xmlns="http://www.w3.org/2000/svg" xmlns:xlink="http://www.w3.org/1999/xlink">
    <title>Rays-Ltop-Corner</title>
    <defs>
        <rect id="path-1" x="400" y="46" width="350" height="350"></rect>
    </defs>
    <g id="Site" stroke="none" stroke-width="1" fill="none" fill-rule="evenodd">
        <g id="Welcome" transform="translate(-420, 0)">
            <g id="Rays-Ltop-Corner" transform="translate(20, -46)">
                <mask id="mask-2" fill="white">
                    <use xlink:href="#path-1"></use>
                </mask>
                <g id="Rectangle-3"></g>
                <g id="Rays-L" opacity="0.15" mask="url(#mask-2)">
                    <g transform="translate(53, -301)" id="Group-35">
                        <path d="M694,347 C694,538.642895 538.642895,694 347,694 C155.357105,694 0,538.642895 0,347 C0,155.357105 155.357105,0 347,0 C538.642895,0 694,155.357105 694,347 Z" id="Stroke-1" stroke="#000000" stroke-width="2"></path>
                        <path d="M672.312693,346.65005 C672.505953,526.315373 527.014925,672.119568 347.349603,672.312346 C167.685148,672.505606 21.8809525,527.015445 21.6873073,347.350123 C21.4940475,167.6848 166.985075,21.8806055 346.650397,21.686962 C526.314852,21.494568 672.119047,166.984728 672.312693,346.65005 Z" id="Stroke-3" stroke="#000000" stroke-width="2"></path>
                        <path d="M650.625826,346.300101 C651.011905,513.987851 515.387823,650.238269 347.700072,650.625996 C180.012322,651.011211 43.761905,515.387129 43.3741742,347.700246 C42.988095,180.012496 178.612177,43.761211 346.299928,43.3743477 C513.987678,42.9882685 650.238095,178.612351 650.625826,346.300101 Z" id="Stroke-5" stroke="#000000" stroke-width="2"></path>
                        <path d="M628.939495,345.950152 C629.51699,501.660329 503.759853,628.357837 348.049675,628.939327 C192.340365,629.517684 65.64199,503.759679 65.0605053,348.049502 C64.48301,192.340191 190.240147,65.642684 345.950325,65.0603318 C501.659635,64.4828365 628.35801,190.239974 628.939495,345.950152 Z" id="Stroke-7" stroke="#000000" stroke-width="2"></path>
                        <path d="M607.253844,345.600115 C608.022942,489.331853 492.131882,606.47645 348.400145,607.254104 C204.66754,608.023203 87.5229425,492.132143 86.746156,348.399538 C85.9770575,204.6678 201.868118,87.5232028 345.599855,86.7464162 C489.33246,85.9773178 606.477058,201.868378 607.253844,345.600115 Z" id="Stroke-9" stroke="#000000" stroke-width="2"></path>
                        <path d="M585.5625,345.250166 C586.528895,477.004331 480.503912,584.596018 348.749748,585.562413 C216.995583,586.528808 109.403895,480.503826 108.4375,348.749661 C107.471105,216.995496 213.496088,109.403808 345.250253,108.437413 C477.004417,107.471018 584.596105,213.496001 585.5625,345.250166 Z" id="Stroke-11" stroke="#000000" stroke-width="2"></path>
                        <path d="M563.875,344.900216 C565.034848,464.676809 468.87681,562.715586 349.100218,563.875434 C229.322758,565.034414 131.284848,468.876376 130.125,349.099784 C128.965153,229.323191 225.12319,131.284414 344.899783,130.125434 C464.677243,128.965586 562.715153,225.123624 563.875,344.900216 Z" id="Stroke-13" stroke="#000000" stroke-width="2"></path>
                        <path d="M542.1875,344.550267 C543.5408,452.349287 457.24884,540.834287 349.44982,542.187587 C241.6508,543.540887 153.1658,457.248927 151.8125,349.449907 C150.4592,241.650887 236.75116,153.165887 344.55018,151.812587 C452.3492,150.459287 540.8342,236.751247 542.1875,344.550267 Z" id="Stroke-15" stroke="#000000" stroke-width="2"></path>
                        <path d="M520.5,344.200317 C522.045885,440.021765 445.62087,518.953855 349.799422,520.49974 C253.977975,522.046492 175.045885,445.621477 173.5,349.80003 C171.954115,253.978582 248.37913,175.046492 344.200578,173.49974 C440.022025,171.953855 518.954115,248.37887 520.5,344.200317 Z" id="Stroke-17" stroke="#000000" stroke-width="2"></path>
                        <path d="M498.8125,343.850368 C500.551838,427.694243 433.993767,497.073423 350.149893,498.81276 C266.306017,500.552098 196.926838,433.99316 195.1875,350.149285 C193.448163,266.306278 260.006233,196.927098 343.850107,195.18776 C427.693983,193.448423 497.073163,260.006493 498.8125,343.850368 Z" id="Stroke-19" stroke="#000000" stroke-width="2"></path>
                        <path d="M477.125,343.500418 C479.05779,415.366721 422.365798,475.192123 350.499495,477.124913 C278.633192,479.057703 218.80779,422.365711 216.875,350.499408 C214.94221,278.633973 271.634202,218.807703 343.500505,216.874913 C415.366808,214.942123 475.19221,271.634116 477.125,343.500418 Z" id="Stroke-21" stroke="#000000" stroke-width="2"></path>
                        <path d="M455.4375,343.150382 C457.563743,403.039112 410.737828,453.311605 350.849965,455.437847 C290.961235,457.563222 240.688742,410.738175 238.5625,350.849445 C236.436257,290.961582 283.262172,240.688222 343.150035,238.562847 C403.038765,236.436605 453.311258,283.261652 455.4375,343.150382 Z" id="Stroke-23" stroke="#000000" stroke-width="2"></path>
                        <path d="M433.75,342.800433 C436.069695,390.710723 399.109858,431.430305 351.199568,433.75 C303.289277,436.069695 262.569695,399.109858 260.25,351.199568 C257.930305,303.289277 294.890142,262.569695 342.800433,260.25 C390.710723,257.930305 431.430305,294.890142 433.75,342.800433 Z" id="Stroke-25" stroke="#000000" stroke-width="2"></path>
                        <path d="M412.0625,342.450483 C414.57478,378.383201 387.482755,409.549873 351.54917,412.062153 C315.616452,414.575301 284.44978,387.482408 281.9375,351.549691 C279.42522,315.616106 306.517245,284.450301 342.45083,281.937153 C378.383547,279.424873 409.55022,306.517766 412.0625,342.450483 Z" id="Stroke-27" stroke="#000000" stroke-width="2"></path>
                        <path d="M390.375,342.100534 C393.080733,366.055679 375.854785,387.669441 351.89964,390.375174 C327.944495,393.080906 306.330733,375.854959 303.625,351.899814 C300.919268,327.943801 318.145215,306.330906 342.10036,303.625174 C366.055505,300.919441 387.669268,318.145389 390.375,342.100534 Z" id="Stroke-29" stroke="#000000" stroke-width="2"></path>
                        <path d="M368.6875,341.750584 C371.586685,353.728157 364.226815,365.788142 352.249243,368.687327 C340.27167,371.586511 328.211685,364.227509 325.3125,352.249069 C322.413315,340.271497 329.773185,328.211511 341.750757,325.312326 C353.72833,322.413141 365.788315,329.773011 368.6875,341.750584 Z" id="Stroke-31" stroke="#000000" stroke-width="2"></path>
                    </g>
                </g>
            </g>
        </g>
    </g>
</svg>