<?xml version="1.0" encoding="UTF-8"?>
<svg width="68px" height="62px" viewBox="0 0 68 62" version="1.1" xmlns="http://www.w3.org/2000/svg" xmlns:xlink="http://www.w3.org/1999/xlink">
    <title>UserPlus</title>
    <g id="Site" stroke="none" stroke-width="1" fill="none" fill-rule="evenodd">
        <g id="Team" transform="translate(-400, -1230)" fill="#1A1A1C">
            <path d="M426.455787,1269.84513 C437.695296,1269.84513 446.637422,1275.22003 452.319029,1285.39427 C453.083351,1286.76235 453.065679,1288.44034 452.274849,1289.79514 C451.4796,1291.14993 450.030481,1291.98229 448.462075,1291.98229 L404.436245,1292 C403.375914,1292 402.355346,1291.62367 401.555679,1290.93742 C399.921002,1289.52949 399.514542,1286.91288 400.623472,1285.06221 C406.39344,1275.12263 415.335565,1269.84513 426.455787,1269.84513 Z M455.748758,1252.77472 C457.48505,1252.77472 458.907661,1254.20035 458.907661,1255.94033 L458.907661,1261.8908 L464.845515,1261.8908 C466.581807,1261.8908 468,1263.31201 468,1265.05199 C468,1266.79197 466.581807,1268.21317 464.845515,1268.21317 L458.907661,1268.21317 L458.907661,1274.16807 C458.907661,1275.90805 457.48505,1277.32926 455.748758,1277.32926 C454.016884,1277.32926 452.594273,1275.90805 452.594273,1274.16807 L452.594273,1268.21317 L446.656419,1268.21317 C444.920127,1268.21317 443.497516,1266.79197 443.497516,1265.05199 C443.497516,1263.31201 444.920127,1261.8908 446.656419,1261.8908 L452.594273,1261.8908 L452.594273,1255.94033 C452.594273,1254.20035 454.016884,1252.77472 455.748758,1252.77472 Z M426.455787,1229.99823 C436.201997,1229.99823 444.127971,1237.94104 444.127971,1247.70796 C444.127971,1257.47488 436.201997,1265.41769 426.455787,1265.41769 C416.709577,1265.41769 408.783603,1257.47488 408.783603,1247.70796 C408.783603,1237.94104 416.709577,1229.99823 426.455787,1229.99823 Z" id="UserPlus"></path>
        </g>
    </g>
</svg>