<?xml version="1.0" encoding="UTF-8"?>
<svg width="185px" height="22px" viewBox="0 0 185 22" version="1.1" xmlns="http://www.w3.org/2000/svg" xmlns:xlink="http://www.w3.org/1999/xlink">
    <title>Logo-Uptarger</title>
    <g id="Site" stroke="none" stroke-width="1" fill="none" fill-rule="evenodd">
        <g id="About" transform="translate(-278, -953)" fill="#1A1A1C">
            <g id="Project" transform="translate(178, 856)">
                <path d="M116.371323,97.3398566 C116.386097,97.512574 116.395275,97.6868595 116.395275,97.8633851 L116.395275,107.987175 C116.395275,111.339594 113.669855,114.067005 110.319883,114.067005 C106.969688,114.067005 104.244492,111.339594 104.244492,107.987175 L104.244492,97.8633851 C104.244492,97.6868595 104.25367,97.512574 104.268444,97.3398566 L100.013431,97.3398566 C100.004701,97.513246 100,97.6879795 100,97.8633851 L100,107.987175 C100,113.681471 104.62952,118.314373 110.319883,118.314373 C116.010247,118.314373 120.639767,113.681471 120.639767,107.987175 L120.639767,97.8633851 C120.639767,97.6879795 120.635066,97.513246 120.626336,97.3398566 L116.371323,97.3398566 Z M180.50062,97.2002043 L191.037865,116.236747 L188.886407,119 L180.270498,116.717264 L180.270498,112.777695 L185.546732,114.175563 L178.836043,102.052643 L172.125802,114.175563 L177.401812,112.777695 L177.401812,116.717264 L168.786127,119 L166.634669,116.236747 L177.17169,97.2002043 L180.50062,97.2002043 Z M167.934431,97.2510786 L167.934431,100.924066 L160.316687,100.924066 L160.316687,117.901442 L156.131516,117.901442 L156.131516,100.924066 L148.513772,100.924066 L148.513772,97.2510786 L167.934431,97.2510786 Z M217.092073,107.38477 C217.092073,105.931346 217.364951,104.572905 217.910707,103.308775 C218.456238,102.045094 219.25271,100.946065 220.300346,100.012361 C221.347758,99.0788806 222.634917,98.3434318 224.162048,97.8060143 C225.688954,97.2688208 227.438148,97 229.410076,97 C230.122826,97 230.837815,97.0376349 231.55549,97.1124567 C232.272494,97.1872785 232.981215,97.3039915 233.680982,97.4625957 C234.380749,97.6212 235.062608,97.8214714 235.72723,98.0636342 C236.391628,98.3060209 237.023119,98.5945552 237.621928,98.929013 L235.694323,102.099978 C235.333247,101.888506 234.924042,101.696971 234.466485,101.52515 C234.008704,101.353552 233.518017,101.208165 232.994423,101.089212 C232.470605,100.970259 231.929326,100.87998 231.370587,100.818375 C230.8114,100.75677 230.250423,100.725856 229.687207,100.725856 C228.384378,100.725856 227.222576,100.890957 226.201803,101.221382 C225.180582,101.551584 224.318074,102.014179 223.614053,102.608721 C222.909809,103.203039 222.373008,103.914518 222.003425,104.742262 C221.633843,105.570454 221.44894,106.4775 221.44894,107.464072 C221.44894,108.485815 221.642349,109.424 222.02984,110.277954 C222.417107,111.13258 222.96734,111.868028 223.68009,112.484524 C224.393065,113.101244 225.255573,113.583329 226.26784,113.931228 C227.279883,114.279351 228.411016,114.452964 229.660792,114.452964 C230.655374,114.452964 231.566235,114.340731 232.393599,114.116266 C233.220963,113.891577 233.942667,113.572352 234.558937,113.158368 C235.174982,112.744384 235.676639,112.244601 236.063906,111.658796 C236.451173,111.073215 236.706142,110.414828 236.829709,109.683636 L229.62117,109.683636 L229.62117,106.235113 L240.592244,106.235113 L240.592244,106.248554 L240.605451,106.235113 C240.8255,107.292251 240.893775,108.320714 240.810054,109.32028 C240.726556,110.320069 240.497554,111.26251 240.123718,112.147602 C239.749434,113.032918 239.236809,113.845429 238.585619,114.585134 C237.934204,115.325063 237.155193,115.961497 236.248585,116.494434 C235.342201,117.027371 234.31225,117.441355 233.159403,117.736162 C232.006332,118.031416 230.743349,118.17882 229.37023,118.17882 C227.451355,118.17882 225.733053,117.89723 224.214877,117.333378 C222.696477,116.769751 221.409317,115.998907 220.353175,115.021072 C219.297033,114.04346 218.489369,112.898732 217.93063,111.586215 C217.371443,110.273697 217.092073,108.873365 217.092073,107.38477 M244.482017,97.2511234 L262.054315,97.2511234 L262.054315,100.924111 L248.667187,100.924111 L248.667187,105.046253 L260.522932,105.046253 L260.522932,108.494552 L248.667187,108.494552 L248.667187,114.241716 L262.33167,114.241716 L262.33167,117.901486 L244.482017,117.901486 L244.482017,97.2511234 Z M273.197085,100.924066 L265.579341,100.924066 L265.579341,97.2510786 L285,97.2510786 L285,100.924066 L277.382256,100.924066 L277.382256,117.901442 L273.197085,117.901442 L273.197085,100.924066 Z M145.231807,101.624322 C144.857747,100.690842 144.288039,99.9000608 143.522235,99.2528748 C142.756431,98.6052408 141.792517,98.1099385 140.63094,97.76652 C139.468915,97.4228775 138.096019,97.2510562 136.511806,97.2510562 L125.63296,97.2510562 L125.63296,117.901419 L129.81813,117.901419 L129.81813,100.89761 L136.617241,100.89761 C138.201678,100.89761 139.391909,101.239012 140.188605,101.921593 C140.985076,102.604174 141.383536,103.557815 141.383536,104.78207 C141.383536,105.389605 141.284369,105.942479 141.086258,106.440022 C140.888372,106.937788 140.589079,107.360733 140.188605,107.708408 C139.787906,108.056531 139.290727,108.324903 138.696619,108.514422 C138.102735,108.703717 137.40946,108.798476 136.617241,108.798476 L132.686817,108.798476 L132.686817,112.423972 L136.538221,112.431589 C138.122434,112.431589 139.495553,112.240054 140.657131,111.856984 C141.819156,111.473915 142.780608,110.940978 143.542158,110.258397 C144.303261,109.575816 144.86894,108.767562 145.238522,107.833858 C145.608105,106.900377 145.793008,105.883115 145.793008,104.78207 C145.793008,103.610683 145.605866,102.558026 145.231807,101.624322 M210.979499,110.165766 C211.5604,109.712355 212.042133,109.194651 212.425147,108.613326 C212.807937,108.032225 213.091784,107.395792 213.276687,106.70425 C213.46159,106.012933 213.553818,105.283981 213.553818,104.517841 C213.553818,103.381402 213.366676,102.364139 212.99284,101.46583 C212.618557,100.567296 212.048849,99.8056375 211.283045,99.1801812 C210.517241,98.5547249 209.553551,98.076896 208.39175,97.7464705 C207.229949,97.416269 205.856829,97.2511682 204.272616,97.2511682 L193.776784,97.2511682 L193.776784,117.901307 L197.961954,117.901307 L197.961954,100.897722 L204.378275,100.897722 C205.971219,100.897722 207.163912,101.21269 207.95613,101.842403 C208.748125,102.472115 209.144346,103.363928 209.144346,104.517841 C209.144346,105.107903 209.045403,105.642856 208.847292,106.122925 C208.649182,106.603219 208.349889,107.010482 207.949415,107.345164 C207.54894,107.679846 207.051761,107.939482 206.457653,108.12452 C205.863545,108.309558 205.170494,108.402077 204.378275,108.402077 L200.83064,108.402077 L200.83064,112.028022 L204.299031,112.03519 L204.417897,112.03519 L208.299298,117.901307 L213.421744,117.901307 L208.933028,111.295485 C209.716293,110.995974 210.398599,110.619401 210.979499,110.165766" id="Logo-Uptarger"></path>
            </g>
        </g>
    </g>
</svg>