<?xml version="1.0" encoding="UTF-8"?>
<svg version="1.1" viewBox="105 88 1900 600" width="1658" height="624" xmlns="http://www.w3.org/2000/svg">
<path transform="translate(1541,311)" d="m0 0h33l9 1v152h-42z" fill="#438891"/>
<path transform="translate(1349,311)" d="m0 0h41v153h-41z" fill="#35707D"/>
<path transform="translate(1604,311)" d="m0 0h41v153h-41z" fill="#438891"/>
<path transform="translate(1478,311)" d="m0 0h41v153h-41z" fill="#4F939A"/>
<path transform="translate(1666,312)" d="m0 0h40v151h-40z" fill="#3F808A"/>
<path transform="translate(1414,312)" d="m0 0h40v151h-40z" fill="#438891"/>
<path transform="translate(1349,311)" d="m0 0h41v67l-2 7-7 2h-10l-13-2-7-5-1 83h40v1h-41z" fill="#4F939A"/>
<path transform="translate(1478,351)" d="m0 0h1l2 23 2 11 3 4v2h14l5-2h7l4-6 1-5h1v85h-40z" fill="#36727F"/>
<path transform="translate(1666,312)" d="m0 0h40v41l-1 33-3 2-10-1h-8l-10-4-7-6-1-37z" fill="#4F9BA1"/>
<path transform="translate(1604,311)" d="m0 0h41v72h-1l-1-10-4 1-3-1h-18l-8-5-4-5-1 100h40v1h-41z" fill="#539FA4"/>
<path transform="translate(1414,357)" d="m0 0h1v48l4 2 5 4 6 1h7l9-1h5l1-3 1-48h1v103h-40z" fill="#35707D"/>
<path transform="translate(1581,364)" d="m0 0h1v99h-40v-88h1l1 26 3 10v3l9 1 2 1h8l9-1 5-2z" fill="#35707D"/>
<path transform="translate(604,311)" d="m0 0h42v40h-42z" fill="#3C7985"/>
<path transform="translate(1413,255)" d="m0 0h42v39l-1 1h-40l-1-1z" fill="#65B6BA"/>
<path transform="translate(605,424)" d="m0 0h40l1 1v38l-1 1h-41v-39z" fill="#2B5B6A"/>
<path transform="translate(1349,255)" d="m0 0h41l1 9v22l-1 9h-41z" fill="#64B6BA"/>
<path transform="translate(1012,255)" d="m0 0h42v40h-41l-1-19z" fill="#5DA9AE"/>
<path transform="translate(1577,142)" d="m0 0h7v14l-1 22-1 4h-41v-38l1-1z" fill="#8AD4D5"/>
<path transform="translate(1415,313)" d="m0 0h38v39l-3 3-10 2-7 2-8 1-8-4-1-9-1-2z" fill="#4F939A"/>
<path transform="translate(669,593)" d="m0 0h41v40h-41z" fill="#16203C"/>
<path transform="translate(541,424)" d="m0 0h41v40h-41z" fill="#2B5C6B"/>
<path transform="translate(413,424)" d="m0 0h41v40h-41z" fill="#1F3C53"/>
<path transform="translate(289,424)" d="m0 0h41v40h-41z" fill="#1B2A45"/>
<path transform="translate(1604,255)" d="m0 0h41v40h-41z" fill="#65B7BB"/>
<path transform="translate(1478,593)" d="m0 0h40l1 1v39h-41z" fill="#1E3B52"/>
<path transform="translate(1414,593)" d="m0 0h40l1 1v39h-41z" fill="#1E3B52"/>
<path transform="translate(937,452)" d="m0 0h40l1 1v39h-41z" fill="#2B5C6B"/>
<path transform="translate(477,311)" d="m0 0h40l1 1v39h-41z" fill="#2C5E6C"/>
<path transform="translate(413,311)" d="m0 0h40l1 1v39h-41z" fill="#224B5E"/>
<path transform="translate(228,311)" d="m0 0h40l1 1v39h-41z" fill="#1C2B46"/>
<path transform="translate(1665,255)" d="m0 0h41v40h-40l-1-1z" fill="#65B6BA"/>
<path transform="translate(1100,255)" d="m0 0h40v40h-41v-39z" fill="#65B7BB"/>
<path transform="translate(1542,593)" d="m0 0h40v40h-40l-1-1v-38z" fill="#1C2B46"/>
<path transform="translate(1605,593)" d="m0 0h40v40h-40l-1-1v-38z" fill="#1E3A51"/>
<path transform="translate(290,311)" d="m0 0h40v40h-40l-1-1v-38z" fill="#1E3B52"/>
<path transform="translate(1541,255)" d="m0 0h42v39h-42z" fill="#67B8BC"/>
<path transform="translate(1788,424)" d="m0 0h40l1 1v38l-1 1h-39l-1-1z" fill="#67B8BB"/>
<path transform="translate(1203,283)" d="m0 0h20l1 14v17l-1 9h-40l-1-1v-38z" fill="#66B7BB"/>
<path transform="translate(1414,199)" d="m0 0h40l1 1v39l-42-1v-30z" fill="#72C8CA"/>
<path transform="translate(1541,88)" d="m0 0h41l1 1v37l-1 1h-40l-1-1z" fill="#8AD4D5"/>
<path transform="translate(1012,199)" d="m0 0h42v39h-41l-1-7z" fill="#5CA8AD"/>
<path transform="translate(1548,199)" d="m0 0h34l1 1v38h-42v-38z" fill="#8AD4D5"/>
<path transform="translate(1796,311)" d="m0 0h32l1 1v38l-1 1h-40v-39z" fill="#8BD5D6"/>
<path transform="translate(1354,199)" d="m0 0h36l1 1v31l-1 7h-41v-38z" fill="#72C8CA"/>
<path transform="translate(228,424)" d="m0 0h41v32l-1 7-10 1h-29l-1-1z" fill="#1C2B46"/>
<path transform="translate(1605,142)" d="m0 0h18l22 1v39h-41v-39z" fill="#8AD4D5"/>
<path transform="translate(1742,367)" d="m0 0h25l1 1v39h-41v-31l1-8z" fill="#66B8BC"/>
<path transform="translate(1413,143)" d="m0 0h42v39h-41l-1-22z" fill="#8AD4D5"/>
<path transform="translate(1727,311)" d="m0 0h24l17 1v30l-1 9h-40z" fill="#72C8CA"/>
<path transform="translate(256,367)" d="m0 0h13v39l-1 1h-40v-39z" fill="#1B2B46"/>
<path transform="translate(1864,367)" d="m0 0 26 1v39h-41v-39z" fill="#8BD5D6"/>
<path transform="translate(1478,255)" d="m0 0h40l1 1v38h-41l-1-38z" fill="#63B5B9"/>
<path transform="translate(351,424)" d="m0 0h40v40h-40z" fill="#1B2A45"/>
<path transform="translate(351,311)" d="m0 0h40v40h-40z" fill="#1D3A51"/>
<path transform="translate(1541,650)" d="m0 0h41v39h-41z" fill="#1B2A45"/>
<path transform="translate(477,537)" d="m0 0h41v39h-41z" fill="#1C2B46"/>
<path transform="translate(1541,537)" d="m0 0h41v39h-41z" fill="#224B5E"/>
<path transform="translate(1478,537)" d="m0 0h41v39h-41z" fill="#224B5E"/>
<path transform="translate(1414,537)" d="m0 0h41v39h-41z" fill="#224B5E"/>
<path transform="translate(1013,537)" d="m0 0h41v39h-41z" fill="#224B5E"/>
<path transform="translate(669,537)" d="m0 0h41v39h-41z" fill="#1D3A51"/>
<path transform="translate(1604,481)" d="m0 0h41v39h-41z" fill="#2B5D6C"/>
<path transform="translate(1013,481)" d="m0 0h41v39h-41z" fill="#2A5A6A"/>
<path transform="translate(1099,481)" d="m0 0h41v39h-41z" fill="#36727F"/>
<path transform="translate(669,481)" d="m0 0h41v39h-41z" fill="#21495C"/>
<path transform="translate(605,481)" d="m0 0h41v39h-41z" fill="#224B5E"/>
<path transform="translate(541,481)" d="m0 0h41v39h-41z" fill="#1D374F"/>
<path transform="translate(477,481)" d="m0 0h41v39h-41z" fill="#1C2B46"/>
<path transform="translate(1541,481)" d="m0 0h41v39h-41z" fill="#2B5C6B"/>
<path transform="translate(1478,481)" d="m0 0h41v39h-41z" fill="#2B5B6A"/>
<path transform="translate(1349,481)" d="m0 0h41v39h-41z" fill="#2A5A6A"/>
<path transform="translate(1182,452)" d="m0 0h41v39h-41z" fill="#35717E"/>
<path transform="translate(1727,424)" d="m0 0h41v39h-41z" fill="#5BA7AC"/>
<path transform="translate(1276,424)" d="m0 0h41v39h-41z" fill="#36727F"/>
<path transform="translate(1099,424)" d="m0 0h41v39h-41z" fill="#3F808A"/>
<path transform="translate(477,424)" d="m0 0h41v39h-41z" fill="#21485C"/>
<path transform="translate(1013,424)" d="m0 0h41v39h-41z" fill="#35717E"/>
<path transform="translate(669,424)" d="m0 0h41v39h-41z" fill="#2B5C6B"/>
<path transform="translate(1182,396)" d="m0 0h41v39h-41z" fill="#458A93"/>
<path transform="translate(937,396)" d="m0 0h41v39h-41z" fill="#35717E"/>
<path transform="translate(289,368)" d="m0 0h41v39h-41z" fill="#1E3B52"/>
<path transform="translate(166,368)" d="m0 0h41v39h-41z" fill="#1C2B46"/>
<path transform="translate(105,368)" d="m0 0h41v39h-41z" fill="#1C2B46"/>
<path transform="translate(413,368)" d="m0 0h41v39h-41z" fill="#224B5E"/>
<path transform="translate(1276,368)" d="m0 0h41v39h-41z" fill="#448992"/>
<path transform="translate(1099,368)" d="m0 0h41v39h-41z" fill="#4E939A"/>
<path transform="translate(1013,368)" d="m0 0h41v39h-41z" fill="#448992"/>
<path transform="translate(541,368)" d="m0 0h41v39h-41z" fill="#2B5C6B"/>
<path transform="translate(477,368)" d="m0 0h41v39h-41z" fill="#2B5C6B"/>
<path transform="translate(1910,368)" d="m0 0h41v39h-41z" fill="#8AD4D5"/>
<path transform="translate(669,368)" d="m0 0h41v39h-41z" fill="#35717E"/>
<path transform="translate(937,340)" d="m0 0h41v39h-41z" fill="#3D7E88"/>
<path transform="translate(1276,312)" d="m0 0h41v39h-41z" fill="#509CA1"/>
<path transform="translate(1099,312)" d="m0 0h41v39h-41z" fill="#5BA7AC"/>
<path transform="translate(1013,312)" d="m0 0h41v39h-41z" fill="#4F9CA1"/>
<path transform="translate(669,312)" d="m0 0h41v39h-41z" fill="#438891"/>
<path transform="translate(541,312)" d="m0 0h41v39h-41z" fill="#35707D"/>
<path transform="translate(937,284)" d="m0 0h41v39h-41z" fill="#4E939A"/>
<path transform="translate(669,255)" d="m0 0h41v39h-41z" fill="#438891"/>
<path transform="translate(541,255)" d="m0 0h41v39h-41z" fill="#35707D"/>
<path transform="translate(413,255)" d="m0 0h41v39h-41z" fill="#224B5E"/>
<path transform="translate(605,199)" d="m0 0h41v39h-41z" fill="#3F808A"/>
<path transform="translate(541,199)" d="m0 0h41v39h-41z" fill="#35717E"/>
<path transform="translate(605,143)" d="m0 0h41v39h-41z" fill="#3F808A"/>
<path transform="translate(1605,537)" d="m0 0h40v39h-41v-38z" fill="#2B5C6B"/>
<path transform="translate(1350,537)" d="m0 0h40v39h-41v-38z" fill="#224B5E"/>
<path transform="translate(605,368)" d="m0 0h41v38l-1 1h-40z" fill="#36727F"/>
<path transform="translate(605,255)" d="m0 0h40l1 1v38h-41z" fill="#3F7F89"/>
<path transform="translate(477,255)" d="m0 0h40l1 1v38h-41z" fill="#2B5C6B"/>
<path transform="translate(413,199)" d="m0 0h40l1 1v38h-41z" fill="#224B5E"/>
<path transform="translate(857,424)" d="m0 0h39l1 1v38h-41v-38z" fill="#37727F"/>
<path transform="translate(1604,199)" d="m0 0h38l3 1v38l-40 1-1-1z" fill="#8BD5D6"/>
<path transform="translate(1796,367)" d="m0 0 33 1v30l-1 9h-40v-39z" fill="#71C8CA"/>
<path transform="translate(1478,199)" d="m0 0h33l7 1 1 7v31l-41 1z" fill="#71C7C9"/>
<path transform="translate(1478,143)" d="m0 0h41v29l-1 10-40 1z" fill="#89D4D5"/>
<path transform="translate(1605,375)" d="m0 0h1l1 42 8 5 4 2 14 1 3 2v2l7 2v-22h1l1 36v18h-40z" fill="#35717E"/>
<path transform="translate(685,199)" d="m0 0h11l14 1v38h-41v-38z" fill="#448891"/>
<path transform="translate(736,537)" d="m0 0h40v39h-40z" fill="#1E3B52"/>
<path transform="translate(1666,481)" d="m0 0h40v39h-40z" fill="#36727F"/>
<path transform="translate(1414,481)" d="m0 0h40v39h-40z" fill="#2A5B6A"/>
<path transform="translate(736,481)" d="m0 0h40v39h-40z" fill="#2B5C6B"/>
<path transform="translate(736,424)" d="m0 0h40v39h-40z" fill="#2B5C6B"/>
<path transform="translate(795,424)" d="m0 0h40v39h-40z" fill="#35717E"/>
<path transform="translate(856,368)" d="m0 0h40v39h-40z" fill="#3E7E89"/>
<path transform="translate(795,368)" d="m0 0h40v39h-40z" fill="#3E7F89"/>
<path transform="translate(736,368)" d="m0 0h40v39h-40z" fill="#3D7E88"/>
<path transform="translate(351,368)" d="m0 0h40v39h-40z" fill="#1D3951"/>
<path transform="translate(1183,340)" d="m0 0h40v39h-40z" fill="#4F9BA0"/>
<path transform="translate(856,312)" d="m0 0h40v39h-40z" fill="#4E9299"/>
<path transform="translate(795,312)" d="m0 0h40v39h-40z" fill="#4F939A"/>
<path transform="translate(736,312)" d="m0 0h40v39h-40z" fill="#438891"/>
<path transform="translate(736,256)" d="m0 0h40v38h-40z" fill="#4F939A"/>
<path transform="translate(736,200)" d="m0 0h40v38h-40z" fill="#4E9299"/>
<path transform="translate(1541,311)" d="m0 0h33v1h-32l1 1h38v24l-4 4h-16l-7-1-1-3-5-1-5-3-1 130h40v-151h1v152h-42z" fill="#5AA6AA"/>
<path transform="translate(1349,311)" d="m0 0h41v67l-2 7-7 2h-10l-13-2-7-5-1 83h40v1h-41zm2 2v40l5 5h6l2 1 14 1 6 7 4 1 1-1v-54z" fill="#4A9098"/>
<path transform="translate(1478,311)" d="m0 0h41v153h-41v-1h40l-1-80-5 7h-7l-5 2h-11l-3-1-5-9-2-15-1-16zm1 2v27l2 12 5 10 5 3 18 1 4 4 4-1v-56z" fill="#4E939B"/>
<path transform="translate(1666,340)" d="m0 0h1l1 37 8 6 8 3h12l6 1 2-1 1-33h1v44l-1 23-4 2-5-4-21-2-4-4-2-13-2-5-1-11z" fill="#438891"/>
<path transform="translate(1351,380)" d="m0 0 4 2 3 2 15 2h8l8-2v36l-1 1h-5l-5-4-13-2-10-3h-2v-2h-2z" fill="#3F808A"/>
<path transform="translate(1479,367)" d="m0 0h1l2 15 4 7v2h14l5-2h7l4-6h1v32l-3 5h-3l-4-4h-14l-9-2-4-6-1-3z" fill="#3F808A"/>
<path transform="translate(1543,381)" d="m0 0 4 2 14 6 17 1 3-1v24l-4 3h-8l-3 1h-8l-7-2-4-1-4-13z" fill="#3F808A"/>
<path transform="translate(1543,333)" d="m0 0 10 4 1 2 13 1h10l4-3v19l-3 5-9 3-5 3-6 1h-10l-5-5z" fill="#4F939A"/>
<path transform="translate(1643,360)" d="m0 0h1l1 23v62h-1l-1-14-5-1-2-1v-2l-6-1-11-1-11-6-2-2v-16h22l7-1 1 1h7z" fill="#3F808A"/>
<path transform="translate(1415,376)" d="m0 0 4 4 3 5 3 2h14l6-2v2l4-1 3-8h1v30l-2 3-5 1-16 1-6-1-9-7z" fill="#3F808A"/>
<path transform="translate(1667,313)" d="m0 0h38v21l-3 9h-4l-2-3-11-1-13-3-5-2z" fill="#5BA7AC"/>
<path transform="translate(1704,356)" d="m0 0h1v30l-3 2-10-1h-8l-10-4-7-6v-16l6 3 2-1h11l7-3 10-1z" fill="#4F939A"/>
<path transform="translate(1479,313)" d="m0 0h38v17l-2 4-6 2-8 1-1 1-14-1-5-4-2-10z" fill="#509DA2"/>
<path transform="translate(1643,333)" d="m0 0 2 3v47h-1l-1-10-4 1-3-1h-18l-8-5-4-5v-14l4 1 2 1 15 1h8l6 1 1-3z" fill="#4F949B"/>
<path transform="translate(1018,483)" d="m0 0h34v14l-1 15-4 2-2-6-10-2-10-3-8-3-2-3-1-11 1-2z" fill="#36727F"/>
<path transform="translate(1351,313)" d="m0 0h38v20l-2 1h-11l-12 1-7-2-1 2-5-7z" fill="#4F9CA1"/>
<path transform="translate(937,340)" d="m0 0h41v39h-1l-1-13-4 4-4-2-3-6-5-2v2l-9-3-6-8-5-2v-2h-2v-5z" fill="#438891"/>
<path transform="translate(737,426)" d="m0 0h38v19l-2 2-20 1-9-1-5-4v-3h-2z" fill="#36727F"/>
<path transform="translate(1542,593)" d="m0 0h40v40h-40l-1-1v-38zm1 9v29h38v-27l-2 2-1 2h-22l-11-1-1-5z" fill="#1E3A51"/>
<path transform="translate(1541,650)" d="m0 0h41v39h-41zm7 4-3 4 1 5 1 16 1 5 2 2h24l2-2-2-4-4-1 5-9 3-9-1-4-3-3-1 1h-20z" fill="#182440"/>
<path transform="translate(1028,539)" d="m0 0h23l1 2-1 24v6l-3 2-10-2v-3l5-5 1-4-6 1v2h-7l-5-4-5-7-4-4-1-3 2-3z" fill="#2B5C6B"/>
<path transform="translate(1665,255)" d="m0 0h41v1h-9l6 3 1 1v11l-3 5-3 1-4-2-19-1-5-5-4-3v28h-1z" fill="#71C8CA"/>
<path transform="translate(1517,264)" d="m0 0h1v30h-40v-22h2l5 5 18 1 10-4 3-5z" fill="#5BA7AC"/>
<path transform="translate(1389,261)" d="m0 0 2 3v22h-1l-1 7h-38v-22l5 4v2l17-1 13-2 2-4z" fill="#5CA8AD"/>
<path transform="translate(1864,367)" d="m0 0 26 1v39h-41v-39zm0 2-10 4-3 2 1 6 6 8 5 3 3 5h2l1 4h17l2-4v-27l-2-1z" fill="#73C9CB"/>
<path transform="translate(634,315)" d="m0 0h10v24l-3 7-4 1-12-3v-2h-2v-3h-2l-4-10v-6l4-5z" fill="#3F808A"/>
<path transform="translate(1415,313)" d="m0 0h38v10l-8 6-10 6-8-1-9-4-1-3h-2z" fill="#509DA2"/>
<path transform="translate(1100,255)" d="m0 0h40v29h-1l-1-13-3 3h-2v-2h-5v-2l-5 1h-9l-4 1-6-3v-2h-2v-2h-2v22h-1v-31z" fill="#71C8CA"/>
<path transform="translate(1666,383)" d="m0 0h1l1 49 5 5 8 4 4 4v2h2l1 2v6l-1 4 3 2 15 1v-65h1v66h-40z" fill="#35707D"/>
<path transform="translate(1627,482)" d="m0 0h18v8l-3 9-12 2h-11l-9-3-4-3v-10l4-1 14-1z" fill="#36727F"/>
<path transform="translate(477,537)" d="m0 0h41v39h-41zm21 3-16 1-1 5h2v10l-3 10 1 7 21 1 9-2v-11l4-4 1-3v-8l-5-5-11-1z" fill="#17233F"/>
<path transform="translate(674,485)" d="m0 0 3 1 5-1h24l2 1 1 5v10l-2 6-7-1-16-5-6-5-3-5-2-1z" fill="#2B5C6B"/>
<path transform="translate(1453,268)" d="m0 0h1v26h-39v-25h2v2h2l5 6 1 3h7l7 2h10l4-1z" fill="#5AA6AB"/>
<path transform="translate(795,312)" d="m0 0h40v39h-40zm2 1v13l7 13 1 6 10 1 15-3 2-4 2-20-1-5-2-1z" fill="#438790"/>
<path transform="translate(413,368)" d="m0 0h41v39h-41zm17 3-12 7-2 5 5 18 3 3 2 1h26v-34z" fill="#1F3C53"/>
<path transform="translate(1551,256)" d="m0 0h31v38h-40v-35h1l1 18 3 5 3 2 9-1h9l1 1h6l4-1v-2h2v-24h-30z" fill="#59A5AA"/>
<path transform="translate(105,368)" d="m0 0h41v39h-41zm6 3-3 4 1 8 1 2v11h-2v6l4 3h32v-8l-3-8-1-2h2l2-7v-8l-2-1z" fill="#182541"/>
<path transform="translate(700,369)" d="m0 0 8 2v12l-4 8-3-2-8 1-9-2-2-1v-2h-2l-3-5 1-5 8-3 13-2z" fill="#3F808A"/>
<path transform="translate(166,368)" d="m0 0h41v39h-41zm9 3-4 1v2l-2 1v20l2 7 6 2 9 1h19v-27l-2-7z" fill="#1B2944"/>
<path transform="translate(1744,369)" d="m0 0h22v15l-2 3-5 1-6-1-5-1-7-5-4-5 2-5z" fill="#71C8CA"/>
<path transform="translate(736,200)" d="m0 0h40v38h-40zm1 1v6l4 7 3 12v7l2 2 5 1 23 1v-24l-1-8-9-4z" fill="#40838D"/>
<path transform="translate(1794,426)" d="m0 0h33v14l-4 4-10-2-10-5-3-3-3-1v-4h-3z" fill="#71C8CA"/>
<path transform="translate(1541,537)" d="m0 0h41v39h-41zm2 2v22l5 5 7 4 14 3 10 1v-2h2v-33z" fill="#224157"/>
<path transform="translate(291,369)" d="m0 0h37v2l-21 2-6 4h-2v7l4 10-8 8h-2v3h37v1h-39z" fill="#1B2A45"/>
<path transform="translate(413,199)" d="m0 0h40l1 1v38h-41zm5 3-4 4 3 16 1 2 1 10 6 2 13 1h14v-34l-2-1z" fill="#214257"/>
<path transform="translate(1138,375)" d="m0 0h1l1 32h-40v-27l2 2 3 6 4 5 2 5 5 2 20 1 1-4z" fill="#448992"/>
<path transform="translate(856,368)" d="m0 0 2 2h7l7 1 10 2 9 1 1 6h2l1 6-4 2-3-1v-2l-11-1-14-5-5-2-1 30h-1z" fill="#448992"/>
<path transform="translate(581,481)" d="m0 0h1v39h-1l-1-16-5 1-5-3-10-3-3-5v-5l3-2 13-2h7z" fill="#234D5F"/>
<path transform="translate(1796,311)" d="m0 0h32l1 1v38l-1 1h-40v-39zm-6 2v20l4 11h2l2 4 4 1h9l4-1 6 1h4l1-2 1-10v-24z" fill="#83D1D2"/>
<path transform="translate(1604,199)" d="m0 0h38l3 1v38l-40 1-1-1zm2 2v29l2 4 3 2 15-1 5-1 9-1 3-3v-29z" fill="#78CBCD"/>
<path transform="translate(351,424)" d="m0 0h40v2h-2v13l-3 1-4-2v-2l-4-2 1-4 4-3-30-1v36h37v-31h1v33h-40z" fill="#214055"/>
<path transform="translate(228,424)" d="m0 0h41v32l-1 7-10 1h-29l-1-1zm16 2-12 3-2 4v14l3 11 5 3 5 1h24v-36z" fill="#233D54"/>
<path transform="translate(1606,313)" d="m0 0h22l15 1v12l-1 1h-6l-7-2-18-4-4-2z" fill="#5AA6AB"/>
<path transform="translate(1099,424)" d="m0 0h41v2h-39l1 21 2 5 3 4 16 3 14 1 1-19h1v22h-40z" fill="#3A7884"/>
<path transform="translate(1804,369)" d="m0 0h10l7 1h5l1 1-1 11-4 3-4-1-4-2-14-1-4-6 1-4 2-1z" fill="#8BD5D6"/>
<path transform="translate(413,311)" d="m0 0h40l1 1v39h-41v-1l22-1 1-6 10-9 6 2v-23l-39-1z" fill="#2B5C6B"/>
<path transform="translate(669,539)" d="m0 0h14v1l-10 1-1 1v11l1 8 5 2 2 4-1 2h-2l1 3 27 2 2-1v-16l1-10h2v29h-41z" fill="#1B2944"/>
<path transform="translate(1191,342)" d="m0 0h31l-1 7-1 3-3 1h-24l-5-6z" fill="#5BA7AC"/>
<path transform="translate(605,143)" d="m0 0 23 1-2 2-9 2-5 3-1 6v21l3 1 31 1v2h-40z" fill="#346F7C"/>
<path transform="translate(1183,397)" d="m0 0h1l1 20 1 2 3 1 4 7v2l7 2 14 1h5l1-5v-11l1-3 1-15h1v37h-40z" fill="#3B7A86"/>
<path transform="translate(1034,426)" d="m0 0h18v9l-2 4-7 1-6 1-11-4-1-3 4-5h2l1-2z" fill="#3F808A"/>
<path transform="translate(1038,204)" d="m0 0h10l3 2v7l-2 8 3 11-1 3-8-1-7-1 2-5 5-3 1-5-2-4-2-1-1-4h-4v-3h-9l3-3h5l3 2z" fill="#64B6BA"/>
<path transform="translate(1581,201)" d="m0 0h1l1 37h-41v-23h1l2 7 4 5v2l5 1 6 2 10 1 8 2 2-1z" fill="#71C8CA"/>
<path transform="translate(541,424)" d="m0 0h41v40h-41zm1 2v25l2 8 9 3h27v-36z" fill="#2E5C6D"/>
<path transform="translate(1031,369)" d="m0 0h8l2 1 9 1 2 1-2 8h-2l-1 3h-15l-8-5 1-7z" fill="#4F939A"/>
<path transform="translate(1626,538)" d="m0 0h18l1 12v26h-39v-28l3 4 5 10-1 5-2 1-1 4 33 2v-35h-17z" fill="#21485C"/>
<path transform="translate(736,256)" d="m0 0h40v1h-39v4l4 2 5 6 1 5-2 6h-3l-2 5v8h36v1h-40z" fill="#41838D"/>
<path transform="translate(1013,312)" d="m0 0h41v1h-40v19l4 2 3 4 2 10 29 1v-14h1l1 16h-41z" fill="#4F939A"/>
<path transform="translate(1414,594)" d="m0 0h39v1l-17 1-16 2h-3l1 23 2 5 3 1v2h9l3 1 16 1v1h-37z" fill="#192641"/>
<path transform="translate(694,426)" d="m0 0h14l-1 9-3 2-8 2h-9l-6-3-4-5 4-1 6-2h7z" fill="#36727F"/>
<path transform="translate(669,312)" d="m0 0h41v1h-40l2 6 3 1 4 7-1 10-3 3-1 5v3l13 1v1h-18z" fill="#3B7B86"/>
<path transform="translate(605,199)" d="m0 0h41v39h-41zm1 2 2 16-2 13v5l3 2h35v-36z" fill="#43848E"/>
<path transform="translate(828,369)" d="m0 0 4 3-1 5-3 3-14 3-12-5-2-2v-4l3-1h25z" fill="#448992"/>
<path transform="translate(383,317)" d="m0 0 5 1 2 4v7l-2 6-9-2-9-5-2-5 3-3z" fill="#224B5E"/>
<path transform="translate(477,424)" d="m0 0h41v39h-1v-38l-38 1 1 13 4 5 7 6 1 3-10 2-3 1 2 6h-4z" fill="#244A5E"/>
<path transform="translate(290,311)" d="m0 0h40l-1 26h-1v-24h-37v36h38l1-3v5h-40l-1-1v-38z" fill="#244258"/>
<path transform="translate(736,481)" d="m0 0h40v39h-40zm3 1-2 1v14h2v11l-1 1v6l1 2 9 1h26l1-11v-25z" fill="#1D3A51"/>
<path transform="translate(1349,255)" d="m0 0h41v2h-39v36h38v-20h1v22h-41z" fill="#6DB8BC"/>
<path transform="translate(413,255)" d="m0 0h41v39h-41zm2 2-1 20v16h38v-36z" fill="#24485D"/>
<path transform="translate(857,328)" d="m0 0 2 4 3 4v8h2v2l4-1 9 2 6-3h9l1-5h2v11l-38 1z" fill="#42858F"/>
<path transform="translate(1138,487)" d="m0 0h1l1 33h-40v-14h2l4 8 6 1h22l3-1z" fill="#295969"/>
<path transform="translate(736,312)" d="m0 0h40v39h-40zm1 1v36h37v-36z" fill="#3D7D87"/>
<path transform="translate(857,368)" d="m0 0h39v38l-4-1h3l-1-25h-2l-1-6-6 1-6-2-11-1-10-2-1 2z" fill="#3B7A85"/>
<path transform="translate(1666,481)" d="m0 0h40v39h-40zm4 1-2 1v34l3 2h12l22-1v-36z" fill="#2A5B6A"/>
<path transform="translate(605,255)" d="m0 0h40v2l-35 1-2 2 1 14v13l1 3 5 3v1h-10z" fill="#387581"/>
<path transform="translate(351,311)" d="m0 0h40v2h-38v36h28l10 1v1h-40z" fill="#234157"/>
<path transform="translate(1911,369)" d="m0 0h1l1 12 2 2 2 9v8l2 4h28l1-2 1-10h1v14h-40v-23z" fill="#71C8CA"/>
<path transform="translate(1727,424)" d="m0 0h41v39h-1l-1-7v-30h-37v32l-1 5h-1z" fill="#69B4B8"/>
<path transform="translate(256,367)" d="m0 0h13v39l-4-1h2v-36l-14 1-2 1h-20v27l-1 7h-1v-37z" fill="#223951"/>
<path transform="translate(1610,257)" d="m0 0h33l-1 4-8 2-12 2h-7l-8-3z" fill="#71C8CA"/>
<path transform="translate(1013,537)" d="m0 0h41v32h-1v-30l-24 1-15-1 1 28 1 6 3 1 33 1 1-5h1v6h-41z" fill="#214157"/>
<path transform="translate(478,368)" d="m0 0h40v39h-41l1-14h1l1 10 1 1 35 1v-36h-38z" fill="#275264"/>
<path transform="translate(698,222)" d="m0 0 8 1 2 4v8l-1 1-9-1-7-2-1-1v-7z" fill="#4F939A"/>
<path transform="translate(289,424)" d="m0 0h41v40h-41zm1 1v38h35l3-2v-36z" fill="#335E6F"/>
<path transform="translate(1478,593)" d="m0 0h40l1 1v39h-41v-2h39v-37h-39z" fill="#213E54"/>
<path transform="translate(1729,452)" d="m0 0 6 4 9 3h16l5-3h2v7h-39z" fill="#4C979D"/>
<path transform="translate(228,312)" d="m0 0h39v1l-37 1v35h35l2 2h-39z" fill="#192843"/>
<path transform="translate(605,424)" d="m0 0h40v2h-39v26l-1 11h40v1h-41v-39z" fill="#4A8691"/>
<path transform="translate(1198,285)" d="m0 0h16l4 2v5l-11 2-11-1-4-2 2-4z" fill="#71C8CA"/>
<path transform="translate(1827,313)" d="m0 0h1l1 37h-40v-17h2l3 8v3h2l2 3 4 1h9l4-1 10 2z" fill="#70C7C9"/>
<path transform="translate(736,537)" d="m0 0 34 1v1h-33l1 33 1 1h35l1-21h1v24h-40z" fill="#18233F"/>
<path transform="translate(1013,368)" d="m0 0h41l-1 8-1-4-11-1-5-1-22-1 1 20 2 15 32 1v1h-36z" fill="#3C7B86"/>
<path transform="translate(1414,593)" d="m0 0h40l1 1v39h-41v-1l39-1-1-15h-2l2-8 1-14h-39z" fill="#295264"/>
<path transform="translate(1413,255)" d="m0 0h42v1l-24 1h-16v37h39v1h-40l-1-1z" fill="#7AC5C7"/>
<path transform="translate(972,286)" d="m0 0h2v2l2 1-2 5-5 4-6-3-9-2-2-3 3-3z" fill="#509DA2"/>
<path transform="translate(477,481)" d="m0 0h39v1l-36 2-1 34h21v2h-23z" fill="#18243F"/>
<path transform="translate(1478,594)" d="m0 0h39v1h-37l1 11 4 9v5l-1 3h-2l-1 8h-3z" fill="#192541"/>
<path transform="translate(228,426)" d="m0 0h1v21h2l3 11 9 3 23 1v1l-8 1h-29l-1-1z" fill="#20374F"/>
<path transform="translate(413,199)" d="m0 0h40v6l-1-2h-34l-3 3-1 28h-1z" fill="#203950"/>
<path transform="translate(577,384)" d="m0 0 3 2v19h-9l-1-1 1-8 3-10z" fill="#36727F"/>
<path transform="translate(413,311)" d="m0 0h40l1 1v39h-41v-1h39v-37l-39-1z" fill="#316574"/>
<path transform="translate(1350,537)" d="m0 0h40v1l-25 1h-14v36h31v1h-33v-38z" fill="#2F5467"/>
<path transform="translate(1414,537)" d="m0 0h41v39h-2v-37h-37l-1 3z" fill="#305C6D"/>
<path transform="translate(1542,593)" d="m0 0h40l-1 2-35 1-2 2-1 33-2 1v-38z" fill="#26465B"/>
<path transform="translate(1478,537)" d="m0 0h41v39h-2v-37l-36 1-2 1z" fill="#2B5467"/>
<path transform="translate(1100,255)" d="m0 0h40v29h-1l-1-14v-13h-37l-1 30h-1v-31z" fill="#73C4C7"/>
<path transform="translate(1478,539)" d="m0 0h1l1 21 4 11 7 2 26 2v1h-39z" fill="#1D364E"/>
<path transform="translate(1605,593)" d="m0 0h40v2h-39v36l-2 1v-38z" fill="#27495D"/>
<path transform="translate(1494,201)" d="m0 0h10l10 1 2 1v5l-1 4-7-1-6-3-6-2-3-4z" fill="#8BD5D6"/>
<path transform="translate(1605,537)" d="m0 0h40v13h-1v-12l-18 1h-20v37h-2v-38z" fill="#2C596A"/>
<path transform="translate(1478,408)" d="m0 0h1l1 43 1 8 3 2 33 1v-35h1v36h-40z" fill="#2A5B6A"/>
<path transform="translate(352,426)" d="m0 0h1v36h37v-31h1v33h-40z" fill="#263F56"/>
<path transform="translate(937,340)" d="m0 0h41v39h-1l-1-26-2-9-13-1-21-1z" fill="#44868F"/>
<path transform="translate(1277,368)" d="m0 0h1l1 22 2 10v3l34 2v-19h1v20h-39z" fill="#3A7884"/>
<path transform="translate(1389,206)" d="m0 0h1v32h-40v-26h1l1 21 2 1v2h34z" fill="#63B5B9"/>
<path transform="translate(669,485)" d="m0 0h1l1 11v22l38-1 1 3h-41z" fill="#1E3B52"/>
<path transform="translate(1864,367)" d="m0 0h10l12 1v1l-22 1-10 4-3 1-1 32h-1v-39z" fill="#7ACCCE"/>
<path transform="translate(606,143)" d="m0 0h40v39l-2-2v-35l-16 1v-2h-22z" fill="#448791"/>
<path transform="translate(1431,201)" d="m0 0h19l2 3-3 3-16 1-5-1z" fill="#8BD5D6"/>
<path transform="translate(1365,538)" d="m0 0h25v38l-39-1v-6l1 3 11 1 21 1 5 1v-36h-24z" fill="#1D354D"/>
<path transform="translate(1099,481)" d="m0 0h40l-1 2h-37v23l-1 14h-1z" fill="#316875"/>
<path transform="translate(512,315)" d="m0 0 4 1v11l-1 5h-5l-2-4h-2l1-7z" fill="#36727F"/>
<path transform="translate(1478,255)" d="m0 0h40l1 1v38h-1l-1-37h-39z" fill="#78C3C5"/>
<path transform="translate(644,482)" d="m0 0h1v38h-40v-14h1v9l7 2 12 1h19z" fill="#1D374F"/>
<path transform="translate(737,497)" d="m0 0h2l1 3v8l-1 1v8l35 1v-11h1v12l-2 1h-27l-9-2z" fill="#21495D"/>
<path transform="translate(228,311)" d="m0 0h40l1 1v39l-4-2h2v-37h-39z" fill="#336272"/>
<path transform="translate(1665,255)" d="m0 0h41v1l-9 1h-30l-1 37h-1z" fill="#79C8CA"/>
<path transform="translate(413,312)" d="m0 0h34v1h-33l1 17 1 4-2 15h38v1h-39z" fill="#1C324B"/>
<path transform="translate(708,317)" d="m0 0h1l1 11v23h-41v-1l18-1h21z" fill="#458790"/>
<path transform="translate(1415,543)" d="m0 0h1l1 20-1 11 37 1v1h-39v-32z" fill="#1E3B52"/>
<path transform="translate(384,426)" d="m0 0h5v13l-3 1-4-2v-2l-4-2 1-4z" fill="#1E3B52"/>
<path transform="translate(1100,380)" d="m0 0h1v25h37l1-2 1 4h-40z" fill="#40838C"/>
<path transform="translate(764,201)" d="m0 0h12v36l-2-3-1-29-9-3z" fill="#458A93"/>
<path transform="translate(774,257)" d="m0 0h2v36h-18l4-2h11z" fill="#468B93"/>
<path transform="translate(433,287)" d="m0 0h9l10 1v5h-15l-5-3z" fill="#2B5C6B"/>
<path transform="translate(669,200)" d="m0 0h20v1h-19l1 23 1 10 3 2 16 1v1h-22z" fill="#397783"/>
<path transform="translate(605,368)" d="m0 0h40v1l-38 1v34l16 1v1l-18 1z" fill="#2A5B6A"/>
<path transform="translate(1605,481)" d="m0 0h40l-2 2h-16l-3 1-18 1v10h-1z" fill="#295A69"/>
<path transform="translate(1013,312)" d="m0 0h41v1h-40l1 32 2 3 6 1v1h-10z" fill="#40828C"/>
<path transform="translate(1517,264)" d="m0 0h1v30h-40v-20h1l1 16 2 2 35 1z" fill="#4F9CA1"/>
<path transform="translate(1414,493)" d="m0 0h1l2 24 23 1 4 2h-30z" fill="#224B5E"/>
<path transform="translate(796,378)" d="m0 0h1l1 18-1 9h32v1h-34v-26z" fill="#36727F"/>
<path transform="translate(1100,328)" d="m0 0h1l1 16 5 4h30l1-12h1v14h-39z" fill="#4F9A9F"/>
<path transform="translate(1626,538)" d="m0 0h18l1 12v26l-5-1 3-1v-35h-17z" fill="#224B5E"/>
<path transform="translate(1013,368)" d="m0 0h41l-1 8-1-4-11-1-5-1-22-1v11h-1z" fill="#3E7E88"/>
<path transform="translate(1827,313)" d="m0 0h1l1 37h-26v-1l12-2 10 2z" fill="#71C8CA"/>
<path transform="translate(1052,335)" d="m0 0h1l1 16h-41v-1l10-1h29z" fill="#4E969D"/>
<path transform="translate(893,339)" d="m0 0h2v10h-18l4-4 7-1h4z" fill="#448992"/>
<path transform="translate(1052,384)" d="m0 0h1l1 6v17h-41v-1l38-1z" fill="#40838D"/>
<path transform="translate(541,199)" d="m0 0h41l-2 4v-2h-39z" fill="#3F7A86"/>
<path transform="translate(833,346)" d="m0 0 2 3v2h-40v-2h38z" fill="#488D95"/>
<path transform="translate(1349,481)" d="m0 0h2v37l3 1-5 1z" fill="#356B79"/>
<path transform="translate(1013,257)" d="m0 0h1l1 32 2 3 33 1v1h-37z" fill="#4F9CA1"/>
<path transform="translate(144,380)" d="m0 0h1v27l-19-1v-1h18l-2-12-2-6h2l1-6z" fill="#161E3B"/>
<path transform="translate(477,368)" d="m0 0 9 1-2 2-4 1-2 33h-1z" fill="#255163"/>
<path transform="translate(1812,368)" d="m0 0h17v30h-1l-1-22-1-5h-10l-4-1z" fill="#7BCDCF"/>
<path transform="translate(446,261)" d="m0 0 4 2 1 6-5 1-7-4h-2l1-3z" fill="#2B5C6B"/>
<path transform="translate(260,340)" d="m0 0 6 1 1 1v7l-8-1v-2h-2l2-5z" fill="#1E3B52"/>
<path transform="translate(700,203)" d="m0 0h7l1 5-1 2-5 1-7-4 2-3z" fill="#4F939A"/>
<path transform="translate(1351,569)" d="m0 0 1 3 11 1 21 1 2 2-35-1z" fill="#1E3B52"/>
<path transform="translate(682,573)" d="m0 0h14l8 1-2 2h-29v-1h9z" fill="#1C2C47"/>
<path transform="translate(704,449)" d="m0 0h3l1 2v9l-2 2-6-2v-2h2z" fill="#36727F"/>
<path transform="translate(1516,620)" d="m0 0h1v11h-27v-1l21-2 3-2z" fill="#1C2B46"/>
<path transform="translate(638,483)" d="m0 0 5 1 1 3-3 2-8-1-5-2 1-2z" fill="#2B5C6B"/>
<path transform="translate(1014,570)" d="m0 0 2 3 3 1 33 1 1-5h1v6h-40z" fill="#1E3B52"/>
<path transform="translate(291,330)" d="m0 0 4 8v8 1 2h-4z" fill="#1C2B46"/>
<path transform="translate(1100,285)" d="m0 0h1v8h35v1l-37 1v-8z" fill="#5DAAAE"/>
<path transform="translate(576,226)" d="m0 0 4 2v9l-5-2-1-1v-6z" fill="#3F808A"/>
<path transform="translate(606,206)" d="m0 0 2 3 1 8-3 18h-1v-12z" fill="#36727F"/>
<path transform="translate(700,397)" d="m0 0h6l2 6v2l-6-1-2-3z" fill="#3F808A"/>
<path transform="translate(737,335)" d="m0 0 1 2 2 1 3 9 1 2h-7z" fill="#3F808A"/>
<path transform="translate(774,284)" d="m0 0h2v9h-18l4-2h11z" fill="#438891"/>
<path transform="translate(705,281)" d="m0 0 3 2v8l-2 1-4-2v-5z" fill="#4F939A"/>
<path transform="translate(414,201)" d="m0 0h38v2h-34l-4 3z" fill="#1E3B52"/>
<path transform="translate(291,313)" d="m0 0h23v1l-19 2-4 1z" fill="#1C2B46"/>
<path transform="translate(1284,313)" d="m0 0 1 2 3 1-1 3h-6l-3-3h2v-2z" fill="#5BA7AC"/>
<path transform="translate(1643,562)" d="m0 0h2v14l-5-1 3-1z" fill="#255162"/>
<path transform="translate(1278,339)" d="m0 0 3 4 2 5 2 1h-7z" fill="#4F939A"/>
<path transform="translate(542,451)" d="m0 0h1l1 8 9 2v1h-11z" fill="#224B5E"/>
<path transform="translate(478,393)" d="m0 0h1l1 10 1 1 11 1v1h-15z" fill="#1E3C53"/>
<path transform="translate(681,624)" d="m0 0h6l2 1v2l-4-1v2h-6v-3z" fill="#1C2B46"/>
<path transform="translate(1277,313)" d="m0 0h7l-2 2-2-1v2h-2v14h-1z" fill="#4F969D"/>
<path transform="translate(1039,369)" d="m0 0h13v3l-11-1z" fill="#448992"/>
</svg>
