<?xml version="1.0" encoding="UTF-8"?>
<svg width="24px" height="24px" viewBox="0 0 24 24" version="1.1" xmlns="http://www.w3.org/2000/svg" xmlns:xlink="http://www.w3.org/1999/xlink">
    <title>Company</title>
    <g id="Page-1" stroke="none" stroke-width="1" fill="none" fill-rule="evenodd">
        <g id="Desktop" transform="translate(-601, -283)" fill="#A4F1F6">
            <g id="Group-2" transform="translate(581, 112)">
                <g id="Company" transform="translate(21.3333, 172.3333)">
                    <path d="M8,6.66666667 L5.33333333,6.66666667 C4.59733333,6.66666667 4,6.06933333 4,5.33333333 L4,5.33333333 C4,4.59733333 4.59733333,4 5.33333333,4 L8,4 C8.736,4 9.33333333,4.59733333 9.33333333,5.33333333 L9.33333333,5.33333333 C9.33333333,6.06933333 8.736,6.66666667 8,6.66666667 L8,6.66666667 Z M8,10.6666667 L5.33333333,10.6666667 C4.59733333,10.6666667 4,10.0693333 4,9.33333333 L4,9.33333333 C4,8.59733333 4.59733333,8 5.33333333,8 L8,8 C8.736,8 9.33333333,8.59733333 9.33333333,9.33333333 L9.33333333,9.33333333 C9.33333333,10.0693333 8.736,10.6666667 8,10.6666667 L8,10.6666667 Z M13.3333333,18.6666667 L13.3333333,2.66666667 L2.66666667,2.66666667 L2.66666667,18.6666667 L13.3333333,18.6666667 Z M16,18.6666667 L18.6666667,18.6666667 L18.6666667,9.33333333 L16,9.33333333 L16,18.6666667 Z M1.33333333,21.3333333 C0.596,21.3333333 0,20.7373333 0,20 L0,1.33333333 C0,0.596 0.596,0 1.33333333,0 L14.6666667,0 C15.404,0 16,0.596 16,1.33333333 L16,6.66666667 L20,6.66666667 C20.7373333,6.66666667 21.3333333,7.26266667 21.3333333,8 L21.3333333,20 C21.3333333,20.7373333 20.7373333,21.3333333 20,21.3333333 L1.33333333,21.3333333 Z" id="Fill-1"></path>
                </g>
            </g>
        </g>
    </g>
</svg>