<?xml version="1.0" encoding="UTF-8"?>
<svg width="24px" height="24px" viewBox="0 0 24 24" version="1.1" xmlns="http://www.w3.org/2000/svg" xmlns:xlink="http://www.w3.org/1999/xlink">
    <title>Family</title>
    <g id="Page-1" stroke="none" stroke-width="1" fill="none" fill-rule="evenodd">
        <g id="Desktop" transform="translate(-1011, -197)" fill="#A4EFC4">
            <g id="Group" transform="translate(991, 112)">
                <g id="Family" transform="translate(21.3333, 87.6667)">
                    <path d="M6.66666667,0 C9.608,0 12,2.392 12,5.33333333 C12,7.28666667 10.9333333,8.98 9.364,9.908 C10.5133333,10.4213333 11.4933333,11.2493333 12.192,12.2826667 C13.3786667,11.068 15.128,10.408 17.0106667,10.7613333 C19.5666667,11.2413333 21.3333333,13.6146667 21.3333333,16.2146667 L21.3333333,16.2346667 C21.3333333,17.5773333 20.244,18.6666667 18.9013333,18.6666667 L2.432,18.6666667 C1.08933333,18.6666667 0,17.5773333 0,16.2346667 C0,13.5 1.588,11.0013333 3.98933333,9.91866667 C2.408,8.99333333 1.33333333,7.29466667 1.33333333,5.33333333 C1.33333333,2.392 3.72533333,0 6.66666667,0 Z M16,13.3333333 C14.5293333,13.3333333 13.3333333,14.5293333 13.3333333,16 L18.6666667,16 C18.6666667,14.5293333 17.4706667,13.3333333 16,13.3333333 Z M6.66666667,12 C4.46133333,12 2.66666667,13.7946667 2.66666667,16 L10.6666667,16 C10.6666667,13.7946667 8.872,12 6.66666667,12 Z M16,5.33333333 C17.4733333,5.33333333 18.6666667,6.52666667 18.6666667,8 C18.6666667,9.47333333 17.4733333,10.6666667 16,10.6666667 C14.5266667,10.6666667 13.3333333,9.47333333 13.3333333,8 C13.3333333,6.52666667 14.5266667,5.33333333 16,5.33333333 Z M6.66666667,2.66666667 C5.196,2.66666667 4,3.86266667 4,5.33333333 C4,6.804 5.196,8 6.66666667,8 C8.13733333,8 9.33333333,6.804 9.33333333,5.33333333 C9.33333333,3.86266667 8.13733333,2.66666667 6.66666667,2.66666667 Z" id="Combined-Shape"></path>
                </g>
            </g>
        </g>
    </g>
</svg>