<?xml version="1.0" encoding="UTF-8"?>
<svg width="93px" height="18px" viewBox="0 0 93 18" version="1.1" xmlns="http://www.w3.org/2000/svg" xmlns:xlink="http://www.w3.org/1999/xlink">
    <title>Akuna-Logo</title>
    <g id="Site" stroke="none" stroke-width="1" fill="none" fill-rule="evenodd">
        <g id="Welcome" transform="translate(-420, -933)" fill="#000000">
            <path d="M449.992183,942.978153 L455.787558,950.874575 L452.415579,950.874575 L447.812496,944.602179 L449.992183,942.978153 Z M454.450752,933.007016 L446.459138,946.096984 L444.149891,944.665898 L451.267976,933.007016 L454.450752,933.007016 Z M429.238699,933.007016 L422.879995,950.874748 L420,950.874748 L426.358419,933.007016 L429.238699,933.007016 Z M432.421133,933.007016 L438.779552,950.874748 L435.899272,950.874748 L429.541138,933.007016 L432.421133,933.007016 Z M433.388808,944.694134 L433.388808,947.425764 L425.321855,947.425764 L425.321855,944.694134 L433.388808,944.694134 Z M503.458833,933.007016 L497.100129,950.874748 L494.219849,950.874748 L500.578553,933.007016 L503.458833,933.007016 Z M506.641581,933.007016 L513,950.874748 L510.119435,950.874748 L503.761016,933.007016 L506.641581,933.007016 Z M507.608885,944.694134 L507.608885,947.425764 L499.542217,947.425764 L499.542217,944.694134 L507.608885,944.694134 Z M488.784187,950.851227 L491.495241,950.851227 L491.495241,933.006786 L488.784187,933.006786 L488.784187,950.851227 Z M441.197212,950.794294 L443.908265,950.794294 L443.908265,933.006786 L441.197212,933.006786 L441.197212,950.794294 Z M459.644189,943.282716 L459.623642,943.282716 L459.623642,933 L456.912588,933 L456.912588,943.398594 L456.935989,943.398594 C456.99392,947.178882 459.869919,950.279425 463.904537,950.997125 L464.451029,948.31754 C462.066158,947.910671 459.644189,946.221661 459.644189,943.282716 M472.445611,943.282716 L472.445611,933 L469.734558,933 L469.734558,943.368403 C469.693749,945.457093 468.151873,947.833898 464.830405,948.334217 L465.458799,951 C469.545069,950.276837 472.449606,947.116773 472.449606,943.282716 L472.445611,943.282716 Z M475.51458,950.874518 L478.225634,950.874518 L478.225634,933.007073 L475.51458,933.007073 L475.51458,950.874518 Z M488.404811,950.874518 L481.46109,933.007073 L478.54999,933.007073 L485.493425,950.874518 L488.404811,950.874518 Z" id="Akuna-Logo"></path>
        </g>
    </g>
</svg>