<?xml version="1.0" encoding="UTF-8"?>
<svg width="125px" height="47px" viewBox="0 0 125 47" version="1.1" xmlns="http://www.w3.org/2000/svg" xmlns:xlink="http://www.w3.org/1999/xlink">
    <title>Docomotion-Logo</title>
    <defs>
        <path d="M0,0 L125,0 L125,47 L0,47 L0,0 Z" id="path-1"></path>
    </defs>
    <g id="Docomotion-Logo" stroke="none" fill="none" xlink:href="#path-1" fill-rule="evenodd">
        <path d="M67.0725461,1.13838072 L66.5597608,1.46940996 L49.3820366,12.5560194 C49.3241978,14.9589473 49.9782805,17.403206 51.414545,19.5661855 C52.851586,21.7306958 54.8642972,23.3001188 57.1227262,24.2082487 L74.2965687,13.1243181 L74.8112948,12.7921408 C78.0754972,10.6854171 78.989272,6.36864275 76.8523433,3.15057928 L76.8523433,3.15057928 C74.7154145,-0.0674841843 70.3367484,-0.968342955 67.0725461,1.13838072" id="Yellow" fill="#FDCF0F"></path>
        <path d="M74.296297,13.1241651 C74.2008048,17.0253351 72.2261351,20.8162897 68.6641989,23.1155078 C65.1022628,25.4147259 60.7880346,25.6822282 57.1228427,24.2084783 L74.296297,13.1241651 Z M64.7832025,10.7275954 L64.8885699,10.8759599 C65.7670204,12.1985461 65.3912625,13.972327 64.0497138,14.8383608 L50.6284037,23.4929577 C49.338453,24.3256824 47.6253664,24.0152116 46.7145594,22.8143231 L46.609192,22.6659586 C45.7311297,21.3433724 46.1064994,19.5695914 47.4480481,18.7035577 L60.8693582,10.0489608 C62.1593089,9.21623607 63.8723955,9.5267069 64.7832025,10.7275954 Z M55.0145616,2.56042877 C58.5780504,0.260445247 62.8942195,-0.00629161107 66.5597996,1.46937169 L49.3820754,12.5559811 C49.476403,8.65328029 51.4510727,4.86041229 55.0145616,2.56042877 Z" id="Dark" fill="#1A1B36"></path>
        <path d="M57.3459683,34.9535345 C57.4612577,34.9730518 57.8451673,35.601816 57.9387186,35.7464739 C59.3039463,37.8608514 60.5857154,40.0372252 61.8950452,42.1852797 C61.9730693,42.2817182 62.1609483,42.302001 62.238196,42.1979085 C63.6298199,39.8259788 65.1495431,37.5248472 66.5702805,35.1674597 C66.6533509,35.0943654 66.7174006,34.9768787 66.8361835,34.9546825 C66.9926199,34.9252152 67.6781451,34.9294248 67.8489441,34.9512383 C68.0201313,34.9734345 68.0725356,35.0392576 68.0659365,35.2118521 C68.0426458,38.9017757 68.0892273,42.5916994 68.0608902,46.2812403 C68.0601138,46.3719385 68.1389143,46.7779755 67.9428836,46.7779755 L66.2570195,46.7779755 C66.100195,46.7779755 66.1871472,46.3493596 66.186759,46.2812403 C66.1766664,44.1427532 66.2007335,42.004266 66.1821009,39.8661615 C66.1805481,39.6740497 66.3156347,39.409609 65.9946101,39.4191763 C64.967875,41.1918092 63.8701031,42.9292344 62.7428295,44.6429326 C62.7043997,44.6949788 62.6597591,44.7225327 62.5949331,44.7347789 C62.4482012,44.7619501 61.587607,44.7523827 61.4758112,44.7011019 C60.4925523,43.3314445 59.6769869,41.8301408 58.7271114,40.4302506 C58.5978476,40.1436138 58.3928888,39.8963942 58.2496505,39.6185593 C58.1898708,39.5022207 58.2259715,39.3567974 58.0695351,39.321207 C58.021789,39.3104916 57.9752075,39.2997762 57.9488113,39.3545013 C57.8731162,39.5106399 57.9507522,39.707344 57.9507522,39.8661615 C57.9515285,42.1397392 57.9623976,44.4140823 57.9270732,46.6868947 C57.8634118,46.9123007 57.600226,46.7772102 57.4441778,46.7756794 C57.0462937,46.7710871 56.6383169,46.7588409 56.2439264,46.8120352 L56.065752,46.7098562 L56.0696338,34.9535345 C56.4543198,34.9994576 56.9806913,34.8911555 57.3459683,34.9535345 M124.829247,34.9535345 C124.96938,34.9784095 125.003928,35.1391405 124.999658,35.2600714 L124.996553,46.6103561 C124.992283,46.6482427 124.978308,46.6811543 124.954241,46.7110043 C124.862243,46.8269602 124.112668,46.7764448 123.911979,46.7756794 C123.825415,46.7752967 123.739239,46.8212198 123.670919,46.819007 C123.360376,46.8093563 122.62594,45.7416435 122.395361,45.4733759 C120.96686,43.8090451 119.537195,42.1508373 118.111023,40.484593 C117.699164,40.0031655 117.303997,39.4157321 116.858755,38.96492 C116.785778,38.891443 116.598675,38.6901466 116.49736,38.704689 L116.462424,46.6493908 C116.449614,46.6918697 116.416231,46.735114 116.37586,46.7542486 C116.293566,46.7936659 114.975696,46.8017025 114.808002,46.779889 C114.664764,46.7615198 114.596444,46.7178928 114.591398,46.5663464 L114.590622,35.2118521 C114.584411,35.0392576 114.636815,34.9734345 114.808002,34.9512383 C114.998987,34.926746 115.879766,34.9313383 116.02611,34.9895076 C116.224858,35.0683423 116.383235,35.4292216 116.521427,35.5937795 C118.390512,37.8172244 120.262314,40.0437309 122.15469,42.2438317 C122.351885,42.4730646 122.76025,43.1607635 123.046338,43.1703308 C123.156581,43.1741578 123.117763,43.1358885 123.121257,43.0497826 C123.133291,42.7635284 123.066135,42.3819837 123.07157,42.0532507 C123.108059,39.9105539 123.162016,37.7425993 123.121257,35.5926314 C123.116987,35.3722004 122.970643,35.142202 123.191517,34.9535345 C123.678683,35.0143826 124.369643,34.8716382 124.829247,34.9535345 M2.04920018,36.7580074 C2.03328481,36.782117 1.97699877,36.8161767 1.97699877,36.8291882 L1.97699877,44.9020921 C1.97699877,44.9640884 2.23048006,45.0138384 2.29025972,45.0207269 C3.51923637,45.1607925 5.63209801,45.0578481 6.71317823,44.4428608 C9.65519152,42.7689627 9.55387664,38.4208075 6.3595466,37.1150597 C6.16700951,37.036225 5.33746968,36.7580074 5.18025694,36.7580074 L2.04920018,36.7580074 Z M0.128875632,34.9597341 L4.65077994,34.9532283 C7.02178102,35.0626784 9.50535419,36.3236511 10.3950619,38.5976115 C11.4858466,41.3851456 10.350033,44.7195477 7.59706321,46.0738974 C5.64257886,47.0356043 2.688532,46.7948906 0.505409856,46.7753732 C0.163035438,46.7723117 0.0419233982,46.913908 0.000388179613,46.4232959 L0,35.4499635 C0.0163035438,35.3351557 0.0205735195,34.9960899 0.128875632,34.9597341 L0.128875632,34.9597341 Z M105.624527,36.5346296 C102.215922,36.7948607 100.483864,41.0217023 102.623122,43.5968419 C105.264296,46.7758707 110.276083,44.8589627 110.20854,40.8200232 C110.168169,38.4029357 108.160116,36.3409871 105.624527,36.5346296 M105.239453,34.825141 C109.326596,34.4703848 112.431256,37.4435249 112.13624,41.4824644 C111.71817,47.2098443 103.800083,48.9683176 100.720265,44.1907811 C98.2859911,40.4147516 100.646511,35.2242896 105.239453,34.825141 M47.1010155,36.5342852 C44.5949279,36.7566297 42.7933864,39.1928518 43.2211603,41.6130009 C43.9074619,45.495419 48.9402105,46.5279241 51.0996537,43.1365008 C52.9291442,40.2632435 50.5624131,36.2269829 47.1010155,36.5342852 M46.7632993,34.8251793 C50.2425531,34.5412213 53.3871962,36.8339336 53.6604746,40.3439917 C54.1251256,46.3155296 46.6286009,49.3277044 42.6540299,44.7839932 C39.4682398,41.1419061 41.9052314,35.2212663 46.7632993,34.8251793 M76.2893275,36.5313767 C73.1838906,36.838679 71.4720185,40.5596008 73.0814112,43.1366539 C74.9582597,46.1427056 79.3730264,45.7588647 80.7075879,42.5044454 C81.9062865,39.5814381 79.5046193,36.2133591 76.2893275,36.5313767 M76.0012983,34.8253324 C78.0621438,34.6462322 79.8601918,35.2332829 81.2859755,36.7097116 C83.4574523,38.9580316 83.5102447,42.634561 81.3822441,44.9265079 C77.0858721,49.5544116 69.3754605,45.7657532 70.6479132,39.6147324 C71.1684621,37.0989101 73.3760395,35.0534173 76.0012983,34.8253324 M16.107086,44.0543511 C18.2937018,46.0986959 21.8401108,45.2743757 22.9534099,42.5507513 C24.5317482,38.6882332 20.2741942,34.8949825 16.7010009,37.2416545 C14.375805,38.7689813 14.0741894,42.1535162 16.107086,44.0543511 M18.2960309,34.8253324 C20.7664059,34.6106417 23.0527839,35.6048776 24.3469747,37.7116012 C26.7397138,41.6070309 24.0655445,46.7224851 19.439608,46.9697046 C15.5811027,47.175976 12.5424327,44.1500243 12.8153229,40.3441448 C13.018729,37.5133664 15.4188436,35.0756135 18.2960309,34.8253324 M32.6983873,34.8252559 C35.5798446,34.5818633 38.0020854,35.8344167 38.9927198,38.5637815 C38.9783571,38.7440298 39.2108767,39.1864226 39.2097165,39.2996997 C39.2077713,39.4190998 39.0963637,39.4535422 38.9962134,39.4669364 C38.7966891,39.4937249 37.4163224,39.484923 37.2955985,39.4298152 C37.1205295,39.3498324 37.1213059,39.0677879 37.0525981,38.9097357 C36.1217434,36.7754582 33.8675843,36.0085419 31.7190102,36.8990679 C28.3352485,38.3012542 28.3267085,43.4431142 31.6972721,44.8537198 C33.8644789,45.7607016 36.1500805,44.9298756 37.0665725,42.7883269 C37.1760392,42.5334535 37.0976269,42.3068994 37.4516467,42.2655686 C37.7649077,42.2292128 38.6887751,42.2246205 38.9962134,42.2644205 C39.1646833,42.286234 39.2232985,42.3390456 39.1918559,42.5047516 C38.7865964,44.646683 36.7956232,46.5842565 34.6055138,46.9152857 C29.8165419,47.6393404 26.173088,43.6126471 27.5088141,39.016507 C28.1691076,36.7444601 30.3075891,35.0273176 32.6983873,34.8252559 M89.4498974,46.7065651 C89.3932232,46.8894922 89.062106,46.7769805 88.9460403,46.7754498 C88.5481562,46.7704748 88.1401794,46.7593767 87.7457889,46.8118056 C87.4193299,46.7111574 87.5707199,46.4972321 87.5734372,46.2810107 C87.6130315,43.2099013 87.5373365,40.1357303 87.5738254,37.0642381 C87.5287965,36.5759222 87.333154,36.7538743 87.0195049,36.7599974 C85.8642823,36.7825763 84.7059544,36.7400974 83.5507318,36.7565532 C83.490564,36.749282 83.4311725,36.7175185 83.4047763,36.6631761 C83.3676143,36.5881683 83.3550893,35.2602244 83.3822619,35.1209243 C83.4005063,35.0252511 83.451746,34.9686126 83.5507318,34.9548356 L93.4741555,34.9513914 C93.6278746,34.9563664 93.6721271,35.0233376 93.6907597,35.1649339 C93.7214259,35.3930188 93.7276368,36.3811316 93.6888188,36.5919953 C93.6604817,36.7454551 93.5032689,36.749282 93.3778869,36.7603801 C92.20442,36.8640898 90.890432,36.7320608 89.7138596,36.7102473 C89.6152619,36.7083339 89.4498974,36.7695647 89.4498974,36.8767187 L89.4498974,46.7065651 Z M95.4468066,34.9535345 L97.2289392,34.9535345 C97.2499009,34.9535345 97.3158915,35.0580096 97.3275369,35.0936 L97.3248196,46.6823024 C97.3139506,46.7044985 97.2374792,46.7779755 97.2289392,46.7779755 L95.4468066,46.7779755 C95.2826067,46.7779755 95.3773225,46.3646674 95.3769343,46.2812403 C95.3637362,42.5599359 95.3839215,38.8386314 95.3722761,35.117327 L95.4468066,34.9535345 Z" id="Type" fill="#1A1B36"></path>
    </g>
</svg>