<svg xmlns="http://www.w3.org/2000/svg" width="957.761" height="304.077"><path fill="#232323" d="M791.97 64.514q-.56-.19-.53 0l.35-55.49a.53.55 87.6 0 0-.6-.54q-18.23 1.98-36.38-.08-2.76-.31-6.59-1.29-8.09-2.07-13.62-6.49-.14-.11-.03-.25l.17-.2q.26-.32.57-.05 4.55 3.91 10.92 5.67 8.74 2.4 17.75 2.77 14.47.58 28.03-.72.6-.06.6.54l.04 55.65q0 .37-.37.45-.16.03-.31.03z"/><path fill="#232323" d="m763.51 57.034-2.07-.36.76-40.21q.01-.5-.49-.43-20.81 3.1-40.69-.17-8.5-1.4-15.79-6.8a.3.3 0 0 1-.01-.48l.26-.2q.03-.03.07 0 7.34 5.63 17.12 7.01c13.43 1.91 25.33 1.22 39.78-.08q.47-.05.48.42l.37 39.41q.01.44.39.66.67.39-.18 1.23z"/><path fill="#e6e6e6" d="M863.3 142.814q-1.76-2.93-3.9-6.31-13.69-21.64-35.6-34.94-.26-.16-.1-.54 17.65-20.72 38.03-38.62c17.56-15.42 37.35-29.24 58.72-38.86 7.23-3.26 16.82-6.09 20.65 3.46q1.62 4.04 1.37 8.64c-.95 17.51-11.44 34.87-23.23 47.84q-11.84 13.02-27 22.16-.96.58.16.63 19.17.83 36.21 4.34 12.28 2.53 22.4 6.74c8.7 3.63 8.31 11.2 2.7 17.13-3.99 4.21-8.89 7.38-14.11 9.65-24.17 10.53-52.05 8.95-76.3-1.32z"/><path fill="#ec6bb7" d="M391.82 65.394q-.83.25-1.19 1.66-17.42 68.07-34.89 136.44a.4.4 0 0 0 .42.5l21.55-1.62q24.53-1.83 56.31-4.14.95-.07 1.74 1.23.18.3.05.61-.76 1.84-2.74 2.09-57.41 7.04-112.37 13.74c-2.96.36-6.11-1.77-6.46-4.71q-.21-1.77.55-4.85 16.91-68.65 33.8-137.31c.73-2.96 7.86-4.84 10.63-5.71a1.05 1.04.4 0 0 .68-.66c.2-.62.05-1.36.17-2.03q1.41-7.56 8.96-9.55.5-.13.71-.6 3.65-8.07 4.85-16.53a.052.04 50 0 1 .09.01q.1 9.42 2.06 17.53a1.27 1.22 15 0 0 .38.63l3.48 3.13q.47.42 1.06.18c3.32-1.35 11.4-4.81 10.78 2.75q-.3 3.61-.62 7.21z"/><path fill="#d851a7" d="m551.29 65.274-37.62-8.39a4.31 4.31 0 0 0-4.85 2.39q-12.12 26.01-24.6 52.97c-3.92 8.46-15.96 6.87-18.02-2.24q-6.38-28.27-12.73-56.28c-.64-2.81-2.57-3.72-5.47-3.48q-17.31 1.45-34.89 2.89-.9-1.14-1.79-2.74-.92-1.64-.69-2.94c.37-2.07 1.91-4.12 4.14-4.29q17.77-1.39 35.09-2.77 3.68-.29 4.52 3.25 6.45 27.49 12.81 56.36c2.05 9.31 14.08 10.97 18.11 2.22q11.57-25.05 23.71-51.12c1.3-2.8 2.6-4.8 6.17-3.99q16.96 3.83 35.08 7.82 4.72 1.03 4.61 5.4-.04 1.54-1.19 2.81-1.14 1.24-2.39 2.13z"/><path fill="#ec6bb7" d="M551.29 65.274q-21.73 23.33-37.64 50.59-27.18 46.61-40.92 98.84l-3.93 15.3q-7.05 30.06-10.43 62.29c-.7 6.65-9.94 4.36-9.3-1.96q3.03-29.57 3.09-57.32 0-.1-.05-.17-.04-.05-.12-.12.66-7.86-.33-15.79.08.04.21-.12.07-.09.07-.21c-1.22-41.11-7.54-82.17-20.51-121.17q-7.2-21.62-18.32-42.3 17.58-1.44 34.89-2.89c2.9-.24 4.83.67 5.47 3.48q6.35 28.01 12.73 56.28c2.06 9.11 14.1 10.7 18.02 2.24q12.48-26.96 24.6-52.97a4.31 4.31 0 0 1 4.85-2.39z"/><path fill="#fff" d="m761.44 56.674 2.07.36q9.55 1.42 16.34 8.03.35.34.83.3l10.76-.85q-.03-.19.53 0 7.02.96 13.54 3.84 7.94 3.49 13.55 9.47-.38 3.24-.77 6.33-.46 3.74-1.31 6.21-3.61 10.61-12.64 17.63-2.86 2.22-5.91 4.37-10.79 2.28-21.16-1.16c-9.87-3.26-16.91-11.47-16.52-22.17q.07-1.77-.15-3.39l.41-2.31q1.06-3.65 4.74-9.37.61-.96-.46-2.01-.35-.34-.81-.16l-4.21 1.62q-1.2.46-.28-.44l3.56-3.5a.51.5 43.8 0 0-.02-.73c-4.78-4.38-11.89-3.37-14.77 2.66q-2.57 5.36 2.6 10.88l-9.84 3.45q-8.85-.22-18.64-1.96-1.17-8.55 5.36-14.88c8.44-8.18 21.15-13.72 33.2-12.22zm41.2 26.45 3.42-3.38q.52-.5-.02-.98c-4.95-4.38-12.33-3.02-14.78 3.2-3.03 7.69 5.22 15.08 12.45 11.28q6.23-3.28 4.66-10.87-.16-.74-.86-.49l-4.62 1.63q-1.02.37-.25-.39z"/><path fill="#d851a7" d="m391.82 65.394-14.11 136.98-21.55 1.62a.4.4 0 0 1-.42-.5q17.47-68.37 34.89-136.44.36-1.41 1.19-1.66z"/><path fill="#ec6bb7" d="M722.88 83.774q9.79 1.74 18.64 1.96 9.77.96 19.08-.09.22 1.62.15 3.39c-.39 10.7 6.65 18.91 16.52 22.17q10.37 3.44 21.16 1.16 10.78-1.65 18.19-7.75 5.78 2.06 11.08 4.21c2.66 1.08 6.2 4.09 3.36 7a.6.6 0 0 0 .09.91q13.99 9.76 23.59 24.54-5.9-3.78-10.23-7.44-2.3-1.95-1.96 1.05.08.71 1.53 1.98 9.29 8.09 18.39 15.93.36 1.72 2.41 7.55c8.74 24.85-6.27 51.47-26.31 65.43q-12.83 8.92-29.58 10.32-9.34-6.53-12.81-18.16-3.53-11.86-.82-24 1.1-4.89 2.32-9.78 4.23-16.82-2.35-33.08l-1.53-3.36q-4.37-8.94-12.93-16.9c-12.43-11.55-26.74-19.95-42.24-26.84-8.74-3.89-17.93-6.4-26.98-9.23-15.64-4.9-29.42-12.22-39.12-25.59a2.15 2.13 46.3 0 1 .05-2.57q1.05-1.33 2.52-.45 22.31 13.43 47.78 17.64zm100.6 36.82q.14-.69.82-.53 2.64.59 4.32-.85.6-.52-.19-.49c-3.53.13-7.3-1.18-8.22-5.08q-.18-.73-.35 0-.63 2.74 1.58 4.98.53.55.12 1.19c-5.34 8.25-20.27 6.41-28.49 5.14q-1.07-.16-.18.46 2.65 1.86 6.11 2.41c6.46 1.03 22.59 2.14 24.48-7.23z"/><path fill="#232323" d="M761.01 83.334q-5.44 1.91-9.65-1.05-5.17-5.52-2.6-10.88c2.88-6.03 9.99-7.04 14.77-2.66a.51.5 43.8 0 1 .02.73l-3.56 3.5q-.92.9.28.44l4.21-1.62q.46-.18.81.16 1.07 1.05.46 2.01-3.68 5.72-4.74 9.37z"/><path fill="#ec6bb7" d="M140.05 237.684q-.9-16.62-1.88-33.21-.25-4.2-.75-8.31c-1.61-13.13-4.82-27.71-20.17-30.52q-5.98-1.1-10.75-.89c-9.17-1.06-18 4.12-20.8 12.94q-1.07 3.38-.98 8.39.52 28.41.64 54.24c.01 2.98-2.37 5.39-5.23 5.75q-27.11 3.35-51.25 6.38c-3.87.48-7.06-2.28-6.94-6.4q2.42-85.24 4.61-171.01c.11-4.53 2.03-8.21 7.24-7.48q22.55 3.14 42.96 6.08c2.75.39 5 2.69 5.13 5.57q1 22.81 2.22 46.35a.29.29 0 0 0 .27.27l34.35 2.52q.49.04.47-.45-.6-19.24-1.34-39.33c-.16-4.37 2.44-8.21 7.32-7.11q16.06 3.61 33.09 7.37c2.6.58 4.32 2.8 4.55 5.32q6.43 69.74 12.28 133.3.28 3.04-1.92 5.15-1.43 1.36-5.42 1.84-14.12 1.68-27.7 3.24z"/><path fill="#232323" d="m802.89 83.514 4.62-1.63q.7-.25.86.49 1.57 7.59-4.66 10.87c-7.23 3.8-15.48-3.59-12.45-11.28 2.45-6.22 9.83-7.58 14.78-3.2q.54.48.02.98l-3.42 3.38q-.77.76.25.39z"/><path fill="#ec6bb7" d="M239.17 186.574c14.85 1.92 22.66-7.13 25.41-20.43q7.61-36.79 14.79-71.58c.63-3.04 2.77-5.54 5.69-6.47q15.37-4.87 33.02-10.37c3.37-1.05 6.62 2.18 5.98 5.55q-7.75 41.05-15.56 81.65c-5.17 26.84-19.18 49.67-46.57 57.69q-9.43 2.76-18.64 3.33c-20.69 1.29-46.87-1.28-55.8-23.12-4.47-10.95-3.85-22.96-1.85-34.95q5.57-33.47 10.99-68.51c.52-3.33 3.22-5.43 6.75-5.21q14.65.94 29.56 1.63c3.04.14 5.51 1.53 6.31 4.48q.36 1.35-.02 3.85-5.05 33.04-10.17 66.07-.27 1.74.16 5.99c.58 5.72 4.31 9.67 9.95 10.4z"/><path fill="#e6e6e6" d="M819.06 77.824c5.89 6.29 6.1 14.92 1.78 21.95l-4.22 4.84q-7.41 6.1-18.19 7.75 3.05-2.15 5.91-4.37 9.03-7.02 12.64-17.63.85-2.47 1.31-6.21.39-3.09.77-6.33zm-67.7 4.46q4.21 2.96 9.65 1.05l-.41 2.31q-9.31 1.05-19.08.09z"/><path fill="#ec6bb7" d="M528.54 123.604c11.53-33.25 45.69-43.45 78.26-41 17.32 1.31 35.02 9.34 38.78 28.13q2.76 13.75-2.12 29.41-8.8 28.22-36.75 38.18-25.29 9.02-52.47 3.79-3.28-.63-7.66-2.41c-24.09-9.78-25.61-34.25-18.04-56.1zm51.74-11.03q-3.14 5.03-4.72 10.12-2.57 8.24-3.83 18.23-.77 6.07.68 12.09 1.09 9.82 12.11 9.38 10.84-.43 16.5-9.27 4.53-7.09 6.26-15.43c1.46-7.01 3.62-14.77 2.84-21.74q-1.14-10.17-11.09-12.23-13.41-2.77-18.75 8.85z"/><path fill="#d851a7" d="M820.84 99.774q1.69 1.41 2.86 1.25-.16.38.1.54 21.91 13.3 35.6 34.94 2.14 3.38 3.9 6.31l3.64 8.14-12.2-9.68q-9.6-14.78-23.59-24.54a.6.6 0 0 1-.09-.91c2.84-2.91-.7-5.92-3.36-7q-5.3-2.15-11.08-4.21zm-248.43 53.24q3.61 6.94 10.42 5.47c8.25-1.77 11.82-10.82 13.64-18.03q2.15-8.53 3.06-16.86c.63-5.78.19-14.37-7.08-15.93q-6.58-1.41-12.17 4.91 5.34-11.62 18.75-8.85 9.95 2.06 11.09 12.23c.78 6.97-1.38 14.73-2.84 21.74q-1.73 8.34-6.26 15.43-5.66 8.84-16.5 9.27-11.02.44-12.11-9.38z"/><path fill="#232323" d="M823.48 120.594c-1.89 9.37-18.02 8.26-24.48 7.23q-3.46-.55-6.11-2.41-.89-.62.18-.46c8.22 1.27 23.15 3.11 28.49-5.14q.41-.64-.12-1.19-2.21-2.24-1.58-4.98.17-.73.35 0c.92 3.9 4.69 5.21 8.22 5.08q.79-.03.19.49-1.68 1.44-4.32.85-.68-.16-.82.53zm31.26 20.68 12.2 9.68q19.26 14.97 27.46 21.08c3.26 2.44 4.83 4.8 5.83 8.91q3.12 12.8 10.18 28.41 6.54 14.47 16.1 23 .55.49-.19.52c-15.3.57-30.18-6.59-31.12-23.47q-.82-14.55-1.1-29.75a1.4 1.37 19.8 0 0-.5-1.04q-10.86-9.03-21.86-18.15-.25-.21-1.37-.52-2.87-3.65-7.9-7.15-9.1-7.84-18.39-15.93-1.45-1.27-1.53-1.98-.34-3 1.96-1.05 4.33 3.66 10.23 7.44zm-60.94 6.44 1.53 3.36q-13.47 15.95-26.22 32.14-1.12 1.42-2.35 1.65c-3.26.6-8.65-5.96-10.79-8.66q-5.72-7.25-11.38-13.7-6.83-7.77-12.84-10.95-10.72-5.66-23-2.02-.59.18-.28-.35 6-10.01 17.79-10.84c6.71-.47 12.45 4.19 16.96 8.81q12.58 12.92 22.91 29.75a.56.56 0 0 0 .89.09z"/><path fill="#d851a7" d="M862.47 152.794q5.03 3.5 7.9 7.15 7.46 26.77-.56 52.7c-5.34 17.26-19.12 29.5-37.62 29.75q-12.31.16-23.2-6.3 16.75-1.4 29.58-10.32c20.04-13.96 35.05-40.58 26.31-65.43q-2.05-5.83-2.41-7.55zm-755.97 11.96q4.77-.21 10.75.89c15.35 2.81 18.56 17.39 20.17 30.52q.5 4.11.75 8.31.98 16.59 1.88 33.21-4.34.82-8.34.94-3.25.11-4.81-1.45-1.86-1.86-1.99-4.43-1.08-22.41-1.84-45.2-.26-7.72-2.08-11.85-3.81-8.61-14.49-10.94z"/><path fill="#61b1c4" d="m468.8 230.004 3.93-15.3q71.43-7.93 143.09-13.73 12.71-1.03 25.83-2 1.04-.08 1.61.8.17.27.21.56.21 1.59-1.38 1.85zm-17.14-13.07q.99 7.93.33 15.79-220.15 35.38-440.25 70.7c-4.02.65-7.88 1.79-10.62-2.33-1.65-2.49-1.47-5.83.5-8.12l18.79-21.88q1.95-2.28 4.84-2.66 150.56-19.51 308.5-38.08 58.73-6.91 117.91-13.42z"/><path fill="#232323" d="m815.57 248.614-10.81 15.16q-.29.4-.76.57c-8.41 2.98-20.4 5.18-28.07-.74 3.61-9.17 10.61-18.08 20.09-21.5q5.6-2.03 10.64-.67 6.09 1.63 8.91 7.18zm51.67 14.8c.45 2.24 1.49 4.59 1.58 6.69.21 5.09-4.51 9.37-8.97 10.96q-6.63 2.37-13.05-1.54c-3.97-2.42-9.07-6.61-8.9-11.59q.15-4.34 1.37-10.14 2.54-6.73 6.57-9.73c5.76-4.29 11.45-1.12 15.17 3.89q3.83 5.18 6.23 11.46z"/><path fill="#fff" d="m786.42 289.274 14.68-20.43q.32-.44-.2-.3-9.35 2.55-19.14 1.61-3.38-.32-7.16-.79-1.52-3.93 1.33-5.76c7.67 5.92 19.66 3.72 28.07.74q.47-.17.76-.57l10.81-15.16.98-1.2a.61.6 38.1 0 1 .84-.1l1.68 1.27q.46.35.12.82l-30.37 42.37q-.3.42-.78.23-3.2-1.3-1.62-2.73zm52.85-31.48q-1.22 5.8-1.37 10.14c-.17 4.98 4.93 9.17 8.9 11.59q6.42 3.91 13.05 1.54c4.46-1.59 9.18-5.87 8.97-10.96-.09-2.1-1.13-4.45-1.58-6.69q4.74 10.15 4.97 21.77c.14 7.34-4.27 18.3-12.98 18.55-11.76.34-18.6-7.12-21.08-17.78q-3.42-14.69 1.12-28.16zm30.47 21.27c-5.42 8.17-15.53 9.79-23.85 4.95q-3.97-2.3-6.77-5.46-.57-.64-.44.21c1.65 10.67 6.77 18.48 17.63 19.68 10.78 1.19 14.73-10.79 13.93-19.25q-.08-.77-.5-.13z"/><path fill="#232323" d="M786.42 289.274c-3.93.23-6.54-1.95-8.75-5.23q-4.44-6.61-3.07-14.68 3.78.47 7.16.79 9.79.94 19.14-1.61.52-.14.2.3zm59.47-5.26c8.32 4.84 18.43 3.22 23.85-4.95q.42-.64.5.13c.8 8.46-3.15 20.44-13.93 19.25-10.86-1.2-15.98-9.01-17.63-19.68q-.13-.85.44-.21 2.8 3.16 6.77 5.46z"/></svg>