<?xml version="1.0" encoding="UTF-8"?>
<svg width="100px" height="46px" viewBox="0 0 100 46" version="1.1" xmlns="http://www.w3.org/2000/svg" xmlns:xlink="http://www.w3.org/1999/xlink">
    <title>IB-Logo</title>
    <g id="Site" stroke="none" stroke-width="1" fill="none" fill-rule="evenodd">
        <g id="Welcome" transform="translate(-561, -919)" fill="#5472CC">
            <path d="M589.046544,923.520106 C592.600601,923.520106 595.768308,926.0562 595.768308,930.213391 L595.768308,938.801418 L595.758,938.801 L595.698,954.758 L595.698975,958.244717 C595.698975,960.5994 597.026342,962.116964 599.379964,962.156972 L599.714739,962.156972 L599.714739,965 L599.547351,965 C595.99175,964.998473 592.824043,962.460852 592.824043,958.305187 L592.824043,949.717161 L592.842,949.717 L592.893,936.165 L592.893067,930.273862 C592.893067,927.995136 591.650244,926.500107 589.436942,926.370042 L589.212387,926.361606 L588.877612,926.361606 C586.52399,926.401309 585.196623,927.919179 585.196623,930.273862 L585.196623,938.801418 L582.321691,938.801418 L582.321691,930.213391 C582.321691,926.057727 585.489706,923.520106 589.043455,923.520106 Z M605.020193,943.324395 C608.976352,943.324395 611.307737,945.677551 611.307737,949.344565 L611.307737,958.605707 L608.526073,958.605707 L608.526073,956.588498 C607.505995,957.994894 605.683259,958.971584 603.766946,958.971584 C600.459337,958.971584 598.296884,957.199311 598.296884,954.508986 C598.29534,951.57678 600.798745,949.589806 605.403147,949.589806 L608.46307,949.589806 L608.46307,949.101156 C608.46307,946.961479 607.134159,945.647315 604.909321,945.647315 C603.023583,945.647315 601.416413,946.869246 601.29257,948.581049 L598.480331,948.581049 C598.604173,945.524847 601.403751,943.324395 605.020193,943.324395 Z M583.378643,943.303627 C587.334802,943.303627 589.665879,945.656783 589.665879,949.324103 L589.665879,958.584939 L586.884214,958.584939 L586.884214,956.56773 C585.864445,957.974127 584.0414,958.950816 582.125396,958.950816 C578.817788,958.950816 576.655334,957.178543 576.655334,954.488219 C576.65379,951.556012 579.157196,949.569038 583.761597,949.569038 L586.821521,949.569038 L586.821521,949.080694 C586.821521,946.940711 585.492609,945.626548 583.267772,945.626548 C581.382033,945.626548 579.774863,946.848479 579.651021,948.560281 L576.838781,948.560281 C576.962624,945.50408 579.762201,943.303627 583.378643,943.303627 Z M608.526073,951.697721 L605.46584,951.697721 C602.6536,951.697721 601.077005,952.646007 601.077005,954.448516 C601.077005,955.824677 602.127657,956.771437 603.982512,956.771437 C606.579185,956.771437 608.526073,954.723687 608.526073,952.15583 L608.526073,951.697721 Z M586.88267,951.67848 L583.822746,951.67848 C581.010507,951.67848 579.433911,952.626767 579.433911,954.429275 C579.433911,955.805742 580.484563,956.752196 582.339418,956.752196 C584.936091,956.752196 586.88267,954.704752 586.88267,952.136895 L586.88267,951.67848 Z M579.404664,919 L579.404664,938.802854 L576.407433,938.802854 L576.407433,919 L579.404664,919 Z M605.229891,923.519739 C608.783949,923.519739 611.951655,926.055834 611.951655,930.213025 L611.951655,938.801052 L609.076723,938.801052 L609.076723,930.273495 C609.076723,927.918812 607.749356,926.400943 605.395735,926.36124 L605.060959,926.36124 C602.707337,926.400943 601.37997,927.918812 601.37997,930.273495 L601.37997,938.801052 L598.505038,938.801052 L598.505038,930.213025 C598.505038,926.057361 601.672745,923.519739 605.226802,923.519739 Z M626.236448,929.632631 C626.112605,927.554951 624.289869,925.933549 621.847613,925.933549 C619.622466,925.933549 617.675887,927.37018 617.025793,929.632631 L626.236448,929.632631 Z M614.059136,931.466901 C614.059136,926.913598 617.675887,923.520228 621.847613,923.520228 C626.019338,923.520228 629.141955,926.668662 629.141955,930.703385 C629.141955,931.008792 629.141955,931.436666 629.048687,931.957078 L616.810227,931.957078 C617.05822,934.860577 619.220365,936.785553 621.94088,936.785553 C623.981035,936.785553 625.742623,935.716631 626.175299,934.126991 L628.987538,934.126991 C628.276603,937.060724 625.464364,939.170471 621.786463,939.170471 C617.243211,939.170471 614.059136,935.716631 614.059136,931.468734 L614.059136,931.466901 Z M638.133647,923.52035 C634.579589,923.52035 631.411882,926.057971 631.411882,930.213636 L631.411882,938.801662 L634.286815,938.801662 L634.286815,930.274106 C634.286815,927.919423 635.614182,926.401554 637.967803,926.361851 L638.135191,926.361851 L638.302579,926.361851 L638.302579,923.518823 L638.135191,923.518823 L638.133647,923.52035 Z M621.026424,943.322532 C617.472675,943.322532 614.224362,945.860153 614.224362,950.015817 L614.224362,958.603844 L617.099295,958.603844 L617.099295,950.076288 C617.099295,947.721605 618.426662,946.203735 620.780283,946.164032 L621.115059,946.164032 C623.46868,946.203735 624.796047,947.721605 624.796047,950.076288 L624.796047,958.603844 L627.67098,958.603844 L627.67098,950.015817 C627.67098,945.858626 624.58357,943.322532 621.029821,943.322532 L621.026424,943.322532 Z M568.061173,956.155432 C570.162168,956.155432 571.553773,955.253262 571.553773,953.061055 C571.553773,950.83678 570.101019,950.025316 568.091747,950.025316 L563.997231,950.025316 L563.997231,956.153905 L568.061173,956.153905 L568.061173,956.155432 Z M566.92868,947.581454 C568.999101,947.581454 571.151671,946.53788 571.151671,944.445847 C571.151671,942.420392 569.718374,941.324288 567.678219,941.324288 L564.07938,941.324288 L563.998775,947.581454 L566.930224,947.581454 L566.92868,947.581454 Z M561.080606,938.847137 L568.247708,938.847137 C571.895034,938.847137 574.119872,940.851825 574.119872,944.138608 C574.119872,946.69547 572.61894,948.022461 570.949076,948.486984 C573.112765,948.852861 574.552856,950.397606 574.552856,953.385396 C574.552856,957.005072 572.186264,958.629223 568.600088,958.629223 L561,958.629223 L561.080606,938.847137 Z M629.613544,951.179141 C629.613544,946.716543 633.186749,943.324395 637.543157,943.324395 C641.06664,943.324395 644.046267,945.677551 644.540092,948.825985 L641.66516,948.825985 C641.232484,947.206415 639.440013,945.922487 637.430741,945.922487 C634.587928,945.922487 632.393356,948.184937 632.393356,951.179141 C632.393356,954.112874 634.587928,956.375324 637.430741,956.375324 C639.440013,956.375324 641.263058,955.153394 641.66516,953.379288 L644.540092,953.379288 C644.107416,956.710966 641.016918,958.973416 637.46286,958.973416 C633.104599,958.973416 629.613544,955.641738 629.613544,951.179141 M658.094493,949.436645 C657.970651,947.358965 656.147914,945.737563 653.705658,945.737563 C651.480511,945.737563 649.533933,947.174194 648.884147,949.436645 L658.094493,949.436645 Z M645.917182,951.269388 C645.917182,946.716085 649.614538,943.32241 653.786263,943.32241 C657.95768,943.32241 661,946.471149 661,950.505872 C661,950.811279 661,951.239153 660.906732,951.75926 L648.668581,951.75926 C648.916265,954.663064 651.07841,956.58804 653.798926,956.58804 C655.839081,956.58804 657.600668,955.518812 658.033344,953.929783 L660.845583,953.929783 C660.134648,956.863211 657.322409,958.972958 653.644509,958.972958 C649.101257,958.972958 645.917182,955.518812 645.917182,951.271221 L645.917182,951.269388 Z" id="IB-Logo"></path>
        </g>
    </g>
</svg>