<?xml version="1.0" encoding="UTF-8"?>
<svg width="113px" height="27px" viewBox="0 0 113 27" version="1.1" xmlns="http://www.w3.org/2000/svg" xmlns:xlink="http://www.w3.org/1999/xlink">
    <title>Priority-Logo</title>
    <defs>
        <path d="M0,0 L113,0 L113,27 L0,27 L0,0 Z" id="path-1"></path>
    </defs>
    <g id="Priority-Logo" stroke="none" fill="none" xlink:href="#path-1" fill-rule="evenodd">
        <path d="M32.9423815,6.91893794 L32.9744143,12.7726624 C33.0969823,12.7871677 33.2202246,12.8201343 33.3432984,12.8287057 C34.3648104,12.900573 36.7440111,12.9333748 37.6490246,12.6007412 C40.2450375,11.6463565 40.1622577,7.87530066 37.6180033,7.0573979 C36.7384475,6.77454399 34.1415917,6.80338981 33.1492465,6.87459779 C33.0772568,6.87987246 33.0074588,6.88778445 32.9423815,6.91893794 M32.9806523,15.4844995 C32.9191155,15.6068058 33.017743,15.7052113 33.0184174,15.8407043 C33.0265099,17.3464563 32.9668276,18.876274 32.9745829,20.3910919 C32.9752573,20.5101015 33.0211149,20.6147707 33.018586,20.7299891 C33.0116737,21.0281725 32.8351556,21.2441041 32.5305059,21.279873 C32.1245312,21.3276746 30.8760914,21.3316306 30.4750059,21.2806971 C29.9142618,21.209654 30.1170805,20.6422978 30.110674,20.3127961 C30.0096861,15.0884052 30.1005583,9.84917923 30.0668395,4.61918397 C30.1253417,4.07193747 30.7612788,4.18913393 31.1751775,4.1835296 C32.2206299,4.1691891 33.3038473,4.17743077 34.3543575,4.18369443 C36.8938914,4.19885909 39.015986,4.02528965 40.9251463,5.98449806 C43.5159327,8.64342376 42.8066571,13.0886478 39.4769225,14.8048919 C37.457333,15.8459789 35.1781086,15.3737316 32.9806523,15.4844995 M64.7981298,10.4127937 C60.0872718,10.7607567 59.5990231,17.7004028 64.1080739,18.8349503 C66.7590485,19.5020306 69.3489919,18.0116081 69.6860117,15.3053752 C70.0670345,12.2463991 67.8850889,10.1848292 64.7981298,10.4127937 M64.5656385,7.7975488 C69.4639732,7.39782808 73.2787532,11.1690488 72.4319047,15.9810268 C71.426072,21.6967858 63.6904662,23.5167101 59.8832729,19.2509895 C56.1049092,15.0174115 58.8103396,8.26715882 64.5656385,7.7975488 M79.4929147,8.36373464 C79.9420496,8.32878999 80.465703,8.35499848 80.9143321,8.38466847 C81.0583115,8.39406397 81.2279172,8.31494399 81.3803263,8.46774445 L81.3924651,10.641401 C81.321487,10.8484316 80.2613669,10.7239824 80.0234805,10.7432679 C78.5941393,10.8596402 77.6430996,11.688422 77.4045389,13.0723622 C77.4038645,15.5751908 77.4109454,18.0776897 77.4038645,20.5805183 C77.4033587,20.7638129 77.5072127,20.9055695 77.325974,21.0690842 C77.1278759,21.2479283 76.898925,21.1297428 76.6902054,21.1267758 C76.1441289,21.1191935 75.5997384,21.1640281 75.0610801,21.1692282 C74.5315258,21.1742478 74.6927018,20.9621074 74.693882,20.61843 C74.7028175,18.1665349 74.6151485,15.7068926 74.6512277,13.2622502 C74.6932076,10.4117882 76.6404701,8.58560024 79.4929147,8.36373464 M84.2980337,8.06179303 C84.8822125,8.05140854 85.4820705,8.12541868 86.0697897,8.09014436 L86.3604461,8.37448177 L86.386241,20.8385154 C86.374608,21.0275791 86.2269195,21.2451591 86.0296643,21.2776312 C85.7423799,21.3249384 84.1894591,21.3249384 83.902006,21.2776312 C83.4410696,21.2019728 83.6073034,20.6764842 83.6108439,20.390993 C83.6575445,16.5820255 83.6617593,12.7125641 83.6108439,8.90227795 C83.6086522,8.74815883 83.5498128,8.61151204 83.5692012,8.44849192 C83.6169133,8.04629871 83.9621941,8.06772703 84.2980337,8.06179303 M86.0765672,3.47825743 C86.1424875,3.53496008 86.3837458,3.89479114 86.3980763,3.97869128 C86.4390447,4.21786437 86.429772,5.04829446 86.4022911,5.30526955 C86.3753161,5.5556513 86.1112976,5.91531753 85.8784691,6.00614067 C85.5559484,6.13190846 84.1770168,6.13833696 83.8984993,5.92982286 C83.7713793,5.83454922 83.5041575,5.37812586 83.4940419,5.2228529 C83.4883097,5.1331836 83.5331557,5.05241529 83.5329871,4.96357015 C83.5321442,4.4473123 83.399292,4.0050646 83.7649727,3.59858572 C83.8976563,3.45105994 84.1695987,3.26314999 84.3705629,3.25111716 C84.4472733,3.24666666 84.5413488,3.28111682 84.6366045,3.27847949 C85.0838848,3.26578732 85.7009394,3.15468969 86.0765672,3.47825743 M101.935411,8.13870424 L106.269123,17.1503047 C106.340607,17.1552497 106.346508,17.1023382 106.368931,17.0561849 C106.724159,16.3230065 106.99981,15.5537295 107.328063,14.8098369 C108.192108,12.852112 109.058514,10.8932333 109.934192,8.9432555 C110.072439,8.63534693 110.08913,8.25359304 110.457339,8.09007843 C110.676006,8.05760627 110.910689,8.09304543 111.114182,8.09106743 C111.559102,8.08661693 112.255228,8.03304611 112.667946,8.08760593 C112.909542,8.11958358 113.017442,8.34820735 112.997716,8.56298512 C112.981194,8.74133473 112.747017,9.08105613 112.665923,9.26402107 C111.063098,12.8862325 109.370919,16.4861914 107.677053,20.0787328 C106.601928,22.3590365 105.634198,25.2993326 102.768603,25.8549856 C102.150705,25.9748194 101.027194,26.0628404 100.41368,25.9817424 C100.193327,25.9525669 100.108018,25.7785029 100.085764,25.5821865 C100.042941,25.2055425 100.049179,24.3721454 100.084415,23.9887432 C100.102623,23.7912729 100.140894,23.5570448 100.378949,23.5186386 C100.970209,23.4230353 101.63683,23.5703963 102.303957,23.4296287 C103.712056,23.1324342 104.25122,21.4631676 104.818202,20.3507077 L104.797128,20.1796108 L99.1608564,8.51600763 L99.174344,8.39370134 C99.322201,8.25408754 99.3350142,8.12452858 99.5659882,8.09288059 C100.029791,8.02925494 101.248389,8.04689211 101.735121,8.08777076 C101.805256,8.09370476 101.87792,8.09040809 101.935411,8.13870424 M93.3787174,8.0513426 L97.3131993,8.12766041 C97.3199431,8.16540724 97.3718701,8.23595588 97.3718701,8.25985671 L97.3718701,10.3824149 L97.3137051,10.4392824 L93.4756591,10.4392824 C93.4063669,10.4879082 93.3879901,10.5261495 93.3768629,10.6080717 C93.3219012,11.0137264 93.413785,11.4561389 93.4193486,11.8588266 C93.436208,13.0960653 93.4291271,14.3397324 93.4193486,15.5771358 C93.412942,16.3925661 93.2681197,17.1323379 93.7890756,17.8653515 C94.3284083,18.6242439 95.0302658,18.7396272 95.9165653,18.7796817 C96.288484,18.7966595 96.8150036,18.7246274 97.1564067,18.7805059 C97.2941482,18.803088 97.4710035,18.9669323 97.4876943,19.1040736 C97.500676,19.2095669 97.448749,19.3005549 97.4479061,19.402257 C97.4448714,19.7693408 97.4450399,20.1375783 97.4475689,20.5048269 C97.4492548,20.7472966 97.5721599,21.228445 97.1607902,21.281851 C96.6674837,21.3459711 95.4709709,21.317455 94.9495092,21.2792136 C92.3288816,21.0873477 90.6695779,19.3036867 90.6249004,16.7484412 C90.5962394,15.1109873 90.6540672,13.4585336 90.667049,11.8245413 C90.6690721,11.5593246 90.712738,10.745213 90.647492,10.5510394 C90.6355219,10.5154354 90.6179881,10.482139 90.5876411,10.4579085 C89.9528841,10.4241177 89.3061569,10.4396121 88.6668479,10.4376341 C88.4879695,10.4371396 88.4198574,10.5391714 88.2603674,10.3454922 C88.04659,10.0858798 88.2485658,9.85511323 88.4341879,9.64198379 C88.4869579,9.58132515 88.5759756,9.55379799 88.6309373,9.49313934 C89.9791848,8.01079362 91.4373557,6.62520503 92.7957188,5.15027681 C92.9021017,5.00275102 93.3787174,4.98181719 93.3787174,5.18950713 L93.3787174,8.0513426 Z M47.4899837,11.5521213 C46.8624762,12.1677737 46.7859345,12.8699634 46.7800337,13.6783059 C46.7628371,16.0960805 46.811898,18.5150089 46.7508669,20.9319594 C46.6692673,21.2645929 46.4077778,21.127122 46.1788269,21.1267923 C45.582678,21.1256385 44.9823142,21.1642095 44.3939205,21.1693647 C43.8233979,21.1742643 44.0226762,20.7747084 44.0275654,20.4288882 C44.0611157,18.0109487 43.8552622,15.3338914 44.0241935,12.9584789 C44.172725,10.8670742 45.4085202,9.15890689 47.5066745,8.59303423 C48.2756325,8.38550912 49.7002531,8.25430183 50.481687,8.3536963 C50.6094814,8.36984996 50.6929355,8.43380527 50.7903829,8.50666158 L50.7939234,10.5148255 C50.7371072,10.6513074 50.6689951,10.7518557 50.5088307,10.7732841 C49.4372462,10.6575711 48.2817018,10.7754269 47.4899837,11.5521213 M53.2703693,8.06878197 C53.9339559,8.17163794 54.7555152,7.99922232 55.4007251,8.09284763 C55.8491856,8.15779194 55.7331928,8.46652468 55.7320126,8.75069726 C55.7151532,12.6783447 55.6864922,16.6157174 55.7320126,20.5427056 C55.7360589,20.8951191 55.8716086,21.2389613 55.3233404,21.3142902 C55.0036858,21.3583006 53.6210451,21.3642346 53.3201046,21.3086858 C53.1290874,21.2735763 53.0097227,21.0868202 52.944814,20.9177013 L52.9405991,8.44740402 L53.2703693,8.06878197 Z M55.4122906,5.9552896 C55.1939612,6.11385922 54.1176561,6.10429889 53.8155354,6.0795739 C53.3900037,6.04462924 53.1288514,5.86413679 52.9659894,5.46985558 C52.8719139,5.24222081 52.8641585,4.13783781 52.9526705,3.91069755 C53.0597278,3.63542596 53.3446519,3.37119821 53.6388487,3.2929024 C53.9197266,3.21790326 54.7463437,3.22630975 55.0385174,3.2919134 C55.3263076,3.35636321 55.5178306,3.49449351 55.6638331,3.74190826 C55.9108236,4.16009031 55.776454,4.31387976 55.7729136,4.73469913 C55.7705532,5.03189354 55.9023939,5.27716547 55.7108709,5.58392021 C55.6914826,5.61474404 55.431679,5.94127877 55.4122906,5.9552896" id="Type" fill="#14203B"></path>
        <path d="M10.363847,0.0553129714 C10.4599457,0.0386648097 10.5654857,0.0299286457 10.6809727,0.0299286457 C12.6609425,0.0299286457 14.7440919,-0.136058471 16.6810702,0.31377156 C17.4476678,0.491791507 18.1852673,0.778106921 18.8611613,1.17502547 C21.6237451,2.79747948 22.9306871,5.33343955 22.9724984,8.44779962 C22.9945843,10.092671 23.0402733,11.8563871 22.9758703,13.4925223 C22.8546511,16.5767178 21.2297406,19.0385029 18.5027301,20.5282662 C18.1092313,20.7432088 17.0421989,21.2115001 16.6247597,21.2728181 C16.196362,21.3357844 15.7318851,20.944635 15.6853531,20.5407935 C15.5912775,19.7217369 15.6865332,18.5576843 15.6838357,17.6964303 C15.6750688,14.7653649 15.6698424,11.8061129 15.68333,8.86449816 C15.6867018,8.11450672 15.849901,7.57813921 14.959218,7.22622015 C13.5135231,7.10193586 11.8530393,7.36270211 10.4328021,7.21682466 C9.66519285,7.13803435 9.40235456,6.54216202 9.36458947,5.87326856 C9.30709886,4.8577307 9.39207031,3.81417118 9.40640082,2.80308381 C9.42039413,1.80633695 9.11995934,0.27058524 10.363847,0.0553129714" id="Blue" fill="#3939DA"></path>
        <path d="M8.38918796,14.2033328 C9.95509051,14.096356 11.5617928,14.1690475 13.1302243,14.2109152 C13.7297451,14.226904 14.0551319,14.8135457 14.0972804,15.3466165 C14.2294582,17.0183557 14.0026991,18.6806993 14.0026991,20.3432078 C14.0332146,20.7604009 13.7329484,21.2049562 13.2974697,21.3142407 C11.8988126,21.4136352 10.3367877,21.1940772 8.95768746,21.3165484 C7.96045301,21.4050638 7.827938,22.3447784 7.83822225,23.12922 C7.8453032,23.6721808 7.85946511,24.2149768 7.87025514,24.7577728 C7.87581874,25.0378246 7.88053938,25.3178763 7.88306829,25.5980929 C7.88458564,25.7813875 7.94983158,26.1370978 7.88357408,26.2931949 C7.55144358,27.0754936 6.77827077,26.9695058 6.05921668,27 C4.69697588,27 3.33456648,27 1.97215708,27 C1.33537694,27 0.638745872,26.8379689 0.60300391,26.0764391 C0.515334948,24.2067352 0.472343437,21.5003375 1.10726904,19.7440388 C2.20329967,16.7127548 5.06670287,14.4301434 8.38918796,14.2033328" id="Violet" fill="#9F4CF5"></path>
        <path d="M6.60414672,0.177289601 C6.70429165,0.162949106 6.80258205,0.162454606 6.90356995,0.168223771 C7.67117915,0.212234258 7.62009512,0.955962034 7.61992653,1.49529654 C7.61992653,2.32918812 7.62093809,3.16307971 7.62211825,3.99697129 C7.62447857,5.66211712 7.62700748,7.32742779 7.62026372,8.99257362 C7.62009512,9.02586995 7.62009512,9.05900144 7.61992653,9.09229776 C7.61638605,9.93492551 7.70017735,10.971562 7.62262404,11.7861681 C7.58941099,12.1366037 7.28004071,12.5234674 6.92413844,12.6194004 C5.28725774,13.0613184 3.64161016,13.692465 2.353045,14.8214082 C2.00725838,15.1243718 1.28769851,16.033757 0.928424356,16.1954585 C0.423822038,16.4225987 0.0653908558,15.952659 0.0205448095,15.50184 C-0.042509406,14.8649242 0.0593214661,14.0946583 0.0633677259,13.4546106 C0.076180882,11.4520511 -0.0236268602,9.4148765 0.0962435869,7.42187726 C0.219823106,5.36508754 1.15585788,3.75054553 2.63999226,2.32819912 C3.50707202,1.49710971 5.40325053,0.349540383 6.60414672,0.177289601" id="Teal" fill="#5ECDF5"></path>
    </g>
</svg>