<?xml version="1.0" encoding="utf-8"?>
<!-- Generator: Adobe Illustrator 23.0.1, SVG Export Plug-In . SVG Version: 6.00 Build 0)  -->
<svg version="1.1" id="Layer_1" inkscapeVersion="0.91 r13725" sodipodiDocname="logo-src.svg" xmlnsCc="http://creativecommons.org/ns#" xmlnsDc="http://purl.org/dc/elements/1.1/" xmlnsInkscape="http://www.inkscape.org/namespaces/inkscape" xmlnsRdf="http://www.w3.org/1999/02/22-rdf-syntax-ns#" xmlnsSodipodi="http://sodipodi.sourceforge.net/DTD/sodipodi-0.dtd" xmlnsSvg="http://www.w3.org/2000/svg" xmlns="http://www.w3.org/2000/svg" xmlnsXlink="http://www.w3.org/1999/xlink" x="0px" y="0px" viewBox="0 0 122.8 39.5" style="enable-background:new 0 0 122.8 39.5;" xmlSpace="preserve">
  <style type="text/css">
	.st0{fill:url(#SVGID_1_);}
	.st1{fill:url(#SVGID_2_);}
	.st2{fill:url(#SVGID_3_);}
	.st3{fill:url(#SVGID_4_);}
	.st4{fill:url(#SVGID_5_);}
	.st5{fill:url(#SVGID_6_);}
	.st6{fill:url(#SVGID_7_);}
	.st7{fill:url(#SVGID_8_);}
	.st8{fill:url(#SVGID_9_);}
	.st9{fill:url(#SVGID_10_);}
	.st10{fill:url(#SVGID_11_);}
</style>
  <sodipodiNamedview bordercolor="#666666" borderopacity="1" gridtolerance="10" guidetolerance="10" id="namedview136" inkscapeCurrent-layer="g3" inkscapeCx="70.478896" inkscapeCy="63.997827" inkscapePageopacity="0" inkscapePageshadow="2" inkscapeWindow-height="1018" inkscapeWindow-maximized="1" inkscapeWindow-width="1920" inkscapeWindow-x="-8" inkscapeWindow-y="-8" inkscapeZoom="5.12" objecttolerance="10" pagecolor="#ffffff" showgrid="false"></sodipodiNamedview>
  <g>
    <linearGradient id="SVGID_1_" gradientUnits="userSpaceOnUse" x1="7.2351" y1="20.9497" x2="135.7057" y2="21.8321">
      <stop offset="0" style="stop-color:#C81F49" />
      <stop offset="1.252037e-02" style="stop-color:#CB2249" />
      <stop offset="8.714130e-02" style="stop-color:#D73049" />
      <stop offset="0.1785" style="stop-color:#DE3949" />
      <stop offset="0.3347" style="stop-color:#E03B49" />
      <stop offset="0.497" style="stop-color:#E4523C" />
      <stop offset="0.7936" style="stop-color:#EB7925" />
      <stop offset="1" style="stop-color:#EB7925" />
    </linearGradient>
    <path class="st0" d="M78.6,31.7L78.6,31.7c-1.3,0-2.2-1-2.2-2.2V13.4c0-1.2,1-2.2,2.2-2.2h0.1c1.2,0,2.2,1,2.2,2.2v16.1
		C80.8,30.7,79.8,31.7,78.6,31.7z" />
    <linearGradient id="SVGID_2_" gradientUnits="userSpaceOnUse" x1="7.2222" y1="22.823" x2="135.6928" y2="23.7054">
      <stop offset="0" style="stop-color:#C81F49" />
      <stop offset="1.252037e-02" style="stop-color:#CB2249" />
      <stop offset="8.714130e-02" style="stop-color:#D73049" />
      <stop offset="0.1785" style="stop-color:#DE3949" />
      <stop offset="0.3347" style="stop-color:#E03B49" />
      <stop offset="0.497" style="stop-color:#E4523C" />
      <stop offset="0.7936" style="stop-color:#EB7925" />
      <stop offset="1" style="stop-color:#EB7925" />
    </linearGradient>
    <path class="st1" d="M85.5,31.7H85c-1.1,0-2-0.9-2-2V17c0-1.1,0.9-2,2-2h0.5c1.1,0,2,0.9,2,2v12.7C87.4,30.8,86.5,31.7,85.5,31.7z" />
    <linearGradient id="SVGID_3_" gradientUnits="userSpaceOnUse" x1="7.2359" y1="20.8311" x2="135.7065" y2="21.7135">
      <stop offset="0" style="stop-color:#C81F49" />
      <stop offset="1.252037e-02" style="stop-color:#CB2249" />
      <stop offset="8.714130e-02" style="stop-color:#D73049" />
      <stop offset="0.1785" style="stop-color:#DE3949" />
      <stop offset="0.3347" style="stop-color:#E03B49" />
      <stop offset="0.497" style="stop-color:#E4523C" />
      <stop offset="0.7936" style="stop-color:#EB7925" />
      <stop offset="1" style="stop-color:#EB7925" />
    </linearGradient>
    <path class="st2" d="M102.5,24.7l0-11.3c0,0,0-2.1,2.1-2.1c0.4,0,2.2,0.2,2.3,2s0,1.9,0,1.9l7.6,0c0,0,2,0,2,2.3
		c0,0.6-0.1,2.1-2,2.1c-1.8,0-7.6,0-7.6,0v5c0,0,0,2.4,2.5,2.7c0.6,0,1.8-0.1,2.5-1.4c0.3-0.5,0.3-1.1,0.3-1.4c0-0.3-0.2-2.1,2-2.4
		c0.6,0,2.4,0.1,2.3,2.7c0,0.6-0.2,3.9-3.4,5.8c-0.9,0.5-2.9,1.6-6,0.5C103.9,30.1,102.6,27.7,102.5,24.7z" />
    <linearGradient id="SVGID_4_" gradientUnits="userSpaceOnUse" x1="7.2227" y1="22.755" x2="135.6933" y2="23.6374">
      <stop offset="0" style="stop-color:#C81F49" />
      <stop offset="1.252037e-02" style="stop-color:#CB2249" />
      <stop offset="8.714130e-02" style="stop-color:#D73049" />
      <stop offset="0.1785" style="stop-color:#DE3949" />
      <stop offset="0.3347" style="stop-color:#E03B49" />
      <stop offset="0.497" style="stop-color:#E4523C" />
      <stop offset="0.7936" style="stop-color:#EB7925" />
      <stop offset="1" style="stop-color:#EB7925" />
    </linearGradient>
    <path class="st3" d="M90.7,27.2c0,0,0.9,0.1,1.4-0.5c0.5-0.6,0.7-0.6,0.7-1.7c0-1.1,0-3.6,0-3.6s0-1.6,0.7-2.9
		c0.7-1.3,1.8-2.4,3.3-3c1.5-0.5,2.5-0.4,2.7-0.3c0.2,0,1.7,0.4,1.8,2c0,0.4,0,1.7-1.5,2.2c-0.3,0.1-0.7,0.2-0.9,0.2
		s-1.6,0.3-1.6,2.1s0,3.6,0,4c0,0.4-0.2,2.1-1.2,3.4c-1.1,1.3-2.2,2-3.6,2.3c-1.4,0.3-2.7,0.3-3.4-0.8c-0.3-0.5-0.4-1.3-0.2-2
		s0.8-1.2,1.3-1.4C90.2,27.2,90.7,27.2,90.7,27.2z" />
    <linearGradient id="SVGID_5_" gradientUnits="userSpaceOnUse" x1="7.2321" y1="21.3788" x2="135.7027" y2="22.2612">
      <stop offset="0" style="stop-color:#C81F49" />
      <stop offset="1.252037e-02" style="stop-color:#CB2249" />
      <stop offset="8.714130e-02" style="stop-color:#D73049" />
      <stop offset="0.1785" style="stop-color:#DE3949" />
      <stop offset="0.3347" style="stop-color:#E03B49" />
      <stop offset="0.497" style="stop-color:#E4523C" />
      <stop offset="0.7936" style="stop-color:#EB7925" />
      <stop offset="1" style="stop-color:#EB7925" />
    </linearGradient>
    <path class="st4" d="M11.9,15.7H8.6c0,0-2.2,0.2-2.3-2.2c0-0.4,0.1-2.2,2.5-2.2s10.8,0,10.8,0s2.2-0.2,2.3,2.4c0,0.5-0.6,2.1-2.3,2
		c-1.7,0-3.5,0-3.5,0v13.3c0,0,0,2.5-2.2,2.4c-0.7,0-2.2,0-2.2-2.3S11.9,15.7,11.9,15.7z" />
    <linearGradient id="SVGID_6_" gradientUnits="userSpaceOnUse" x1="7.2195" y1="23.2158" x2="135.6901" y2="24.0981">
      <stop offset="0" style="stop-color:#C81F49" />
      <stop offset="1.252037e-02" style="stop-color:#CB2249" />
      <stop offset="8.714130e-02" style="stop-color:#D73049" />
      <stop offset="0.1785" style="stop-color:#DE3949" />
      <stop offset="0.3347" style="stop-color:#E03B49" />
      <stop offset="0.497" style="stop-color:#E4523C" />
      <stop offset="0.7936" style="stop-color:#EB7925" />
      <stop offset="1" style="stop-color:#EB7925" />
    </linearGradient>
    <path class="st5" d="M25.2,22.1l0,7.1c0,0,0.1,2.1-1.9,2.3c-0.4,0-2.4,0.1-2.4-2.1s0-7.4,0-7.4s-0.1-2.2,1.4-4.2
		c1.5-2,3.6-2.5,4.7-2.6c1.1-0.2,2.7-0.1,3,1.8c0.1,0.6,0,2-1.4,2.3c-0.5,0.1-1.2,0.2-1.8,0.4C26.1,19.9,25.1,20.6,25.2,22.1z" />
    <linearGradient id="SVGID_7_" gradientUnits="userSpaceOnUse" x1="7.2197" y1="23.1976" x2="135.6902" y2="24.08">
      <stop offset="0" style="stop-color:#C81F49" />
      <stop offset="1.252037e-02" style="stop-color:#CB2249" />
      <stop offset="8.714130e-02" style="stop-color:#D73049" />
      <stop offset="0.1785" style="stop-color:#DE3949" />
      <stop offset="0.3347" style="stop-color:#E03B49" />
      <stop offset="0.497" style="stop-color:#E4523C" />
      <stop offset="0.7936" style="stop-color:#EB7925" />
      <stop offset="1" style="stop-color:#EB7925" />
    </linearGradient>
    <path class="st6" d="M46,21.5c-0.8-3.7-4.1-6.5-8.1-6.5c-4.6,0-8.3,3.7-8.3,8.3c0,4.6,3.7,8.3,8.3,8.3c1.5,0,2.9-0.4,4.1-1.1
		c0.6,1.6,1.8,1.5,2.4,1.5c1.8-0.1,1.9-2,1.9-2s0-4.8,0-6.3C46.3,22.6,46.1,21.8,46,21.5z M37.8,27.2c-2.2,0-4-1.8-4-4
		c0-2.2,1.8-4,4-4s4,1.8,4,4C41.8,25.4,40.1,27.2,37.8,27.2z" />
    <linearGradient id="SVGID_8_" gradientUnits="userSpaceOnUse" x1="7.2212" y1="22.9746" x2="135.6918" y2="23.857">
      <stop offset="0" style="stop-color:#C81F49" />
      <stop offset="1.252037e-02" style="stop-color:#CB2249" />
      <stop offset="8.714130e-02" style="stop-color:#D73049" />
      <stop offset="0.1785" style="stop-color:#DE3949" />
      <stop offset="0.3347" style="stop-color:#E03B49" />
      <stop offset="0.497" style="stop-color:#E4523C" />
      <stop offset="0.7936" style="stop-color:#EB7925" />
      <stop offset="1" style="stop-color:#EB7925" />
    </linearGradient>
    <path class="st7" d="M74.5,20.1l-1.8,3.7c0,0-0.8,1.8-2.8,1c-0.3-0.1-1.8-0.9-1.3-2.1s1.3-2.9,1.3-2.9S68.7,19,66.5,20
		c-2.1,1-2.1,3.2-1.9,4.1c0.2,0.9,0.8,2.3,2.5,2.9c0.7,0.2,1.9,0.6,3.6-0.4c0.2-0.2,1.2-1.2,2.6-0.4c0.4,0.3,1.5,1.1,1.2,2.4
		c-0.2,0.6-0.4,1.4-2.5,2.4c-0.6,0.3-3.8,1.8-7.4-0.3c-0.8-0.4-3.2-1.9-4.2-5.2C60,24.2,59.6,22,61.1,19c0.2-0.3,1.3-2.7,5.4-3.7
		c0.6-0.1,2.9-0.5,5.4,0.6c0.6,0.3,1.5,0.9,2.2,1.6s0.9,1.4,0.7,2.3C74.6,20,74.5,20.1,74.5,20.1z" />
    <linearGradient id="SVGID_9_" gradientUnits="userSpaceOnUse" x1="7.2197" y1="23.1874" x2="135.6903" y2="24.0697">
      <stop offset="0" style="stop-color:#C81F49" />
      <stop offset="1.252037e-02" style="stop-color:#CB2249" />
      <stop offset="8.714130e-02" style="stop-color:#D73049" />
      <stop offset="0.1785" style="stop-color:#DE3949" />
      <stop offset="0.3347" style="stop-color:#E03B49" />
      <stop offset="0.497" style="stop-color:#E4523C" />
      <stop offset="0.7936" style="stop-color:#EB7925" />
      <stop offset="1" style="stop-color:#EB7925" />
    </linearGradient>
    <path class="st8" d="M53.1,24c0,0,1.8-2.6,3.3-3.8c1.5-1.2,2.4-2.1,3.1-1.7C59.4,18.7,55,30.2,55,30.2s-0.5,1.8-2.1,1.7
		c-0.3,0-1.3,0-1.9-1.7c-0.6-1.6-4.7-12.4-4.7-12.4s-0.8-1.6,1-2.6c0.5-0.2,2.4-1,3.2,1.3C51.3,18.9,53.1,24,53.1,24z" />
    <linearGradient id="SVGID_10_" gradientUnits="userSpaceOnUse" x1="7.273" y1="15.4261" x2="135.7436" y2="16.3084">
      <stop offset="0" style="stop-color:#C81F49" />
      <stop offset="1.252037e-02" style="stop-color:#CB2249" />
      <stop offset="8.714130e-02" style="stop-color:#D73049" />
      <stop offset="0.1785" style="stop-color:#DE3949" />
      <stop offset="0.3347" style="stop-color:#E03B49" />
      <stop offset="0.497" style="stop-color:#E4523C" />
      <stop offset="0.7936" style="stop-color:#EB7925" />
      <stop offset="1" style="stop-color:#EB7925" />
    </linearGradient>
    <path class="st9" d="M53.4,24l-0.1-0.3c0,0,0.7-4.4,3.8-8.3s6.7-5.4,8.2-6L63.7,8c0,0-0.2-0.1-0.1-0.3c0.1-0.2,0.4-0.1,0.7,0
		c0.3,0.1,3,0.8,3,0.8l1-0.5c0,0,0.8-0.3,1.1,0.4c0.1,0.2,0.3,0.7-0.2,1c-0.5,0.3-1.2,0.6-1.2,0.6l-1.2,3.1c0,0,0,0.4-0.4,0.4
		c-0.1,0-0.2-0.1-0.2-0.4c0-0.3-0.2-1.9-0.2-1.9s-2,0.8-3.9,2.1s-4.4,3.2-5.9,5.3c-1.6,2.1-2.6,4-2.9,5.1C53.4,23.8,53.4,24,53.4,24
		z" />
    <linearGradient id="SVGID_11_" gradientUnits="userSpaceOnUse" x1="7.2543" y1="18.1589" x2="135.7249" y2="19.0413">
      <stop offset="0" style="stop-color:#C81F49" />
      <stop offset="1.252037e-02" style="stop-color:#CB2249" />
      <stop offset="8.714130e-02" style="stop-color:#D73049" />
      <stop offset="0.1785" style="stop-color:#DE3949" />
      <stop offset="0.3347" style="stop-color:#E03B49" />
      <stop offset="0.497" style="stop-color:#E4523C" />
      <stop offset="0.7936" style="stop-color:#EB7925" />
      <stop offset="1" style="stop-color:#EB7925" />
    </linearGradient>
    <path class="st10" d="M53.5,23.5l0.1-0.1c0,0,0.7-1.3,1.1-1.9c0.4-0.6,1.6-2.3,2.5-3.3c0.9-1,1.2-1.2,1.5-1.6
		c0.3-0.3,1.2-1.1,1.9-1.6c0.7-0.5,1.8-1.3,2.3-1.6c0.2-0.1,0.6-0.3,0.6,0.3c0,0.2-0.3,1.3-0.3,1.3s-0.8,0.4-1.8,1
		c-1,0.7-2.2,1.5-3,2c-0.7,0.6-2,1.6-2.9,2.7C54.6,21.7,53.5,23.3,53.5,23.5l0.1,0.2L53.5,23.5z" />
  </g>
</svg>
