<?xml version="1.0" encoding="UTF-8"?>
<svg width="48px" height="49px" viewBox="0 0 48 49" version="1.1" xmlns="http://www.w3.org/2000/svg" xmlns:xlink="http://www.w3.org/1999/xlink">
    <title>Call</title>
    <g id="Call" stroke="none" fill="none" transform="translate(0, 0.7536)" fill-rule="nonzero">
        <path d="M6.12,9.07 L7.65,10.36 C4.51,14.08 2.61,18.88 2.61,24.12 C2.61,29.32 4.48,34.1 7.58,37.81 L6.05,39.1 C2.66,35.04 0.61,29.84 0.61,24.12 C0.61,18.4 2.68,13.15 6.12,9.07 Z M10.04,12.37 L11.57,13.66 C9.18,16.49 7.74,20.14 7.74,24.12 C7.74,28.07 9.16,31.69 11.51,34.51 L9.98,35.8 C7.33,32.63 5.74,28.59 5.74,24.12 C5.74,19.65 7.36,15.55 10.04,12.37 Z M41.89,9.07 C45.32,13.14 47.39,18.42 47.39,24.12 C47.39,29.82 45.34,35.04 41.95,39.1 L40.42,37.81 C43.52,34.1 45.39,29.32 45.39,24.12 L45.4,24.12 C45.4,18.88 43.5,14.08 40.36,10.36 Z M37.96,12.37 C40.64,15.55 42.26,19.68 42.26,24.12 C42.26,28.56 40.66,32.63 38.02,35.8 L36.49,34.51 C38.84,31.69 40.26,28.07 40.26,24.12 C40.26,20.14 38.82,16.49 36.43,13.66 Z M28.33,6.25 C31.06,6.25 33.27,8.47 33.27,11.19 L33.27,37.06 C33.27,39.79 31.05,42 28.33,42 L28.33,42.01 L19.66,42.01 C16.93,42.01 14.72,39.79 14.72,37.07 L14.72,11.19 C14.72,8.46 16.94,6.25 19.66,6.25 L28.33,6.25 Z M19.67,8.24 C18.05,8.24 16.73,9.56 16.73,11.18 L16.73,37.05 C16.73,38.67 18.05,39.99 19.67,39.99 L28.34,39.99 C29.96,39.99 31.28,38.67 31.28,37.05 L31.28,11.19 C31.28,9.57 29.96,8.25 28.34,8.25 L19.67,8.25 L19.67,8.24 Z M26,10.19 C26.55,10.19 27,10.64 27,11.19 C27,11.74 26.55,12.19 26,12.19 L21.99,12.19 C21.44,12.19 20.99,11.74 20.99,11.19 C20.99,10.64 21.44,10.19 21.99,10.19 L26,10.19 Z" id="Combined-Shape" fill="#000000"></path>
    </g>
</svg>