<?xml version="1.0" encoding="UTF-8"?>
<svg width="151px" height="44px" viewBox="0 0 151 44" version="1.1" xmlns="http://www.w3.org/2000/svg" xmlns:xlink="http://www.w3.org/1999/xlink">
    <title>Logo-W</title>
    <g id="Site" stroke="none" stroke-width="1" fill="none" fill-rule="evenodd">
        <g id="Desktop" transform="translate(-1229, -60)" fill="#FFFFFF">
            <g id="Logo-W" transform="translate(1229, 60)">
                <path d="M0,5.12391688 L0,10.7856499 L9.34440722,10.7856499 L9.34440722,40.0992158 L16.3756818,40.0992158 L16.3756818,10.7856499 L25.7190081,10.7856499 L25.7190081,5.12391688 L0,5.12391688 Z M36.3427723,39.197824 C34.3841759,38.3632817 32.8341608,37.15891 31.6959699,35.5890218 C30.5577789,34.0191335 29.9708485,32.1645952 29.9384215,30.026485 L37.4733969,30.026485 C37.57284,31.4648304 38.0830262,32.600196 39.0050366,33.4347383 C39.9248851,34.2692805 41.1906226,34.6876299 42.7979255,34.6876299 C44.4387364,34.6876299 45.7282538,34.2951578 46.6653968,33.5102137 C47.6025398,32.7252696 48.0738135,31.6988042 48.0738135,30.428661 C48.0738135,29.3924917 47.7538662,28.5417761 47.1182952,27.8722015 C46.4805624,27.2047834 45.6860986,26.6775338 44.7327421,26.2947657 C43.7772237,25.9098412 42.4617647,25.4839443 40.7885267,25.0159969 C38.509983,24.3485787 36.6605578,23.6887081 35.2380893,23.036385 C33.813459,22.3851402 32.5920385,21.4018036 31.5705851,20.0799059 C30.5491317,18.7623211 30.0389454,16.9983533 30.0389454,14.7944717 C30.0389454,12.7221329 30.5577789,10.9204274 31.5965268,9.38288571 C32.6331129,7.84642227 34.0901702,6.66792786 35.9655371,5.84955891 C37.8409039,5.03118996 39.9843348,4.6225446 42.3958296,4.6225446 C46.0136122,4.6225446 48.9515068,5.50021564 51.2127561,7.25232307 C53.4718435,9.00658694 54.7192057,11.4541462 54.9537617,14.5928445 L47.2177383,14.5928445 C47.1518032,13.3917075 46.6416169,12.3986669 45.6860986,11.6126446 C44.7327421,10.8277005 43.4670045,10.4352284 41.8932096,10.4352284 C40.5204627,10.4352284 39.4222652,10.7856499 38.6040215,11.4875711 C37.7825352,12.188414 37.371792,13.2073319 37.371792,14.5432464 C37.371792,15.4802196 37.6820112,16.2554597 38.3013687,16.8732797 C38.921807,17.492178 39.6903291,17.9935503 40.6123395,18.3773966 C41.5332689,18.7623211 42.8314335,19.2043913 44.5057524,19.7036071 C46.7832152,20.3731817 48.6423685,21.0416781 50.0821315,21.7090963 C51.5208135,22.3786708 52.7606093,23.379259 53.7993572,24.7151735 C54.8370242,26.051088 55.3569385,27.8064301 55.3569385,29.9768869 C55.3569385,31.8475985 54.8705321,33.5856891 53.8988003,35.1890022 C52.9270684,36.7923152 51.5045999,38.0700059 49.6292331,39.0209959 C47.7538662,39.9741423 45.5272058,40.4496373 42.9481711,40.4496373 C40.5031683,40.4496373 38.3013687,40.0323662 36.3427723,39.197824 M79.5439827,33.1839443 C80.4995011,32.3817487 80.9761793,31.2463831 80.9761793,29.775691 C80.9761793,28.2737306 80.4735594,27.0963144 79.4704813,26.2434425 C78.4652414,25.3916487 77.1087081,24.9657518 75.3998003,24.9657518 L68.4679688,24.9657518 L68.4679688,34.3872378 L75.5511267,34.3872378 C77.2589536,34.3872378 78.5906262,33.98614 79.5439827,33.1839443 L79.5439827,33.1839443 Z M68.4679688,19.5541658 L74.8971803,19.5541658 C76.5725801,19.5541658 77.8631784,19.1789453 78.7657325,18.4263478 C79.6693675,17.6748285 80.1222659,16.5987649 80.1222659,15.1938443 C80.1222659,13.7910802 79.6693675,12.7063909 78.7657325,11.9376201 C77.8631784,11.1688492 76.5725801,10.7850029 74.8971803,10.7850029 L68.4679688,10.7850029 L68.4679688,19.5541658 Z M86.2012649,25.1167026 C87.4724069,26.7200157 88.1090588,28.5583807 88.1090588,30.6274848 C88.1090588,32.5003529 87.649675,34.1446383 86.7276647,35.5635758 C85.8056543,36.9846697 84.4750626,38.094158 82.7348087,38.8952754 C80.9923929,39.6974711 78.9321916,40.0985689 76.5563666,40.0985689 L61.4356133,40.0985689 L61.4356133,5.12326995 L75.9024202,5.12326995 C78.280407,5.12326995 80.3308802,5.50711625 82.0570824,6.27588708 C83.7811229,7.04465791 85.0868538,8.11317389 85.9731943,9.48251323 C86.8606158,10.8518526 87.3059478,12.4055675 87.3059478,14.1436581 C87.3059478,16.1804156 86.7611727,17.8850814 85.6727033,19.2544207 C84.5842338,20.62376 83.1358237,21.5930798 81.3285537,22.1602235 C83.3044446,22.5278965 84.927961,23.5133895 86.2012649,25.1167026 L86.2012649,25.1167026 Z" id="Type"></path>
                <path d="M151.00054,0 L151.00054,44 L139.253286,44 L139.253286,11.7180945 L106.889966,11.7180945 L106.889966,0 L151.00054,0 Z M119.587875,31.3352284 L119.587875,44 L106.890507,44 L106.890507,31.3352284 L119.587875,31.3352284 Z M135.745971,15.216487 L135.745971,43.9995687 L123.094001,43.9995687 L123.094001,27.8370516 L106.890182,27.8370516 L106.890182,15.216487 L135.745971,15.216487 Z" id="Icon"></path>
            </g>
        </g>
    </g>
</svg>