<?xml version="1.0" encoding="UTF-8"?>
<svg width="48px" height="49px" viewBox="0 0 48 49" version="1.1" xmlns="http://www.w3.org/2000/svg" xmlns:xlink="http://www.w3.org/1999/xlink">
    <title>Mail</title>
    <g id="Mail" stroke="none" fill="none" transform="translate(0, 0.7536)" fill-rule="nonzero">
        <path d="M43.81,9.29 L3.19,9.29 L3.19,38.71 L44.81,38.71 L44.81,9.29 L43.81,9.29 L43.81,9.29 Z M33.71,26.15 L32.29,27.56 L41.4,36.7 L6.6,36.7 L15.71,27.56 L14.29,26.15 L5.19,35.29 L5.19,12.66 L20.89,27.92 C21.76,28.77 22.88,29.19 24,29.19 C25.12,29.19 26.24,28.77 27.11,27.92 L42.81,12.66 L42.81,35.29 L33.71,26.15 Z M41.34,11.29 L25.71,26.48 C24.75,27.42 23.24,27.42 22.28,26.48 L6.66,11.29 L41.35,11.29 L41.34,11.29 Z" id="Shape" fill="#0D0D0D"></path>
    </g>
</svg>