<?xml version="1.0" encoding="UTF-8"?>
<svg width="16px" height="16px" viewBox="0 0 16 16" version="1.1" xmlns="http://www.w3.org/2000/svg" xmlns:xlink="http://www.w3.org/1999/xlink">
    <title>Link</title>
    <g id="Page-1" stroke="none" stroke-width="1" fill="none" fill-rule="evenodd">
        <g id="Impact" transform="translate(-834, -1024)" fill="#A4F1F6">
            <g id="Group" transform="translate(634, 110)">
                <g id="Link" transform="translate(201.6, 915.6)">
                    <path d="M11.7333333,-1.13686838e-13 C12.3224371,-1.13686838e-13 12.8,0.477562934 12.8,1.06666667 L12.8,11.7333333 C12.8,12.3224371 12.3224371,12.8 11.7333333,12.8 C11.1442296,12.8 10.6666667,12.3224371 10.6666667,11.7333333 L10.666,3.642 L2.26535834,12.0431361 C1.8487991,12.4596954 1.17342312,12.4596954 0.756863878,12.0431361 C0.340304633,11.6265769 0.340304633,10.9512009 0.756863878,10.5346417 L9.157,2.133 L1.06666667,2.13333333 C0.514381917,2.13333333 0.0601310729,1.71360029 0.00550707975,1.17572714 L2.84217094e-14,1.06666667 C2.84217094e-14,0.477562934 0.477562934,-1.13686838e-13 1.06666667,-1.13686838e-13 L11.7333333,-1.13686838e-13 Z" id="Combined-Shape"></path>
                </g>
            </g>
        </g>
    </g>
</svg>