<?xml version="1.0" encoding="UTF-8"?>
<svg width="24px" height="24px" viewBox="0 0 24 24" version="1.1" xmlns="http://www.w3.org/2000/svg" xmlns:xlink="http://www.w3.org/1999/xlink">
    <title>Phone</title>
    <g id="Page-1" stroke="none" stroke-width="1" fill="none" fill-rule="evenodd">
        <g id="Desktop" transform="translate(-344, -693)" fill="#FFFFFF" fill-rule="nonzero">
            <g id="Display" transform="translate(58, 0)">
                <g id="Name" transform="translate(0, 548)">
                    <g id="Contacts" transform="translate(275, 134)">
                        <g id="Phone" transform="translate(14.0001, 13.0001)">
                            <path d="M0.0206465746,3.43241499 C0.317009636,5.97423178 1.78328746,9.5674181 5.51170742,13.2958381 C9.23897645,17.0236826 12.8321628,18.4905358 15.374555,18.7863234 C18.0533318,19.0976485 18.9596849,15.7921933 18.7864707,15.3375781 C18.6132566,14.8835384 15.7042949,13.1790192 15.047117,12.8026669 C14.3899391,12.4257391 13.7943357,12.4314938 12.9253877,12.9678246 C12.0575906,13.5030045 11.2450379,14.0951551 9.77300542,12.9839375 C8.30039751,11.8721444 7.63746499,11.169505 7.63746499,11.169505 C7.63746499,11.169505 6.93482558,10.505997 5.82360796,9.03396459 C4.71239035,7.56193214 5.30396555,6.74937944 5.83914544,5.88100689 C6.3749008,5.01263435 6.38123089,4.41645545 6.00487857,3.75927756 C5.62852626,3.10267512 3.92343159,0.19428888 3.46939187,0.0204992791 C3.01477669,-0.15271486 -0.290678506,0.753638193 0.0206465746,3.43241499" id="Color"></path>
                        </g>
                    </g>
                </g>
            </g>
        </g>
    </g>
</svg>