<?xml version="1.0" encoding="UTF-8"?>
<svg width="24px" height="24px" viewBox="0 0 24 24" version="1.1" xmlns="http://www.w3.org/2000/svg" xmlns:xlink="http://www.w3.org/1999/xlink">
    <title>Science</title>
    <g id="Page-1" stroke="none" stroke-width="1" fill="none" fill-rule="evenodd">
        <g id="Desktop" transform="translate(-601, -132)" fill="#A4F1F6">
            <g id="Group-2" transform="translate(581, 112)">
                <g id="Science" transform="translate(22.6664, 22.6667)">
                    <path d="M15.5466626,15.544 C15.2439959,15.8466667 14.7706626,16 14.1399959,16 C13.4826626,16 12.7346626,15.824 11.9479959,15.528 C12.5999959,15.0173333 13.2426626,14.4653333 13.8546626,13.852 C14.4639959,13.244 15.0093293,12.6053333 15.5199959,11.956 C15.5613293,12.064 15.6226626,12.1773333 15.6586626,12.284 C16.1519959,13.7626667 16.1093293,14.9813333 15.5466626,15.544 M4.5306626,16 C3.89999593,16 3.42799593,15.8466667 3.12532926,15.544 C2.56132926,14.9813333 2.51999593,13.7626667 3.01332926,12.284 C3.04799593,12.1773333 3.1106626,12.064 3.1506626,11.956 C3.66132926,12.6053333 4.20799593,13.244 4.81599593,13.852 C5.42932926,14.4653333 6.0706626,15.0173333 6.7226626,15.528 C5.93599593,15.824 5.18799593,16 4.5306626,16 M3.01332926,6.38133333 C2.51999593,4.904 2.56132926,3.68533333 3.12532926,3.12266667 C3.42799593,2.82 3.89999593,2.66666667 4.5306626,2.66666667 C5.18799593,2.66666667 5.93599593,2.84133333 6.7226626,3.13866667 C6.0706626,3.64933333 5.42932926,4.2 4.81599593,4.81333333 C4.20799593,5.42266667 3.66132926,6.06133333 3.1506626,6.71066667 C3.1106626,6.60266667 3.04799593,6.488 3.01332926,6.38133333 M14.1426626,9.33333333 C13.5306626,10.24 12.7999959,11.1373333 11.9693293,11.9666667 C11.1293293,12.808 10.2333293,13.536 9.33599593,14.144 C8.4386626,13.536 7.54132926,12.808 6.70132926,11.9666667 C5.87199593,11.1373333 5.14132926,10.24 4.52932926,9.33333333 C5.14132926,8.42666667 5.87199593,7.52933333 6.70132926,6.69866667 C7.54132926,5.85866667 8.4386626,5.13066667 9.33599593,4.52266667 C10.2333293,5.13066667 11.1293293,5.85866667 11.9693293,6.69866667 C12.7999959,7.52933333 13.5306626,8.42666667 14.1426626,9.33333333 M14.1399959,2.66666667 C14.7706626,2.66666667 15.2439959,2.82 15.5466626,3.12266667 C16.1093293,3.68533333 16.1519959,4.904 15.6586626,6.38133333 C15.6226626,6.488 15.5613293,6.60266667 15.5199959,6.71066667 C15.0093293,6.06133333 14.4639959,5.42266667 13.8546626,4.81333333 C13.2426626,4.2 12.5999959,3.64933333 11.9479959,3.13866667 C12.7346626,2.84133333 13.4826626,2.66666667 14.1399959,2.66666667 M17.2439959,9.33333333 C17.6226626,8.62666667 17.9573293,7.92 18.1879959,7.22533333 C19.0319959,4.69466667 18.7639959,2.568 17.4319959,1.23733333 C16.6239959,0.428 15.4853293,0 14.1399959,0 C12.6879959,0 11.0199959,0.512 9.33599593,1.41466667 C7.6506626,0.512 5.9826626,0 4.5306626,0 C3.1866626,0 2.04799593,0.428 1.23999593,1.23733333 C-0.09200407,2.568 -0.361337403,4.69466667 0.482662597,7.22533333 C0.714662597,7.92 1.04799593,8.62666667 1.42799593,9.33333333 C1.04799593,10.04 0.714662597,10.7466667 0.482662597,11.44 C-0.361337403,13.972 -0.09200407,16.0986667 1.23999593,17.4293333 C2.04799593,18.2386667 3.1866626,18.6666667 4.5306626,18.6666667 C5.9826626,18.6666667 7.6506626,18.1546667 9.33599593,17.2506667 C11.0199959,18.1546667 12.6879959,18.6666667 14.1399959,18.6666667 C15.4853293,18.6666667 16.6239959,18.2386667 17.4319959,17.4293333 C18.7639959,16.0986667 19.0319959,13.972 18.1879959,11.44 C17.9573293,10.7466667 17.6226626,10.04 17.2439959,9.33333333" id="Fill-1"></path>
                </g>
            </g>
        </g>
    </g>
</svg>