<?xml version="1.0" encoding="UTF-8"?>
<svg version="1.1" viewBox="105 88 1900 600" width="1658" height="624" xmlns="http://www.w3.org/2000/svg">

    <defs>
        <style>
            :root {
            /* Светлые (были бирюзовые, стали мягкие голубые) */
            --bright-1: #A4C8E0; --bright-2: #8AB8D6; --bright-3: #97C0D9; --bright-4: #7DA6C4;

            /* Средние (стали классические синие) */
            --mid-1: #6A9CC2; --mid-2: #5A8AB0; --mid-3: #4A7A9E; --mid-4: #406A8C;
            --mid-5: #4D7B9A; --mid-6: #3A627D; --mid-7: #466D8E; --mid-8: #3F6A8A;

            /* Темные (стали глубокие холодные синие) */
            --dark-1: #345B7F; --dark-2: #2B4E6B; --dark-3: #22405E; --dark-4: #21395C;
            --dark-5: #3F5E86; --dark-6: #2C486C; --dark-7: #314E74; --dark-8: #274064;

            /* Глубокие (стали темный индиго и почти черный) */
            --deep-1: #1E3152; --deep-2: #1C2446; --deep-3: #182040; --deep-4: #161C3C;
            --deep-5: #1D2A51; --deep-6: #171E3F; --deep-7: #161A3B;
            }
        </style>
    </defs>

    <path transform="translate(1541,311)" d="m0 0h33l9 1v152h-42z" fill="var(--mid-3)"/>
    <path transform="translate(1349,311)" d="m0 0h41v153h-41z" fill="var(--mid-6)"/>
    <path transform="translate(1604,311)" d="m0 0h41v153h-41z" fill="var(--mid-3)"/>
    <path transform="translate(1478,311)" d="m0 0h41v153h-41z" fill="var(--mid-5)"/>
    <path transform="translate(1666,312)" d="m0 0h40v151h-40z" fill="var(--mid-8)"/>
    <path transform="translate(1414,312)" d="m0 0h40v151h-40z" fill="var(--mid-3)"/>
    <path transform="translate(1349,311)" d="m0 0h41v67l-2 7-7 2h-10l-13-2-7-5-1 83h40v1h-41z" fill="var(--mid-5)"/>
    <path transform="translate(1478,351)" d="m0 0h1l2 23 2 11 3 4v2h14l5-2h7l4-6 1-5h1v85h-40z" fill="var(--dark-1)"/>
    <path transform="translate(1666,312)" d="m0 0h40v41l-1 33-3 2-10-1h-8l-10-4-7-6-1-37z" fill="var(--bright-4)"/>
    <path transform="translate(1604,311)" d="m0 0h41v72h-1l-1-10-4 1-3-1h-18l-8-5-4-5-1 100h40v1h-41z" fill="var(--bright-4)"/>
    <path transform="translate(1414,357)" d="m0 0h1v48l4 2 5 4 6 1h7l9-1h5l1-3 1-48h1v103h-40z" fill="var(--mid-6)"/>
    <path transform="translate(1581,364)" d="m0 0h1v99h-40v-88h1l1 26 3 10v3l9 1 2 1h8l9-1 5-2z" fill="var(--mid-6)"/>
    <path transform="translate(604,311)" d="m0 0h42v40h-42z" fill="var(--mid-8)"/>
    <path transform="translate(1413,255)" d="m0 0h42v39l-1 1h-40l-1-1z" fill="var(--bright-4)"/>
    <path transform="translate(605,424)" d="m0 0h40l1 1v38l-1 1h-41v-39z" fill="var(--dark-2)"/>
    <path transform="translate(1349,255)" d="m0 0h41l1 9v22l-1 9h-41z" fill="var(--bright-4)"/>
    <path transform="translate(1012,255)" d="m0 0h42v40h-41l-1-19z" fill="var(--mid-2)"/>
    <path transform="translate(1577,142)" d="m0 0h7v14l-1 22-1 4h-41v-38l1-1z" fill="var(--bright-1)"/>
    <path transform="translate(1415,313)" d="m0 0h38v39l-3 3-10 2-7 2-8 1-8-4-1-9-1-2z" fill="var(--mid-5)"/>
    <path transform="translate(669,593)" d="m0 0h41v40h-41z" fill="var(--deep-4)"/>
    <path transform="translate(541,424)" d="m0 0h41v40h-41z" fill="var(--dark-2)"/>
    <path transform="translate(413,424)" d="m0 0h41v40h-41z" fill="var(--dark-3)"/>
    <path transform="translate(289,424)" d="m0 0h41v40h-41z" fill="var(--deep-2)"/>
    <path transform="translate(1604,255)" d="m0 0h41v40h-41z" fill="var(--bright-4)"/>
    <path transform="translate(1478,593)" d="m0 0h40l1 1v39h-41z" fill="var(--deep-1)"/>
    <path transform="translate(1414,593)" d="m0 0h40l1 1v39h-41z" fill="var(--deep-1)"/>
    <path transform="translate(937,452)" d="m0 0h40l1 1v39h-41z" fill="var(--dark-2)"/>
    <path transform="translate(477,311)" d="m0 0h40l1 1v39h-41z" fill="var(--dark-6)"/>
    <path transform="translate(413,311)" d="m0 0h40l1 1v39h-41z" fill="var(--dark-3)"/>
    <path transform="translate(228,311)" d="m0 0h40l1 1v39h-41z" fill="var(--deep-2)"/>
    <path transform="translate(1665,255)" d="m0 0h41v40h-40l-1-1z" fill="var(--bright-4)"/>
    <path transform="translate(1100,255)" d="m0 0h40v40h-41v-39z" fill="var(--bright-4)"/>
    <path transform="translate(1542,593)" d="m0 0h40v40h-40l-1-1v-38z" fill="var(--deep-2)"/>
    <path transform="translate(1605,593)" d="m0 0h40v40h-40l-1-1v-38z" fill="var(--deep-1)"/>
    <path transform="translate(290,311)" d="m0 0h40v40h-40l-1-1v-38z" fill="var(--deep-1)"/>
    <path transform="translate(1541,255)" d="m0 0h42v39h-42z" fill="var(--mid-1)"/>
    <path transform="translate(1788,424)" d="m0 0h40l1 1v38l-1 1h-39l-1-1z" fill="var(--mid-1)"/>
    <path transform="translate(1203,283)" d="m0 0h20l1 14v17l-1 9h-40l-1-1v-38z" fill="var(--mid-1)"/>
    <path transform="translate(1414,199)" d="m0 0h40l1 1v39l-42-1v-30z" fill="var(--bright-2)"/>
    <path transform="translate(1541,88)" d="m0 0h41l1 1v37l-1 1h-40l-1-1z" fill="var(--bright-1)"/>
    <path transform="translate(1012,199)" d="m0 0h42v39h-41l-1-7z" fill="var(--mid-2)"/>
    <path transform="translate(1548,199)" d="m0 0h34l1 1v38h-42v-38z" fill="var(--bright-1)"/>
    <path transform="translate(1796,311)" d="m0 0h32l1 1v38l-1 1h-40v-39z" fill="var(--bright-1)"/>
    <path transform="translate(1354,199)" d="m0 0h36l1 1v31l-1 7h-41v-38z" fill="var(--bright-2)"/>
    <path transform="translate(228,424)" d="m0 0h41v32l-1 7-10 1h-29l-1-1z" fill="var(--deep-2)"/>
    <path transform="translate(1605,142)" d="m0 0h18l22 1v39h-41v-39z" fill="var(--bright-1)"/>
    <path transform="translate(1742,367)" d="m0 0h25l1 1v39h-41v-31l1-8z" fill="var(--mid-1)"/>
    <path transform="translate(1413,143)" d="m0 0h42v39h-41l-1-22z" fill="var(--bright-1)"/>
    <path transform="translate(1727,311)" d="m0 0h24l17 1v30l-1 9h-40z" fill="var(--bright-2)"/>
    <path transform="translate(256,367)" d="m0 0h13v39l-1 1h-40v-39z" fill="var(--deep-2)"/>
    <path transform="translate(1864,367)" d="m0 0 26 1v39h-41v-39z" fill="var(--bright-1)"/>
    <path transform="translate(1478,255)" d="m0 0h40l1 1v38h-41l-1-38z" fill="var(--bright-4)"/>
    <path transform="translate(351,424)" d="m0 0h40v40h-40z" fill="var(--deep-2)"/>
    <path transform="translate(351,311)" d="m0 0h40v40h-40z" fill="var(--deep-5)"/>
    <path transform="translate(1541,650)" d="m0 0h41v39h-41z" fill="var(--deep-2)"/>
    <path transform="translate(477,537)" d="m0 0h41v39h-41z" fill="var(--deep-2)"/>
    <path transform="translate(1541,537)" d="m0 0h41v39h-41z" fill="var(--dark-3)"/>
    <path transform="translate(1478,537)" d="m0 0h41v39h-41z" fill="var(--dark-3)"/>
    <path transform="translate(1414,537)" d="m0 0h41v39h-41z" fill="var(--dark-3)"/>
    <path transform="translate(1013,537)" d="m0 0h41v39h-41z" fill="var(--dark-3)"/>
    <path transform="translate(669,537)" d="m0 0h41v39h-41z" fill="var(--deep-5)"/>
    <path transform="translate(1604,481)" d="m0 0h41v39h-41z" fill="var(--dark-2)"/>
    <path transform="translate(1013,481)" d="m0 0h41v39h-41z" fill="var(--dark-4)"/>
    <path transform="translate(1099,481)" d="m0 0h41v39h-41z" fill="var(--dark-1)"/>
    <path transform="translate(669,481)" d="m0 0h41v39h-41z" fill="var(--dark-4)"/>
    <path transform="translate(605,481)" d="m0 0h41v39h-41z" fill="var(--dark-3)"/>
    <path transform="translate(541,481)" d="m0 0h41v39h-41z" fill="var(--deep-5)"/>
    <path transform="translate(477,481)" d="m0 0h41v39h-41z" fill="var(--deep-2)"/>
    <path transform="translate(1541,481)" d="m0 0h41v39h-41z" fill="var(--dark-2)"/>
    <path transform="translate(1478,481)" d="m0 0h41v39h-41z" fill="var(--dark-2)"/>
    <path transform="translate(1349,481)" d="m0 0h41v39h-41z" fill="var(--dark-4)"/>
    <path transform="translate(1182,452)" d="m0 0h41v39h-41z" fill="var(--dark-1)"/>
    <path transform="translate(1727,424)" d="m0 0h41v39h-41z" fill="var(--mid-2)"/>
    <path transform="translate(1276,424)" d="m0 0h41v39h-41z" fill="var(--dark-1)"/>
    <path transform="translate(1099,424)" d="m0 0h41v39h-41z" fill="var(--mid-8)"/>
    <path transform="translate(477,424)" d="m0 0h41v39h-41z" fill="var(--dark-4)"/>
    <path transform="translate(1013,424)" d="m0 0h41v39h-41z" fill="var(--dark-1)"/>
    <path transform="translate(669,424)" d="m0 0h41v39h-41z" fill="var(--dark-2)"/>
    <path transform="translate(1182,396)" d="m0 0h41v39h-41z" fill="var(--mid-7)"/>
    <path transform="translate(937,396)" d="m0 0h41v39h-41z" fill="var(--dark-1)"/>
    <path transform="translate(289,368)" d="m0 0h41v39h-41z" fill="var(--deep-1)"/>
    <path transform="translate(166,368)" d="m0 0h41v39h-41z" fill="var(--deep-2)"/>
    <path transform="translate(105,368)" d="m0 0h41v39h-41z" fill="var(--deep-2)"/>
    <path transform="translate(413,368)" d="m0 0h41v39h-41z" fill="var(--dark-3)"/>
    <path transform="translate(1276,368)" d="m0 0h41v39h-41z" fill="var(--mid-7)"/>
    <path transform="translate(1099,368)" d="m0 0h41v39h-41z" fill="var(--mid-5)"/>
    <path transform="translate(1013,368)" d="m0 0h41v39h-41z" fill="var(--mid-7)"/>
    <path transform="translate(541,368)" d="m0 0h41v39h-41z" fill="var(--dark-2)"/>
    <path transform="translate(477,368)" d="m0 0h41v39h-41z" fill="var(--dark-2)"/>
    <path transform="translate(1910,368)" d="m0 0h41v39h-41z" fill="var(--bright-1)"/>
    <path transform="translate(669,368)" d="m0 0h41v39h-41z" fill="var(--dark-1)"/>
    <path transform="translate(937,340)" d="m0 0h41v39h-41z" fill="var(--mid-8)"/>
    <path transform="translate(1276,312)" d="m0 0h41v39h-41z" fill="var(--mid-5)"/>
    <path transform="translate(1099,312)" d="m0 0h41v39h-41z" fill="var(--mid-2)"/>
    <path transform="translate(1013,312)" d="m0 0h41v39h-41z" fill="var(--mid-5)"/>
    <path transform="translate(669,312)" d="m0 0h41v39h-41z" fill="var(--mid-3)"/>
    <path transform="translate(541,312)" d="m0 0h41v39h-41z" fill="var(--mid-6)"/>
    <path transform="translate(937,284)" d="m0 0h41v39h-41z" fill="var(--mid-5)"/>
    <path transform="translate(669,255)" d="m0 0h41v39h-41z" fill="var(--mid-3)"/>
    <path transform="translate(541,255)" d="m0 0h41v39h-41z" fill="var(--mid-6)"/>
    <path transform="translate(413,255)" d="m0 0h41v39h-41z" fill="var(--dark-3)"/>
    <path transform="translate(605,199)" d="m0 0h41v39h-41z" fill="var(--mid-8)"/>
    <path transform="translate(541,199)" d="m0 0h41v39h-41z" fill="var(--dark-1)"/>
    <path transform="translate(605,143)" d="m0 0h41v39h-41z" fill="var(--mid-8)"/>
    <path transform="translate(1605,537)" d="m0 0h40v39h-41v-38z" fill="var(--dark-2)"/>
    <path transform="translate(1350,537)" d="m0 0h40v39h-41v-38z" fill="var(--dark-3)"/>
    <path transform="translate(605,368)" d="m0 0h41v38l-1 1h-40z" fill="var(--dark-1)"/>
    <path transform="translate(605,255)" d="m0 0h40l1 1v38h-41z" fill="var(--dark-5)"/>
    <path transform="translate(477,255)" d="m0 0h40l1 1v38h-41z" fill="var(--dark-2)"/>
    <path transform="translate(413,199)" d="m0 0h40l1 1v38h-41z" fill="var(--dark-3)"/>
    <path transform="translate(857,424)" d="m0 0h39l1 1v38h-41v-38z" fill="var(--dark-1)"/>
    <path transform="translate(1604,199)" d="m0 0h38l3 1v38l-40 1-1-1z" fill="var(--bright-1)"/>
    <path transform="translate(1796,367)" d="m0 0 33 1v30l-1 9h-40v-39z" fill="var(--bright-2)"/>
    <path transform="translate(1478,199)" d="m0 0h33l7 1 1 7v31l-41 1z" fill="var(--bright-2)"/>
    <path transform="translate(1478,143)" d="m0 0h41v29l-1 10-40 1z" fill="var(--bright-1)"/>
    <path transform="translate(1605,375)" d="m0 0h1l1 42 8 5 4 2 14 1 3 2v2l7 2v-22h1l1 36v18h-40z" fill="var(--dark-1)"/>
    <path transform="translate(685,199)" d="m0 0h11l14 1v38h-41v-38z" fill="var(--mid-3)"/>
    <path transform="translate(736,537)" d="m0 0h40v39h-40z" fill="var(--deep-1)"/>
    <path transform="translate(1666,481)" d="m0 0h40v39h-40z" fill="var(--dark-1)"/>
    <path transform="translate(1414,481)" d="m0 0h40v39h-40z" fill="var(--dark-2)"/>
    <path transform="translate(736,481)" d="m0 0h40v39h-40z" fill="var(--dark-2)"/>
    <path transform="translate(736,424)" d="m0 0h40v39h-40z" fill="var(--dark-2)"/>
    <path transform="translate(795,424)" d="m0 0h40v39h-40z" fill="var(--dark-1)"/>
    <path transform="translate(856,368)" d="m0 0h40v39h-40z" fill="var(--dark-5)"/>
    <path transform="translate(795,368)" d="m0 0h40v39h-40z" fill="var(--dark-5)"/>
    <path transform="translate(736,368)" d="m0 0h40v39h-40z" fill="var(--dark-5)"/>
    <path transform="translate(351,368)" d="m0 0h40v39h-40z" fill="var(--deep-5)"/>
    <path transform="translate(1183,340)" d="m0 0h40v39h-40z" fill="var(--mid-5)"/>
    <path transform="translate(856,312)" d="m0 0h40v39h-40z" fill="var(--mid-5)"/>
    <path transform="translate(795,312)" d="m0 0h40v39h-40z" fill="var(--mid-5)"/>
    <path transform="translate(736,312)" d="m0 0h40v39h-40z" fill="var(--mid-3)"/>
    <path transform="translate(736,256)" d="m0 0h40v38h-40z" fill="var(--mid-5)"/>
    <path transform="translate(736,200)" d="m0 0h40v38h-40z" fill="var(--mid-5)"/>

</svg>
